<svg id="Capa_1" data-name="Capa 1" xmlns="http://www.w3.org/2000/svg" viewBox="0 0 595.28 841.89"><defs><style>.cls-1,.cls-2,.cls-5{fill:#fff;}.cls-1,.cls-2,.cls-3,.cls-5{stroke:#1d1d1b;stroke-miterlimit:10;}.cls-2,.cls-3{stroke-width:0.5px;}.cls-3{fill:none;}.cls-4{fill:#1d1d1b;}.cls-5{stroke-width:0.25px;}</style></defs><polyline class="cls-1" points="242.47 239.09 242.47 90.09 371.47 90.09 371.47 239.05"/><polygon class="cls-2" points="242.47 239.09 235.88 252.6 239 252.6 249.06 252.6 242.47 239.09"/><polygon class="cls-2" points="371.47 239.09 364.88 252.6 378.06 252.6 371.47 239.09"/><line class="cls-2" x1="234.5" y1="258.45" x2="236.39" y2="252.9"/><line class="cls-2" x1="238.07" y1="258.45" x2="239.96" y2="252.9"/><line class="cls-2" x1="241.42" y1="258.45" x2="243.31" y2="252.9"/><line class="cls-2" x1="244.67" y1="258.45" x2="246.55" y2="252.9"/><line class="cls-2" x1="247.18" y1="258.45" x2="249.06" y2="252.9"/><line class="cls-2" x1="363.5" y1="258.45" x2="365.39" y2="252.9"/><line class="cls-2" x1="367.07" y1="258.45" x2="368.96" y2="252.9"/><line class="cls-2" x1="370.42" y1="258.45" x2="372.31" y2="252.9"/><line class="cls-2" x1="373.67" y1="258.45" x2="375.55" y2="252.9"/><line class="cls-2" x1="376.18" y1="258.45" x2="378.06" y2="252.9"/><line class="cls-3" x1="242.47" y1="61.18" x2="242.47" y2="81.14"/><polygon class="cls-4" points="242.47 84.67 240.44 79.69 242.47 80.87 244.5 79.69 242.47 84.67"/><line class="cls-3" x1="371.47" y1="61.18" x2="371.47" y2="81.14"/><polygon class="cls-4" points="371.47 84.67 369.44 79.69 371.47 80.87 373.5 79.69 371.47 84.67"/><line class="cls-3" x1="242.47" y1="35.13" x2="242.47" y2="55.09"/><polygon class="cls-4" points="242.47 58.62 240.44 53.65 242.47 54.83 244.5 53.65 242.47 58.62"/><line class="cls-3" x1="371.47" y1="35.13" x2="371.47" y2="55.09"/><polygon class="cls-4" points="371.47 58.62 369.44 53.65 371.47 54.83 373.5 53.65 371.47 58.62"/><line class="cls-3" x1="225.05" y1="93.68" x2="225.05" y2="235.46"/><polygon class="cls-4" points="222.55 94.41 225.05 90.09 227.54 94.41 222.55 94.41"/><polygon class="cls-4" points="222.55 234.73 225.05 239.05 227.54 234.73 222.55 234.73"/><line class="cls-5" x1="217.22" y1="90.09" x2="232.2" y2="90.09"/><line class="cls-5" x1="217.22" y1="239.05" x2="232.2" y2="239.05"/><line class="cls-3" x1="246.89" y1="70.03" x2="366.84" y2="70.03"/><polygon class="cls-4" points="247.62 72.52 243.31 70.03 247.62 67.53 247.62 72.52"/><polygon class="cls-4" points="366.11 72.52 370.42 70.03 366.11 67.53 366.11 72.52"/><path class="cls-4" d="M302.5,66c-.05.19-.06.29.17.29h.7a2,2,0,0,0,2-1.61c.07-.17.09-.2.19-.2s.15,0,.15.12-.6,1.62-.68,1.83-.07.17-.28.17h-3.86c-.14,0-.25,0-.25-.12s0-.19.2-.19h.2c.37,0,.48,0,.54-.25l1.08-4.27c.07-.28,0-.32-.43-.32-.17,0-.29,0-.29-.13s.1-.19.2-.19c.5,0,.64,0,1,0l1.35,0s.16,0,.16.12-.1.2-.29.2h-.14c-.48,0-.65,0-.72.28Z"/><path class="cls-4" d="M302.5,66c-.05.19-.06.29.17.29h.7a2,2,0,0,0,2-1.61c.07-.17.09-.2.19-.2s.15,0,.15.12-.6,1.62-.68,1.83-.07.17-.28.17h-3.86c-.14,0-.25,0-.25-.12s0-.19.2-.19h.2c.37,0,.48,0,.54-.25l1.08-4.27c.07-.28,0-.32-.43-.32-.17,0-.29,0-.29-.13s.1-.19.2-.19c.5,0,.64,0,1,0l1.35,0s.16,0,.16.12-.1.2-.29.2h-.14c-.48,0-.65,0-.72.28Z"/><path class="cls-4" d="M219.67,167.66a1.66,1.66,0,0,1-.58-1.22c0-.49.19-1.07.94-1.07a8,8,0,0,1,1.81.51,2,2,0,0,0,.57.13c.22,0,.21-.11.21-.17,0-.24-.19-.59-1-.82-.1,0-.12-.06-.12-.15s0-.15.11-.15a1.82,1.82,0,0,1,1.08.56.89.89,0,0,1,.2.6.74.74,0,0,1-.71.8,1.34,1.34,0,0,1-.47-.12,7.54,7.54,0,0,0-1.82-.48c-.27,0-.54.11-.54.41a1.48,1.48,0,0,0,.77,1.18.9.9,0,0,0,.37.17l2.05.51a.39.39,0,0,1,.35.42.27.27,0,0,1-.28.3l-.2,0L217.89,168c-.28-.06-.35-.08-.35.3,0,.09,0,.21-.13.21s-.2-.12-.2-.21a9.66,9.66,0,0,0-.08-1,.12.12,0,0,1,.13-.14l.18,0Z"/><path class="cls-4" d="M231.66,66.45c.07-.27.05-.29-.32-.29-.15,0-.22,0-.22-.1s.09-.13.2-.13h2.2a1.44,1.44,0,0,1,1.55,1.5,2.59,2.59,0,0,1-2.58,2.6h-2.15c-.15,0-.19,0-.19-.1s0-.14.23-.14h.15c.28,0,.3-.06.34-.21Zm-.11,3.06c-.05.19-.05.28.07.28h.74c1.4,0,2-1.33,2-2.57a1,1,0,0,0-1.15-1.06h-.72c-.14,0-.15,0-.19.17Z"/><path class="cls-4" d="M236.48,69.57c0,.15,0,.22.13.22h.53a1.53,1.53,0,0,0,1.51-1.21c0-.12.07-.15.14-.15a.11.11,0,0,1,.12.1s-.45,1.21-.51,1.37-.06.13-.21.13h-2.9c-.1,0-.19,0-.19-.09s0-.15.15-.15h.15c.28,0,.36,0,.41-.19l.81-3.2c0-.21,0-.24-.32-.24-.13,0-.22,0-.22-.1s.07-.13.15-.13H238s.12,0,.12.09-.07.14-.22.14h-.1c-.36,0-.49,0-.54.21Z"/><path class="cls-4" d="M231.56,44.38c0,.14,0,.22.13.22h.53a1.54,1.54,0,0,0,1.51-1.21c.05-.13.07-.15.14-.15s.12,0,.12.1-.45,1.21-.51,1.36-.06.14-.21.14h-2.9c-.1,0-.19,0-.19-.09s0-.15.15-.15h.15c.28,0,.36,0,.41-.19l.81-3.2c.05-.21,0-.24-.32-.24-.13,0-.22,0-.22-.1s.07-.14.15-.14l.78,0,1,0s.12,0,.12.09-.07.15-.22.15h-.1c-.36,0-.49,0-.54.21Z"/><path class="cls-4" d="M235.52,44.38c0,.14-.05.22.12.22h.53a1.56,1.56,0,0,0,1.52-1.21c.05-.13.06-.15.14-.15a.1.1,0,0,1,.11.1s-.45,1.21-.51,1.36-.05.14-.21.14h-2.9c-.1,0-.18,0-.18-.09s0-.15.15-.15h.15c.27,0,.36,0,.41-.19l.8-3.2c0-.21,0-.24-.32-.24-.12,0-.21,0-.21-.1s.07-.14.14-.14l.79,0,1,0s.11,0,.11.09-.07.15-.21.15h-.11c-.36,0-.49,0-.53.21Z"/><path class="cls-4" d="M376.06,70.2c.06-.27.05-.29-.33-.29-.15,0-.21,0-.21-.1s.09-.14.2-.14h2.2a1.44,1.44,0,0,1,1.55,1.51,2.58,2.58,0,0,1-2.58,2.59h-2.15c-.15,0-.19,0-.19-.1s.05-.13.22-.13h.16c.28,0,.3-.06.34-.21Zm-.11,3c-.05.19-.06.29.07.29h.73c1.41,0,2.05-1.33,2.05-2.58a1,1,0,0,0-1.14-1h-.72c-.15,0-.16,0-.19.16Z"/><path class="cls-4" d="M380.88,73.32c0,.14-.05.22.13.22h.52a1.54,1.54,0,0,0,1.52-1.21c.05-.13.07-.15.14-.15s.11,0,.11.09-.45,1.21-.51,1.37-.05.13-.21.13h-2.89c-.11,0-.19,0-.19-.09s0-.14.15-.14h.15c.28,0,.36,0,.41-.19l.8-3.21c.06-.21,0-.23-.32-.23-.12,0-.21,0-.21-.1s.07-.14.14-.14l.79,0,1,0s.12,0,.12.09-.08.15-.22.15h-.1c-.37,0-.49,0-.54.2Z"/><path class="cls-4" d="M376,48.13c0,.14,0,.22.13.22h.52a1.54,1.54,0,0,0,1.52-1.21c.05-.13.07-.15.14-.15s.11,0,.11.09-.45,1.21-.51,1.37-.05.13-.21.13h-2.89c-.1,0-.19,0-.19-.09s0-.14.15-.14h.15c.28,0,.36,0,.41-.19l.8-3.21c.06-.21,0-.24-.32-.24-.12,0-.21,0-.21-.09s.07-.14.14-.14l.79,0,1,0s.12,0,.12.09-.08.14-.22.14h-.1c-.37,0-.49,0-.54.21Z"/><path class="cls-4" d="M379.91,48.13c0,.14,0,.22.13.22h.53a1.54,1.54,0,0,0,1.51-1.21c.05-.13.07-.15.14-.15s.12,0,.12.09-.45,1.21-.51,1.37-.06.13-.21.13h-2.9c-.1,0-.18,0-.18-.09s0-.14.14-.14h.15c.28,0,.36,0,.41-.19l.81-3.21c.05-.21,0-.24-.32-.24-.13,0-.22,0-.22-.09s.07-.14.15-.14l.78,0,1,0s.11,0,.11.09-.07.14-.22.14h-.1c-.36,0-.49,0-.54.21Z"/></svg>