<svg id="Capa_1" data-name="Capa 1" xmlns="http://www.w3.org/2000/svg" viewBox="0 0 595.28 841.89"><defs><style>.cls-1,.cls-2,.cls-5{fill:#fff;}.cls-1,.cls-2,.cls-3,.cls-5,.cls-6,.cls-7{stroke:#1d1d1b;stroke-miterlimit:10;}.cls-2,.cls-3,.cls-6,.cls-7{stroke-width:0.5px;}.cls-3,.cls-6,.cls-7{fill:none;}.cls-4{fill:#1d1d1b;}.cls-5{stroke-width:0.25px;}.cls-6{stroke-dasharray:6.28 6.28;}.cls-7{stroke-dasharray:5.05 5.05;}.cls-8{fill:#1d71b8;}.cls-8,.cls-9{opacity:0.5;}.cls-9{fill:#ea5b0c;}</style></defs><polyline class="cls-1" points="105.05 252.94 105.05 103.94 234.05 103.94 234.05 252.9"/><polygon class="cls-2" points="105.05 252.94 98.47 266.45 101.59 266.45 111.64 266.45 105.05 252.94"/><polygon class="cls-2" points="234.05 252.94 227.47 266.45 240.64 266.45 234.05 252.94"/><line class="cls-2" x1="97.08" y1="272.3" x2="98.97" y2="266.75"/><line class="cls-2" x1="100.65" y1="272.3" x2="102.54" y2="266.75"/><line class="cls-2" x1="104" y1="272.3" x2="105.89" y2="266.75"/><line class="cls-2" x1="107.25" y1="272.3" x2="109.13" y2="266.75"/><line class="cls-2" x1="109.76" y1="272.3" x2="111.64" y2="266.75"/><line class="cls-2" x1="226.08" y1="272.3" x2="227.97" y2="266.75"/><line class="cls-2" x1="229.65" y1="272.3" x2="231.54" y2="266.75"/><line class="cls-2" x1="233" y1="272.3" x2="234.89" y2="266.75"/><line class="cls-2" x1="236.25" y1="272.3" x2="238.13" y2="266.75"/><line class="cls-2" x1="238.76" y1="272.3" x2="240.64" y2="266.75"/><line class="cls-3" x1="105.05" y1="66.88" x2="105.05" y2="94.99"/><polygon class="cls-4" points="105.05 98.52 103.02 93.54 105.05 94.72 107.09 93.54 105.05 98.52"/><line class="cls-3" x1="234.05" y1="66.88" x2="234.05" y2="94.99"/><polygon class="cls-4" points="234.05 98.52 232.02 93.54 234.05 94.72 236.09 93.54 234.05 98.52"/><line class="cls-3" x1="87.63" y1="107.53" x2="87.63" y2="249.31"/><polygon class="cls-4" points="85.14 108.26 87.63 103.94 90.12 108.26 85.14 108.26"/><polygon class="cls-4" points="85.14 248.58 87.63 252.9 90.12 248.58 85.14 248.58"/><line class="cls-5" x1="79.8" y1="103.94" x2="94.78" y2="103.94"/><line class="cls-5" x1="79.8" y1="252.9" x2="94.78" y2="252.9"/><line class="cls-3" x1="109.48" y1="83.88" x2="229.42" y2="83.88"/><polygon class="cls-4" points="110.2 86.37 105.89 83.88 110.2 81.39 110.2 86.37"/><polygon class="cls-4" points="228.69 86.37 233 83.88 228.69 81.39 228.69 86.37"/><path class="cls-4" d="M165.08,79.87c-.05.19-.06.29.17.29h.7a2.07,2.07,0,0,0,2-1.61c.06-.17.08-.2.18-.2a.14.14,0,0,1,.15.13c0,.06-.6,1.61-.68,1.82s-.07.17-.28.17h-3.86c-.14,0-.25,0-.25-.12s0-.19.2-.19h.2c.37,0,.48,0,.55-.25l1.07-4.27c.07-.28,0-.32-.43-.32-.16,0-.28,0-.28-.13s.09-.18.19-.18l1,0,1.35,0s.15,0,.15.11-.1.2-.29.2h-.14c-.48,0-.65,0-.71.28Z"/><path class="cls-4" d="M165.08,79.87c-.05.19-.06.29.17.29h.7a2.07,2.07,0,0,0,2-1.61c.06-.17.08-.2.18-.2a.14.14,0,0,1,.15.13c0,.06-.6,1.61-.68,1.82s-.07.17-.28.17h-3.86c-.14,0-.25,0-.25-.12s0-.19.2-.19h.2c.37,0,.48,0,.55-.25l1.07-4.27c.07-.28,0-.32-.43-.32-.16,0-.28,0-.28-.13s.09-.18.19-.18l1,0,1.35,0s.15,0,.15.11-.1.2-.29.2h-.14c-.48,0-.65,0-.71.28Z"/><path class="cls-4" d="M82.25,181.51a1.66,1.66,0,0,1-.58-1.22c0-.49.19-1.07.94-1.07a8,8,0,0,1,1.81.51,2,2,0,0,0,.57.13c.22,0,.21-.11.21-.17,0-.24-.19-.59-1-.82-.1,0-.12-.06-.12-.15s0-.15.11-.15a1.84,1.84,0,0,1,1.09.56.94.94,0,0,1,.19.6.74.74,0,0,1-.71.8,1.39,1.39,0,0,1-.47-.12,7.42,7.42,0,0,0-1.82-.48c-.26,0-.54.11-.54.41a1.51,1.51,0,0,0,.77,1.19,1,1,0,0,0,.37.16l2,.51a.39.39,0,0,1,.35.42.27.27,0,0,1-.28.3l-.19,0-4.52-1.08c-.28-.06-.35-.08-.35.3,0,.1,0,.21-.13.21s-.2-.11-.2-.21a9.1,9.1,0,0,0-.08-1,.13.13,0,0,1,.14-.15l.17,0Z"/><path class="cls-4" d="M99.62,66.37c0,.18-.05.28.11.28h.3a.11.11,0,0,1,.12.13c0,.09-.1.1-.15.1H98.34c-.09,0-.11,0-.11-.09s0-.14.17-.14h.2c.18,0,.28,0,.33-.19l.8-3.17c0-.19.06-.27-.13-.27h-.27c-.11,0-.14,0-.14-.1s.09-.14.21-.14h2.11c.8,0,1.28.37,1.28.92A1.65,1.65,0,0,1,101,65h-1Zm.35-1.54h.85a1.15,1.15,0,0,0,1.27-1.29c0-.42-.41-.52-.82-.52h-.69c-.15,0-.15,0-.19.16Z"/><path class="cls-4" d="M238.4,66.11c0,.18,0,.28.11.28h.31c.07,0,.11,0,.11.13s-.09.1-.14.1h-1.67c-.08,0-.11-.05-.11-.09s.06-.14.18-.14h.2c.17,0,.28,0,.33-.19l.79-3.17c.05-.19.07-.27-.12-.27h-.27c-.11,0-.14,0-.14-.1s.09-.14.2-.14h2.12c.79,0,1.28.37,1.28.92a1.66,1.66,0,0,1-1.81,1.34h-1Zm.36-1.54h.84a1.16,1.16,0,0,0,1.28-1.29c0-.42-.42-.52-.82-.52h-.7c-.14,0-.15,0-.19.16Z"/><polyline class="cls-1" points="347.65 252.94 347.65 103.94 476.65 103.94 476.65 252.9"/><polygon class="cls-2" points="347.65 252.94 341.06 266.45 344.18 266.45 354.24 266.45 347.65 252.94"/><polygon class="cls-2" points="476.65 252.94 470.06 266.45 483.24 266.45 476.65 252.94"/><line class="cls-2" x1="339.68" y1="272.3" x2="341.56" y2="266.75"/><line class="cls-2" x1="343.25" y1="272.3" x2="345.13" y2="266.75"/><line class="cls-2" x1="346.6" y1="272.3" x2="348.48" y2="266.75"/><line class="cls-2" x1="349.85" y1="272.3" x2="351.73" y2="266.75"/><line class="cls-2" x1="352.35" y1="272.3" x2="354.24" y2="266.75"/><line class="cls-2" x1="468.68" y1="272.3" x2="470.56" y2="266.75"/><line class="cls-2" x1="472.25" y1="272.3" x2="474.13" y2="266.75"/><line class="cls-2" x1="475.6" y1="272.3" x2="477.48" y2="266.75"/><line class="cls-2" x1="478.85" y1="272.3" x2="480.73" y2="266.75"/><line class="cls-2" x1="481.35" y1="272.3" x2="483.24" y2="266.75"/><line class="cls-3" x1="477.48" y1="103.94" x2="479.98" y2="103.94"/><line class="cls-6" x1="486.26" y1="103.94" x2="495.68" y2="103.94"/><path class="cls-3" d="M498.81,103.94h2.5c0,.82,0,1.66,0,2.5"/><path class="cls-7" d="M501.15,111.49c-.84,30.09-4.11,72.32-15.16,114-2.2,8.31-4.51,15.85-6.84,22.67"/><path class="cls-3" d="M478.32,250.59c-.28.79-.56,1.58-.84,2.35"/><line class="cls-3" x1="347.65" y1="103.94" x2="350.15" y2="103.94"/><line class="cls-6" x1="356.43" y1="103.94" x2="365.84" y2="103.94"/><path class="cls-3" d="M369,103.94h2.5c0,.82,0,1.66-.05,2.5"/><path class="cls-7" d="M371.31,111.49c-.83,30.09-4.1,72.32-15.15,114-2.2,8.31-4.51,15.85-6.84,22.67"/><path class="cls-3" d="M348.49,250.59c-.28.79-.56,1.58-.84,2.35"/><line class="cls-3" x1="481.07" y1="92.39" x2="497.73" y2="92.39"/><polygon class="cls-4" points="481.8 94.88 477.48 92.39 481.8 89.9 481.8 94.88"/><polygon class="cls-4" points="497 94.88 501.31 92.39 497 89.9 497 94.88"/><path class="cls-4" d="M489.62,83.53v-.11l-.32-.2c-.66-.41-1-.79-1-1.15a.81.81,0,0,1,.26-.62,1,1,0,0,1,.67-.23,1.59,1.59,0,0,1,.62.14,2.45,2.45,0,0,1,1,.84.85.85,0,0,1,.16.31s0,.08,0,.1a.05.05,0,0,1-.05,0c-.05,0-.16-.08-.33-.23a4.85,4.85,0,0,0-.49-.37,3.2,3.2,0,0,0-.57-.31,1.48,1.48,0,0,0-.51-.1.51.51,0,0,0-.34.1.34.34,0,0,0-.13.27c0,.19.23.41.68.66l.41.23A5,5,0,0,1,491,84a1.85,1.85,0,0,1,.39,1.16,1.68,1.68,0,0,1-.46,1.24,1.53,1.53,0,0,1-1.17.48,1.61,1.61,0,0,1-1.18-.47,1.81,1.81,0,0,1-.07-2.33A1.7,1.7,0,0,1,489.62,83.53Zm-.71,1.67a2.16,2.16,0,0,0,.22,1.07.7.7,0,0,0,.64.37.68.68,0,0,0,.63-.36,2.23,2.23,0,0,0,.22-1.08,2.08,2.08,0,0,0-.22-1.08.67.67,0,0,0-.63-.37.69.69,0,0,0-.64.37A2.18,2.18,0,0,0,488.91,85.2Z"/><polyline class="cls-1" points="92.53 495.74 92.53 346.74 221.53 346.74 221.53 495.7"/><polygon class="cls-2" points="92.53 495.74 85.94 509.25 89.06 509.25 99.11 509.25 92.53 495.74"/><polygon class="cls-2" points="221.53 495.74 214.94 509.25 228.11 509.25 221.53 495.74"/><line class="cls-2" x1="84.56" y1="515.1" x2="86.44" y2="509.55"/><line class="cls-2" x1="88.13" y1="515.1" x2="90.01" y2="509.55"/><line class="cls-2" x1="91.48" y1="515.1" x2="93.36" y2="509.55"/><line class="cls-2" x1="94.72" y1="515.1" x2="96.61" y2="509.55"/><line class="cls-2" x1="97.23" y1="515.1" x2="99.11" y2="509.55"/><line class="cls-2" x1="213.56" y1="515.1" x2="215.44" y2="509.55"/><line class="cls-2" x1="217.13" y1="515.1" x2="219.01" y2="509.55"/><line class="cls-2" x1="220.48" y1="515.1" x2="222.36" y2="509.55"/><line class="cls-2" x1="223.72" y1="515.1" x2="225.61" y2="509.55"/><line class="cls-2" x1="226.23" y1="515.1" x2="228.11" y2="509.55"/><path class="cls-8" d="M222.36,495.74c2.89-8,5.79-17.13,8.51-27.42,12-45.33,14.83-91.27,15.32-121.58H222.36"/><path class="cls-8" d="M92.53,346.74h23.83C115.86,377.05,113,423,101,468.32c-2.73,10.29-5.62,19.4-8.51,27.42"/><line class="cls-3" x1="317.59" y1="103.94" x2="337.54" y2="103.94"/><polygon class="cls-4" points="341.07 103.94 336.1 105.97 337.28 103.94 336.1 101.91 341.07 103.94"/><path class="cls-4" d="M315.63,98.59c-.72,0-1.24-.24-1.24-1.07a5.51,5.51,0,0,1,.49-1.75,1.76,1.76,0,0,0,.11-.49c0-.17-.06-.22-.16-.22s-.62.26-.83,1c0,.11-.06.14-.16.14s-.15,0-.15-.11a2,2,0,0,1,.55-1.06.93.93,0,0,1,.62-.23.75.75,0,0,1,.8.73,1.22,1.22,0,0,1-.13.48,5.44,5.44,0,0,0-.44,1.64.59.59,0,0,0,.59.69c.94,0,1.42-1.84,1.42-2.11a.7.7,0,0,0-.35-.61.36.36,0,0,1-.18-.3.58.58,0,0,1,.51-.53s.46,0,.46.69S317,98.59,315.63,98.59Z"/><path class="cls-4" d="M318.66,95.85c-.12,0-.34,0-.34-.23s.23-.24.35-.24H323c.13,0,.36,0,.36.24s-.22.23-.35.23Zm0,1.81c-.12,0-.35,0-.35-.23s.22-.24.34-.24H323c.13,0,.35,0,.35.24s-.23.23-.36.23Z"/><path class="cls-4" d="M326.44,97.84c0,.34,0,.38.43.39h.64v.28l-1.45,0-1.43,0v-.28h.57c.47,0,.48-.06.48-.39v-4a3.06,3.06,0,0,1-1.13.19v-.28a2.39,2.39,0,0,0,1.64-.52c.23,0,.25,0,.25.23Z"/><path class="cls-4" d="M329.5,94a.4.4,0,0,1-.43-.42.65.65,0,0,1,.64-.63c.24,0,.48.16.48.6a2.72,2.72,0,0,1-1.28,2c-.09,0-.13-.1-.13-.14s0-.07.1-.12a2.6,2.6,0,0,0,1-1.42A.58.58,0,0,1,329.5,94Z"/><polyline class="cls-8" points="221.89 322.91 221.89 346.74 157.03 346.74"/><polyline class="cls-8" points="91.95 370.67 91.95 346.83 156.81 346.83"/><path class="cls-4" d="M238.28,343.11c-.05.24-.06.38.15.38h.41c.09,0,.15.05.15.17s-.13.14-.19.14c-.57,0-.76,0-1.14,0s-.54,0-1.09,0c-.11,0-.14-.07-.14-.12s.07-.19.23-.19h.27c.24,0,.37,0,.43-.26l1.07-4.23c.06-.24.09-.36-.17-.36h-.36c-.14,0-.18-.05-.18-.12s.12-.19.27-.19h2.82c1.06,0,1.7.5,1.7,1.23a2.21,2.21,0,0,1-2.41,1.78h-1.38Zm.48-2h1.12a1.54,1.54,0,0,0,1.7-1.72c0-.57-.55-.71-1.09-.71h-.93c-.19,0-.2,0-.25.23Z"/><path class="cls-4" d="M244.18,340.55v-.1l-.32-.2c-.66-.41-1-.79-1-1.15a.8.8,0,0,1,.25-.62,1,1,0,0,1,.68-.23,1.54,1.54,0,0,1,.61.14,2.16,2.16,0,0,1,.59.39,2.67,2.67,0,0,1,.38.44,1.08,1.08,0,0,1,.17.32.17.17,0,0,1,0,.09.05.05,0,0,1,0,0c-.05,0-.16-.07-.33-.22a4.85,4.85,0,0,0-.49-.37,3.2,3.2,0,0,0-.57-.31,1.48,1.48,0,0,0-.51-.1.54.54,0,0,0-.35.1.32.32,0,0,0-.12.27c0,.19.22.41.67.66.18.09.31.17.41.23a4.87,4.87,0,0,1,1.38,1.1,1.85,1.85,0,0,1,.39,1.16,1.74,1.74,0,0,1-.46,1.24,1.57,1.57,0,0,1-1.18.48,1.59,1.59,0,0,1-1.17-.47,1.66,1.66,0,0,1-.47-1.2,1.59,1.59,0,0,1,.4-1.13A1.71,1.71,0,0,1,244.18,340.55Zm-.7,1.68a2.06,2.06,0,0,0,.22,1.07.72.72,0,0,0,1.26,0,2.06,2.06,0,0,0,.22-1.07,2.26,2.26,0,0,0-.21-1.09.71.71,0,0,0-.64-.36.7.7,0,0,0-.64.37A2.19,2.19,0,0,0,243.48,342.23Z"/><polyline class="cls-1" points="347.48 495.74 347.48 346.74 476.48 346.74 476.48 495.7"/><polygon class="cls-2" points="347.48 495.74 340.89 509.25 344.01 509.25 354.06 509.25 347.48 495.74"/><polygon class="cls-2" points="476.48 495.74 469.89 509.25 483.06 509.25 476.48 495.74"/><line class="cls-2" x1="339.51" y1="515.1" x2="341.39" y2="509.55"/><line class="cls-2" x1="343.08" y1="515.1" x2="344.96" y2="509.55"/><line class="cls-2" x1="346.43" y1="515.1" x2="348.31" y2="509.55"/><line class="cls-2" x1="349.68" y1="515.1" x2="351.56" y2="509.55"/><line class="cls-2" x1="352.18" y1="515.1" x2="354.07" y2="509.55"/><line class="cls-2" x1="468.51" y1="515.1" x2="470.39" y2="509.55"/><line class="cls-2" x1="472.08" y1="515.1" x2="473.96" y2="509.55"/><line class="cls-2" x1="475.43" y1="515.1" x2="477.31" y2="509.55"/><line class="cls-2" x1="478.68" y1="515.1" x2="480.56" y2="509.55"/><line class="cls-2" x1="481.18" y1="515.1" x2="483.07" y2="509.55"/><path class="cls-4" d="M483,328.61c-.06.24-.07.38.14.38h.41a.14.14,0,0,1,.15.16c0,.13-.13.15-.19.15-.57,0-.75,0-1.14,0s-.53,0-1.08,0c-.12,0-.15-.07-.15-.12s.07-.19.23-.19h.28c.23,0,.36,0,.43-.26l1.06-4.23c.07-.25.09-.36-.17-.36h-.36c-.14,0-.18-.05-.18-.13s.12-.18.27-.18h2.82c1.06,0,1.71.5,1.71,1.22a2.21,2.21,0,0,1-2.42,1.79H483.4Zm.47-2.05h1.13a1.53,1.53,0,0,0,1.69-1.72c0-.56-.55-.7-1.09-.7h-.92c-.2,0-.2,0-.26.23Z"/><path class="cls-4" d="M488.76,326.16a1.65,1.65,0,0,1,1.21-.58c.5,0,1.07.19,1.07.94a8.31,8.31,0,0,1-.5,1.81,1.76,1.76,0,0,0-.14.58c0,.21.12.2.17.2.25,0,.59-.19.83-1,0-.11.06-.12.15-.12s.15,0,.15.1a1.87,1.87,0,0,1-.57,1.09.94.94,0,0,1-.6.19.73.73,0,0,1-.79-.71,1.15,1.15,0,0,1,.12-.46,7.63,7.63,0,0,0,.48-1.83c0-.26-.11-.53-.42-.53a1.5,1.5,0,0,0-1.18.76,1.05,1.05,0,0,0-.17.37l-.5,2.06a.4.4,0,0,1-.42.34.26.26,0,0,1-.3-.28s0-.12,0-.19l1.08-4.52c.07-.28.08-.35-.29-.35-.1,0-.22,0-.22-.13s.12-.2.22-.2a9.1,9.1,0,0,0,1-.08.13.13,0,0,1,.14.14.65.65,0,0,1,0,.17Z"/><polyline class="cls-9" points="476.84 322.91 476.84 346.74 411.98 346.74"/><polyline class="cls-9" points="346.9 370.67 346.9 346.83 411.77 346.83"/><path class="cls-4" d="M333.46,359.67c-.06.24-.07.38.14.38H334a.14.14,0,0,1,.15.16c0,.13-.13.15-.19.15-.57,0-.75,0-1.14,0s-.53,0-1.08,0c-.12,0-.15-.07-.15-.12s.07-.19.23-.19h.27c.24,0,.37,0,.44-.26l1.06-4.23c.06-.25.09-.36-.17-.36h-.36c-.14,0-.18-.05-.18-.13s.12-.18.27-.18H336c1.06,0,1.71.49,1.71,1.22a2.22,2.22,0,0,1-2.42,1.79H333.9Zm.47-2.05h1.13a1.53,1.53,0,0,0,1.69-1.72c0-.56-.55-.7-1.09-.7h-.92c-.2,0-.2,0-.26.22Z"/><path class="cls-4" d="M339.26,357.22a1.65,1.65,0,0,1,1.21-.58c.5,0,1.07.19,1.07.94a8.46,8.46,0,0,1-.5,1.81,1.76,1.76,0,0,0-.14.58c0,.21.12.2.17.2.25,0,.59-.19.82-1,0-.11.07-.12.16-.12s.15,0,.15.1a1.87,1.87,0,0,1-.57,1.09.94.94,0,0,1-.6.19.73.73,0,0,1-.79-.71,1.19,1.19,0,0,1,.12-.47,7.42,7.42,0,0,0,.48-1.82c0-.26-.11-.53-.42-.53a1.5,1.5,0,0,0-1.18.76,1.05,1.05,0,0,0-.17.37l-.5,2.06a.41.41,0,0,1-.43.34.26.26,0,0,1-.29-.28s0-.12,0-.19l1.08-4.52c.07-.28.08-.35-.29-.35-.1,0-.22,0-.22-.13s.12-.2.22-.2a9.1,9.1,0,0,0,1-.08.13.13,0,0,1,.14.14.65.65,0,0,1,0,.17Z"/><path class="cls-4" d="M354.72,339.5c-.06.24-.07.37.14.37h.41c.09,0,.15.06.15.17s-.13.14-.19.14l-1.14,0c-.38,0-.53,0-1.08,0-.12,0-.15-.07-.15-.12s.07-.19.23-.19h.28c.23,0,.36,0,.43-.25l1.06-4.23c.07-.25.09-.36-.17-.36h-.36c-.14,0-.18-.06-.18-.13s.12-.19.27-.19h2.82c1.06,0,1.71.5,1.71,1.23,0,.89-1,1.78-2.42,1.78h-1.37Zm.47-2.05h1.13a1.53,1.53,0,0,0,1.69-1.72c0-.57-.55-.7-1.09-.7H356c-.2,0-.2,0-.26.22Z"/><path class="cls-4" d="M360.52,337.05a1.61,1.61,0,0,1,1.21-.58c.5,0,1.07.19,1.07.94a8.46,8.46,0,0,1-.5,1.81,1.7,1.7,0,0,0-.14.57c0,.22.12.21.17.21.25,0,.59-.19.83-1,0-.1.06-.12.15-.12s.15,0,.15.11a1.85,1.85,0,0,1-.57,1.08.88.88,0,0,1-.6.19.73.73,0,0,1-.79-.71,1.15,1.15,0,0,1,.12-.46,7.67,7.67,0,0,0,.48-1.82c0-.27-.11-.54-.42-.54a1.49,1.49,0,0,0-1.18.77,1.05,1.05,0,0,0-.17.37l-.5,2.05a.39.39,0,0,1-.42.34c-.2,0-.3-.11-.3-.27s0-.12,0-.2l1.08-4.51c.07-.28.08-.36-.29-.36-.1,0-.22,0-.22-.12s.12-.2.22-.2a9.1,9.1,0,0,0,1-.08.12.12,0,0,1,.14.13.64.64,0,0,1,0,.18Z"/><path class="cls-4" d="M493.24,343.11c-.06.24-.07.38.14.38h.41c.09,0,.15.05.15.17s-.13.14-.19.14c-.57,0-.75,0-1.14,0s-.53,0-1.08,0c-.12,0-.15-.07-.15-.12s.07-.19.23-.19h.28c.23,0,.36,0,.43-.26l1.06-4.23c.06-.24.09-.36-.17-.36h-.36c-.14,0-.18-.05-.18-.12s.12-.19.27-.19h2.82c1.06,0,1.71.5,1.71,1.23,0,.89-1,1.78-2.42,1.78h-1.37Zm.47-2h1.13a1.53,1.53,0,0,0,1.69-1.72c0-.57-.55-.71-1.09-.71h-.92c-.2,0-.2,0-.26.23Z"/><path class="cls-4" d="M499,340.67a1.63,1.63,0,0,1,1.21-.59c.5,0,1.07.19,1.07.95a8.22,8.22,0,0,1-.5,1.8,1.76,1.76,0,0,0-.14.58c0,.21.12.21.17.21.25,0,.59-.2.83-1,0-.1.06-.12.15-.12s.15,0,.15.1a1.84,1.84,0,0,1-.57,1.09.88.88,0,0,1-.6.19.73.73,0,0,1-.79-.71,1.15,1.15,0,0,1,.12-.46,7.63,7.63,0,0,0,.48-1.83c0-.26-.11-.53-.42-.53a1.49,1.49,0,0,0-1.18.77,1,1,0,0,0-.17.36l-.5,2.06a.4.4,0,0,1-.42.34.26.26,0,0,1-.3-.28s0-.12,0-.19l1.08-4.52c.07-.28.08-.35-.29-.35-.1,0-.22,0-.22-.13s.12-.2.22-.2a9.1,9.1,0,0,0,1-.08.13.13,0,0,1,.14.14.69.69,0,0,1,0,.18Z"/><polyline class="cls-9" points="347.48 495.74 371.48 346.83 346.9 346.83"/><polyline class="cls-9" points="476.08 495.74 500.08 346.83 475.5 346.83"/><path class="cls-4" d="M226.3,325.72c-.05.24-.06.37.15.37h.4a.15.15,0,0,1,.16.17c0,.13-.13.15-.2.15-.56,0-.75,0-1.13,0s-.54,0-1.09,0a.13.13,0,0,1-.14-.12c0-.15.07-.2.23-.2H225c.23,0,.37,0,.43-.25l1.07-4.23c.06-.25.08-.36-.17-.36h-.36c-.15,0-.19-.06-.19-.13s.12-.18.28-.18h2.82c1,0,1.7.49,1.7,1.22a2.2,2.2,0,0,1-2.41,1.78h-1.38Zm.47-2.05h1.13a1.54,1.54,0,0,0,1.7-1.72c0-.57-.55-.7-1.09-.7h-.93c-.19,0-.2,0-.25.22Z"/><path class="cls-4" d="M232.2,323.16v-.11l-.32-.2c-.66-.4-1-.79-1-1.15a.79.79,0,0,1,.26-.61.93.93,0,0,1,.67-.24,1.55,1.55,0,0,1,.62.14,2,2,0,0,1,.58.39,2.11,2.11,0,0,1,.39.45.8.8,0,0,1,.16.32.22.22,0,0,1,0,.09.06.06,0,0,1-.06,0c-.05,0-.15-.08-.32-.22a4.69,4.69,0,0,0-.49-.38,3.16,3.16,0,0,0-.57-.3,1.51,1.51,0,0,0-.51-.11.54.54,0,0,0-.35.1.35.35,0,0,0-.12.28c0,.19.22.4.67.65l.41.24a5.06,5.06,0,0,1,1.38,1.09,1.92,1.92,0,0,1,.38,1.16,1.76,1.76,0,0,1-.45,1.25,1.6,1.6,0,0,1-1.18.47,1.55,1.55,0,0,1-1.17-.47,1.78,1.78,0,0,1-.07-2.33A1.7,1.7,0,0,1,232.2,323.16Zm-.7,1.67a2.12,2.12,0,0,0,.22,1.08.72.72,0,0,0,1.26,0,2.1,2.1,0,0,0,.22-1.08,2.08,2.08,0,0,0-.22-1.08.67.67,0,0,0-.63-.37.7.7,0,0,0-.64.37A2.25,2.25,0,0,0,231.5,324.83Z"/><path class="cls-4" d="M100.67,343.21c-.06.24-.07.37.14.37h.41c.1,0,.15.06.15.17s-.13.15-.19.15c-.57,0-.75,0-1.14,0s-.53,0-1.08,0a.14.14,0,0,1-.15-.12c0-.15.08-.2.24-.2h.27c.23,0,.36,0,.43-.25l1.06-4.23c.07-.25.09-.36-.17-.36h-.36c-.14,0-.18-.06-.18-.13s.12-.18.27-.18h2.82c1.06,0,1.71.49,1.71,1.22,0,.9-1,1.78-2.42,1.78h-1.37Zm.47-2h1.13a1.53,1.53,0,0,0,1.69-1.72c0-.56-.55-.7-1.08-.7H102c-.19,0-.2,0-.26.22Z"/><path class="cls-4" d="M106.56,340.65v-.11l-.32-.19c-.65-.41-1-.79-1-1.16a.81.81,0,0,1,.25-.61,1,1,0,0,1,.68-.23,1.57,1.57,0,0,1,.62.13,2.11,2.11,0,0,1,.58.39,2.33,2.33,0,0,1,.38.45.79.79,0,0,1,.17.32.2.2,0,0,1,0,.09.05.05,0,0,1,0,0c-.05,0-.16-.07-.33-.22a5,5,0,0,0-.49-.38,2.61,2.61,0,0,0-.57-.3,1.51,1.51,0,0,0-.51-.11.57.57,0,0,0-.34.1.33.33,0,0,0-.13.28c0,.19.23.41.68.65l.41.24a5,5,0,0,1,1.37,1.1,1.82,1.82,0,0,1,.39,1.15,1.72,1.72,0,0,1-.46,1.25,1.52,1.52,0,0,1-1.17.47,1.56,1.56,0,0,1-1.18-.47,1.62,1.62,0,0,1-.46-1.2,1.67,1.67,0,0,1,.39-1.13A1.77,1.77,0,0,1,106.56,340.65Zm-.7,1.67a2.12,2.12,0,0,0,.22,1.08.72.72,0,0,0,.64.37.7.7,0,0,0,.63-.37,2.19,2.19,0,0,0,.21-1.08,2.22,2.22,0,0,0-.21-1.08.69.69,0,0,0-.63-.37.71.71,0,0,0-.64.37A2.12,2.12,0,0,0,105.86,342.32Z"/><path class="cls-4" d="M81.75,357.31c0,.24-.06.37.15.37h.4a.15.15,0,0,1,.16.17c0,.13-.13.15-.2.15-.56,0-.75,0-1.13,0s-.54,0-1.09,0a.13.13,0,0,1-.14-.12c0-.15.07-.2.23-.2h.27c.23,0,.37,0,.43-.25l1.07-4.23c.06-.25.08-.36-.17-.36h-.36c-.15,0-.19-.06-.19-.13s.12-.18.28-.18h2.82c1,0,1.7.49,1.7,1.22a2.2,2.2,0,0,1-2.41,1.78H82.19Zm.47-2.05h1.13a1.54,1.54,0,0,0,1.7-1.72c0-.57-.56-.7-1.09-.7H83c-.19,0-.2,0-.26.22Z"/><path class="cls-4" d="M87.65,354.75v-.11l-.32-.2c-.66-.4-1-.79-1-1.15a.79.79,0,0,1,.26-.61.93.93,0,0,1,.67-.24,1.55,1.55,0,0,1,.62.14,2,2,0,0,1,.58.39,2.11,2.11,0,0,1,.39.45.8.8,0,0,1,.16.32.22.22,0,0,1,0,.09.07.07,0,0,1-.06,0s-.16-.07-.32-.22-.34-.27-.49-.38a2.92,2.92,0,0,0-.58-.3,1.42,1.42,0,0,0-.5-.11.52.52,0,0,0-.35.1.35.35,0,0,0-.12.28c0,.19.22.4.67.65l.41.24a5.06,5.06,0,0,1,1.38,1.09,1.92,1.92,0,0,1,.38,1.16,1.76,1.76,0,0,1-.45,1.25,1.6,1.6,0,0,1-1.18.47,1.54,1.54,0,0,1-1.17-.47,1.59,1.59,0,0,1-.47-1.2,1.63,1.63,0,0,1,.4-1.13A1.7,1.7,0,0,1,87.65,354.75Zm-.7,1.67a2.25,2.25,0,0,0,.21,1.08.72.72,0,0,0,.64.37.69.69,0,0,0,.63-.37,2.1,2.1,0,0,0,.22-1.08,2.08,2.08,0,0,0-.22-1.08.67.67,0,0,0-.63-.37.72.72,0,0,0-.64.37A2.25,2.25,0,0,0,87,356.42Z"/><path class="cls-4" d="M127.06,293.55c0,.09-.07.12-.15.12a3.28,3.28,0,0,1-1.35-1.47,5.64,5.64,0,0,1-.58-2.5,5.35,5.35,0,0,1,.59-2.51c.4-.73,1.06-1.47,1.34-1.47.08,0,.15,0,.15.12s0,.06-.13.17a5.11,5.11,0,0,0-1.26,3.69,6.83,6.83,0,0,0,.31,2.09,3.8,3.8,0,0,0,1,1.61C127,293.47,127.06,293.5,127.06,293.55Z"/><path class="cls-4" d="M131,290.66a3.19,3.19,0,0,0-.07.54c0,.22.06.33.2.33s.6-.39.6-.89c0-.18.07-.24.22-.24s.11,0,.11.1a1.86,1.86,0,0,1-.45,1.1.9.9,0,0,1-.51.18.83.83,0,0,1-.83-.52,1.61,1.61,0,0,1-1.1.52,1.22,1.22,0,0,1-1.24-1.35A2.39,2.39,0,0,1,130,288a.94.94,0,0,1,.8.43.33.33,0,0,1,.37-.27.29.29,0,0,1,.31.3c0,.05-.06.31-.1.48Zm-.72,0,.4-1.67a.49.49,0,0,0,0-.12.68.68,0,0,0-.64-.6,1.18,1.18,0,0,0-1,.8,6.6,6.6,0,0,0-.41,1.78c0,.27.09.7.53.7a1.23,1.23,0,0,0,.94-.56A.57.57,0,0,0,130.23,290.64Z"/><path class="cls-4" d="M133.88,292.7a2.73,2.73,0,0,1-1,1c-.08,0-.15,0-.15-.13s0-.05.12-.16a5.06,5.06,0,0,0,1.27-3.69,5.3,5.3,0,0,0-1.24-3.65c-.09-.1-.15-.17-.15-.21s.07-.12.15-.12a3.4,3.4,0,0,1,1.35,1.47,5.53,5.53,0,0,1-.31,5.51Z"/><path class="cls-4" d="M141.88,287.89c0,.15,0,.16-.16.16s-.15,0-.15-.11,0-.16,0-.36a1.11,1.11,0,0,0-1.21-1.21,1.32,1.32,0,0,0-1.38,1.2c0,.72.84.78,1.21.87.59.13,1.39.28,1.39,1.35a2.17,2.17,0,0,1-2.16,2.07,2,2,0,0,1-1.45-.51c-.33.3-.5.51-.57.51s-.12,0-.12-.1c.16-.56.29-1.12.42-1.69,0-.15.06-.18.17-.18s.15,0,.15.11-.06.29-.06.44c0,.93,1,1.12,1.49,1.12a1.42,1.42,0,0,0,1.42-1.35.76.76,0,0,0-.58-.76c-1.05-.29-1.39-.3-1.68-.58a1.17,1.17,0,0,1-.35-.87,2.07,2.07,0,0,1,2.11-1.92,1.48,1.48,0,0,1,1.23.52c.41-.46.52-.52.57-.52a.11.11,0,0,1,.12.1.56.56,0,0,1,0,.15Z"/><path class="cls-4" d="M144.26,291.57a.89.89,0,0,1-.59.21.74.74,0,0,1-.8-.71,1.36,1.36,0,0,1,.12-.47l.48-1.27a3.43,3.43,0,0,0,.25-.86c0-.21-.09-.21-.17-.21-.27,0-.61.27-.82,1,0,.12-.06.14-.16.14s-.15,0-.15-.11.36-1.29,1.17-1.29a.74.74,0,0,1,.79.73,7.45,7.45,0,0,1-.47,1.41,4,4,0,0,0-.37,1.18c0,.18.07.21.18.21s.59-.22.8-1c0-.11.07-.12.16-.12s.15,0,.15.1A1.87,1.87,0,0,1,144.26,291.57Zm-.09-4.64a.35.35,0,0,1-.36-.35.54.54,0,0,1,.51-.5.35.35,0,0,1,.37.35A.53.53,0,0,1,144.17,286.93Z"/><path class="cls-4" d="M147.31,288.25a.81.81,0,0,0-.91.68c0,.21.15.33.39.4s1.42.1,1.42,1.09c0,.31-.26,1.36-1.73,1.36-.75,0-1.28-.28-1.28-.82a.55.55,0,0,1,.52-.59.33.33,0,0,1,.34.34.53.53,0,0,1-.46.52,1.13,1.13,0,0,0,.89.3c1.08,0,1.18-.71,1.18-.84,0-.34-.32-.46-.75-.56-.68-.14-1.06-.31-1.06-.89a1.3,1.3,0,0,1,.44-.91,1.54,1.54,0,0,1,1-.34c.66,0,1.07.3,1.07.74a.48.48,0,0,1-.43.51.29.29,0,0,1-.3-.3.44.44,0,0,1,.35-.42A.85.85,0,0,0,147.31,288.25Z"/><path class="cls-4" d="M149.93,290.8a2,2,0,0,0-.05.4c0,.28.1.31.22.31.35,0,.77-.31,1-1,.05-.13.06-.14.17-.14s.15,0,.15.1a2,2,0,0,1-.73,1.07,1.09,1.09,0,0,1-.67.21.79.79,0,0,1-.87-.78,1.64,1.64,0,0,1,.06-.4l.52-2.21h-.68c-.14,0-.25,0-.25-.14s.12-.18.27-.18h.74l.32-1.33a.37.37,0,0,1,.41-.3.29.29,0,0,1,.3.29,1.7,1.7,0,0,1,0,.28l-.26,1.06h.68c.13,0,.24,0,.24.12s-.1.2-.23.2h-.77Z"/><path class="cls-4" d="M152.84,289.85a2.49,2.49,0,0,0-.11.78c0,.47.18.9.75.9a2.16,2.16,0,0,0,1.65-.71c.07-.09.08-.1.12-.1s.16.11.16.16a1.54,1.54,0,0,1-.82.69,3.1,3.1,0,0,1-1.13.21,1.39,1.39,0,0,1-1.49-1.5,2.3,2.3,0,0,1,2.3-2.29c.57,0,1,.28,1,.77,0,.27-.13.7-.84.95a4.68,4.68,0,0,1-1.41.14Zm2-1.09c0-.38-.32-.51-.61-.51s-1,.06-1.36,1.35C153.68,289.6,154.88,289.6,154.88,288.76Z"/><path class="cls-4" d="M159.2,289.37a2.73,2.73,0,0,0,.09-.59c0-.27-.1-.53-.42-.53a1.71,1.71,0,0,0-1.35,1l-.44,1.84c-.09.38-.13.65-.48.65a.29.29,0,0,1-.32-.3.87.87,0,0,1,0-.19l.43-1.8a4.35,4.35,0,0,0,.18-.89c0-.18,0-.35-.22-.35s-.42.29-.57.9c0,.23-.06.24-.15.24s-.18,0-.18-.11.27-1.29.93-1.29a.87.87,0,0,1,.89.68,1.77,1.77,0,0,1,1.29-.68,1,1,0,0,1,1.06.76,1.86,1.86,0,0,1,1.35-.76c.51,0,1.07.19,1.07.94a6.77,6.77,0,0,1-.49,1.78,1.77,1.77,0,0,0-.15.59c0,.22.11.22.17.22.21,0,.59-.19.82-1,0-.11.07-.12.16-.12s.15,0,.15.1a.15.15,0,0,1,0,.06,2.1,2.1,0,0,1-.51,1,1,1,0,0,1-.64.25.74.74,0,0,1-.8-.71,1.19,1.19,0,0,1,.12-.47,7.53,7.53,0,0,0,.49-1.82c0-.27-.1-.53-.42-.53-1,0-1.36,1.12-1.37,1.16l-.45,1.92c-.09.36-.26.45-.46.45a.27.27,0,0,1-.29-.3,1.17,1.17,0,0,1,0-.24Z"/><path class="cls-4" d="M166.43,290.66a3.36,3.36,0,0,0-.08.54q0,.33.21.33c.25,0,.6-.39.6-.89,0-.18.07-.24.22-.24s.11,0,.11.1a1.82,1.82,0,0,1-.46,1.1.84.84,0,0,1-.5.18.83.83,0,0,1-.83-.52,1.61,1.61,0,0,1-1.1.52,1.22,1.22,0,0,1-1.24-1.35,2.39,2.39,0,0,1,2.11-2.44.94.94,0,0,1,.8.43.33.33,0,0,1,.37-.27.29.29,0,0,1,.31.3c0,.05-.06.31-.1.48Zm-.72,0,.4-1.67s0-.08,0-.12a.68.68,0,0,0-.65-.6,1.17,1.17,0,0,0-.95.8,6.6,6.6,0,0,0-.41,1.78c0,.27.09.7.53.7a1.24,1.24,0,0,0,.94-.56A.57.57,0,0,0,165.71,290.64Z"/><path class="cls-4" d="M171.05,291.78a1.36,1.36,0,0,1-1.49-1.42,2.43,2.43,0,0,1,2.35-2.37,1.37,1.37,0,0,1,1.49,1.43A2.42,2.42,0,0,1,171.05,291.78Zm1.14-1a4.59,4.59,0,0,0,.44-1.7.74.74,0,0,0-.73-.83,1.35,1.35,0,0,0-1.11.72,4.7,4.7,0,0,0-.47,1.72c0,.67.42.84.75.84A1.34,1.34,0,0,0,172.19,290.78Z"/><path class="cls-4" d="M176.57,288.25a1.1,1.1,0,0,0-.85.49,1.16,1.16,0,0,0-.2.32l-.54,2.26c-.1.4-.22.45-.46.45a.26.26,0,0,1-.28-.29.72.72,0,0,1,0-.23l.49-2a3,3,0,0,0,.11-.65c0-.18-.05-.34-.22-.34s-.4.2-.53.75l-.05.24c0,.16-.07.15-.17.15s-.15,0-.15-.11a3.15,3.15,0,0,1,.27-.83.75.75,0,0,1,.66-.46.86.86,0,0,1,.85.57,1.39,1.39,0,0,1,1.06-.57.67.67,0,0,1,.72.65.53.53,0,0,1-.5.57.34.34,0,0,1-.36-.34.53.53,0,0,1,.45-.51A.48.48,0,0,0,176.57,288.25Z"/><path class="cls-4" d="M179.35,291.57a.87.87,0,0,1-.59.21.75.75,0,0,1-.8-.71,1.63,1.63,0,0,1,.12-.47l.48-1.27a3.06,3.06,0,0,0,.25-.86c0-.21-.09-.21-.17-.21-.26,0-.6.27-.81,1,0,.12-.07.14-.16.14s-.15,0-.15-.11.36-1.29,1.16-1.29a.74.74,0,0,1,.79.73,6.77,6.77,0,0,1-.47,1.41,4.33,4.33,0,0,0-.36,1.18c0,.18.07.21.17.21s.59-.22.81-1c0-.11.06-.12.16-.12s.14,0,.14.1A1.87,1.87,0,0,1,179.35,291.57Zm-.08-4.64a.34.34,0,0,1-.36-.35.53.53,0,0,1,.51-.5.35.35,0,0,1,.37.35A.54.54,0,0,1,179.27,286.93Z"/><path class="cls-4" d="M183.41,292.24a1.81,1.81,0,0,1-1.89,1.16c-.72,0-1.18-.2-1.18-.68a.48.48,0,0,1,.47-.5.39.39,0,0,1,.38.38.41.41,0,0,1-.27.42,1.11,1.11,0,0,0,.59.13,1.3,1.3,0,0,0,1.17-.91c0-.11.16-.6.23-.89a1.46,1.46,0,0,1-.92.36,1.23,1.23,0,0,1-1.26-1.34,2.35,2.35,0,0,1,2.1-2.38.91.91,0,0,1,.8.42.42.42,0,0,1,.38-.26.29.29,0,0,1,.31.3.75.75,0,0,1,0,.11Zm.1-3.39,0-.08a.68.68,0,0,0-.65-.52,1.15,1.15,0,0,0-1,.79,6.6,6.6,0,0,0-.41,1.72c0,.44.21.7.55.7a1.22,1.22,0,0,0,.88-.47.43.43,0,0,0,.15-.29Z"/><path class="cls-4" d="M186.45,291.57a.89.89,0,0,1-.59.21.74.74,0,0,1-.8-.71,1.36,1.36,0,0,1,.12-.47l.48-1.27a3.06,3.06,0,0,0,.25-.86c0-.21-.09-.21-.17-.21-.27,0-.61.27-.82,1,0,.12-.06.14-.16.14s-.15,0-.15-.11S185,288,185.78,288a.74.74,0,0,1,.79.73,7.45,7.45,0,0,1-.47,1.41,4,4,0,0,0-.37,1.18c0,.18.07.21.18.21s.59-.22.8-1c0-.11.07-.12.16-.12s.15,0,.15.1A1.87,1.87,0,0,1,186.45,291.57Zm-.09-4.64a.35.35,0,0,1-.36-.35.54.54,0,0,1,.51-.5.35.35,0,0,1,.37.35A.53.53,0,0,1,186.36,286.93Z"/><path class="cls-4" d="M190.49,288c.5,0,1.07.19,1.07.94a6.77,6.77,0,0,1-.49,1.78,1.88,1.88,0,0,0-.15.61c0,.21.11.21.17.21.21,0,.59-.2.82-1,0-.11.07-.12.16-.12s.15,0,.15.1a.15.15,0,0,1,0,.06,2,2,0,0,1-.58,1,.9.9,0,0,1-.57.2.74.74,0,0,1-.8-.71,1.19,1.19,0,0,1,.12-.47,7.53,7.53,0,0,0,.49-1.82c0-.27-.1-.53-.42-.53a1.22,1.22,0,0,0-.84.34,2.35,2.35,0,0,0-.5.69l-.45,1.88c-.1.4-.13.62-.49.62s-.29-.15-.29-.32A3.13,3.13,0,0,1,188,291l.43-1.82a2.73,2.73,0,0,0,.12-.62c0-.18,0-.35-.22-.35s-.4.24-.57.9c0,.15,0,.24-.18.24s-.15,0-.15-.11a3.12,3.12,0,0,1,.27-.82.75.75,0,0,1,.66-.47.85.85,0,0,1,.88.68A1.79,1.79,0,0,1,190.49,288Z"/><path class="cls-4" d="M195.61,290.66a2.51,2.51,0,0,0-.08.54c0,.22.06.33.21.33s.6-.39.6-.89c0-.18.07-.24.21-.24s.12,0,.12.1a1.88,1.88,0,0,1-.46,1.1.87.87,0,0,1-.5.18.84.84,0,0,1-.84-.52,1.58,1.58,0,0,1-1.09.52,1.23,1.23,0,0,1-1.25-1.35,2.39,2.39,0,0,1,2.11-2.44.91.91,0,0,1,.8.43.34.34,0,0,1,.38-.27.29.29,0,0,1,.31.3c0,.05-.06.31-.1.48Zm-.73,0,.4-1.67a.5.5,0,0,0,0-.12.69.69,0,0,0-.65-.6,1.19,1.19,0,0,0-1,.8,6.6,6.6,0,0,0-.41,1.78c0,.27.09.7.53.7a1.23,1.23,0,0,0,.94-.56A.57.57,0,0,0,194.88,290.64Z"/><path class="cls-4" d="M197.82,290.83a1.35,1.35,0,0,0,0,.37c0,.24.06.33.2.33s.42-.29.57-.89c0-.16,0-.24.17-.24s.15,0,.15.1a3.13,3.13,0,0,1-.27.86.7.7,0,0,1-.65.42.81.81,0,0,1-.88-.78,1.45,1.45,0,0,1,0-.31l.94-3.92c0-.13.06-.21,0-.25s-.19-.08-.36-.08-.21,0-.21-.13.12-.2.21-.2c.57,0,.79-.08,1-.08s.17,0,.17.14a.62.62,0,0,1,0,.16Z"/><path class="cls-4" d="M361.87,293.55c0,.09-.07.12-.15.12a3.28,3.28,0,0,1-1.35-1.47,5.64,5.64,0,0,1-.58-2.5,5.35,5.35,0,0,1,.59-2.51c.4-.73,1.06-1.47,1.34-1.47.08,0,.15,0,.15.12s0,.06-.13.17a5.11,5.11,0,0,0-1.26,3.69,6.83,6.83,0,0,0,.31,2.09,3.8,3.8,0,0,0,1,1.61C361.85,293.47,361.87,293.5,361.87,293.55Z"/><path class="cls-4" d="M364.05,288.37A1.45,1.45,0,0,1,365,288a1.24,1.24,0,0,1,1.25,1.37,2.39,2.39,0,0,1-2.12,2.42,1.19,1.19,0,0,1-1.21-1.34,3,3,0,0,1,.11-.74l.64-2.65c0-.16.12-.47.12-.53s-.13-.08-.36-.08-.21,0-.21-.13.11-.2.21-.2c.45,0,.79-.08,1-.08a.13.13,0,0,1,.15.14l0,.16Zm1,2.39a6.31,6.31,0,0,0,.43-1.8c0-.3-.1-.71-.53-.71a1.36,1.36,0,0,0-1,.64l-.26,1.07a3.46,3.46,0,0,0-.14.8c0,.46.21.77.58.77S364.75,291.36,365,290.76Z"/><path class="cls-4" d="M368.28,292.7a2.88,2.88,0,0,1-1,1c-.08,0-.15,0-.15-.13s0-.05.12-.16a5.1,5.1,0,0,0,1.27-3.69,5.35,5.35,0,0,0-1.24-3.65q-.15-.15-.15-.21c0-.08.07-.12.15-.12a3.35,3.35,0,0,1,1.34,1.47,5.44,5.44,0,0,1,.59,2.51A5.51,5.51,0,0,1,368.28,292.7Z"/><path class="cls-4" d="M376.28,287.89c0,.15,0,.16-.16.16s-.16,0-.16-.11a2.92,2.92,0,0,0,0-.36,1.12,1.12,0,0,0-1.22-1.21,1.33,1.33,0,0,0-1.38,1.2c0,.72.85.78,1.22.87.59.13,1.39.28,1.39,1.35a2.17,2.17,0,0,1-2.16,2.07,2.06,2.06,0,0,1-1.46-.51c-.32.3-.49.51-.57.51s-.12,0-.12-.1c.16-.56.29-1.12.42-1.69,0-.15.07-.18.18-.18s.14,0,.14.11-.06.29-.06.44c0,.93,1,1.12,1.49,1.12a1.42,1.42,0,0,0,1.42-1.35.76.76,0,0,0-.57-.76c-1.06-.29-1.39-.3-1.69-.58a1.21,1.21,0,0,1-.34-.87,2.07,2.07,0,0,1,2.1-1.92,1.47,1.47,0,0,1,1.23.52c.42-.46.52-.52.57-.52a.11.11,0,0,1,.12.1,1.25,1.25,0,0,1,0,.15Z"/><path class="cls-4" d="M378.65,291.57a.87.87,0,0,1-.59.21.74.74,0,0,1-.8-.71,1.63,1.63,0,0,1,.12-.47l.48-1.27a3.06,3.06,0,0,0,.25-.86c0-.21-.09-.21-.17-.21-.26,0-.61.27-.81,1,0,.12-.07.14-.16.14s-.16,0-.16-.11S377.17,288,378,288a.74.74,0,0,1,.79.73,6.77,6.77,0,0,1-.47,1.41,4,4,0,0,0-.37,1.18c0,.18.08.21.18.21s.59-.22.81-1c0-.11.06-.12.16-.12s.14,0,.14.1A1.87,1.87,0,0,1,378.65,291.57Zm-.08-4.64a.34.34,0,0,1-.36-.35.53.53,0,0,1,.51-.5.35.35,0,0,1,.37.35A.54.54,0,0,1,378.57,286.93Z"/><path class="cls-4" d="M381.7,288.25a.8.8,0,0,0-.9.68c0,.21.14.33.38.4s1.42.1,1.42,1.09c0,.31-.25,1.36-1.72,1.36-.75,0-1.28-.28-1.28-.82a.54.54,0,0,1,.51-.59.33.33,0,0,1,.34.34.53.53,0,0,1-.45.52,1.12,1.12,0,0,0,.89.3c1.08,0,1.17-.71,1.17-.84,0-.34-.31-.46-.75-.56-.68-.14-1.06-.31-1.06-.89a1.34,1.34,0,0,1,.44-.91,1.57,1.57,0,0,1,1-.34c.65,0,1.06.3,1.06.74a.47.47,0,0,1-.43.51.29.29,0,0,1-.29-.3.42.42,0,0,1,.35-.42A.87.87,0,0,0,381.7,288.25Z"/><path class="cls-4" d="M384.33,290.8a1.45,1.45,0,0,0-.05.4c0,.28.09.31.21.31.36,0,.77-.31,1-1,.06-.13.07-.14.18-.14s.14,0,.14.1a2.07,2.07,0,0,1-.72,1.07,1.14,1.14,0,0,1-.68.21.8.8,0,0,1-.87-.78,1.82,1.82,0,0,1,.07-.4l.52-2.21h-.68c-.15,0-.26,0-.26-.14s.12-.18.27-.18h.75l.32-1.33a.35.35,0,0,1,.4-.3.29.29,0,0,1,.31.29,1.86,1.86,0,0,1,0,.28l-.26,1.06h.68c.14,0,.24,0,.24.12s-.09.2-.22.2h-.78Z"/><path class="cls-4" d="M387.23,289.85a2.54,2.54,0,0,0-.1.78c0,.47.17.9.75.9a2.12,2.12,0,0,0,1.64-.71c.08-.09.08-.1.12-.1a.23.23,0,0,1,.17.16,1.58,1.58,0,0,1-.83.69,3,3,0,0,1-1.13.21,1.39,1.39,0,0,1-1.48-1.5,2.3,2.3,0,0,1,2.3-2.29c.57,0,1,.28,1,.77,0,.27-.14.7-.84.95a4.75,4.75,0,0,1-1.42.14Zm2-1.09c0-.38-.33-.51-.61-.51s-1,.06-1.37,1.35C388.07,289.6,389.28,289.6,389.28,288.76Z"/><path class="cls-4" d="M393.6,289.37a3.33,3.33,0,0,0,.08-.59c0-.27-.1-.53-.42-.53a1.71,1.71,0,0,0-1.35,1l-.44,1.84c-.09.38-.13.65-.48.65a.29.29,0,0,1-.32-.3.87.87,0,0,1,0-.19l.43-1.8a4.35,4.35,0,0,0,.18-.89c0-.18,0-.35-.22-.35s-.42.29-.56.9c-.06.23-.07.24-.16.24s-.18,0-.18-.11.27-1.29.94-1.29a.86.86,0,0,1,.88.68,1.8,1.8,0,0,1,1.29-.68,1,1,0,0,1,1.06.76,1.86,1.86,0,0,1,1.36-.76c.5,0,1.07.19,1.07.94a7.18,7.18,0,0,1-.49,1.78,1.77,1.77,0,0,0-.15.59c0,.22.11.22.16.22.21,0,.6-.19.83-1,0-.11.06-.12.16-.12s.14,0,.14.1a.15.15,0,0,1,0,.06,2,2,0,0,1-.51,1,1,1,0,0,1-.64.25.74.74,0,0,1-.8-.71,1.39,1.39,0,0,1,.12-.47,7.53,7.53,0,0,0,.49-1.82c0-.27-.09-.53-.41-.53-1,0-1.36,1.12-1.37,1.16l-.46,1.92c-.08.36-.25.45-.45.45a.28.28,0,0,1-.3-.3s0-.1,0-.24Z"/><path class="cls-4" d="M400.83,290.66a2.51,2.51,0,0,0-.08.54c0,.22.06.33.21.33s.6-.39.6-.89c0-.18.07-.24.21-.24s.11,0,.11.1a1.86,1.86,0,0,1-.45,1.1.87.87,0,0,1-.51.18.83.83,0,0,1-.83-.52,1.58,1.58,0,0,1-1.09.52,1.23,1.23,0,0,1-1.25-1.35,2.39,2.39,0,0,1,2.11-2.44.93.93,0,0,1,.8.43.34.34,0,0,1,.38-.27.29.29,0,0,1,.31.3c0,.05-.07.31-.11.48Zm-.73,0,.4-1.67a.5.5,0,0,0,0-.12.69.69,0,0,0-.65-.6,1.19,1.19,0,0,0-1,.8,6.6,6.6,0,0,0-.41,1.78c0,.27.09.7.53.7A1.23,1.23,0,0,0,400,291,.57.57,0,0,0,400.1,290.64Z"/><path class="cls-4" d="M406.26,288.25c-1.09,0-1.58,1.63-1.58,2.44,0,.55.28.83.77.83a2.15,2.15,0,0,0,1.65-.7c.07-.09.08-.1.12-.1s.16.11.16.16a1.43,1.43,0,0,1-.64.59,2.62,2.62,0,0,1-1.31.31,1.37,1.37,0,0,1-1.52-1.42,2.43,2.43,0,0,1,2.34-2.37c.63,0,1.05.31,1.05.75a.55.55,0,0,1-.51.59.34.34,0,0,1-.35-.34.55.55,0,0,1,.44-.52A.84.84,0,0,0,406.26,288.25Z"/><path class="cls-4" d="M409.21,291.78a1.36,1.36,0,0,1-1.49-1.42,2.43,2.43,0,0,1,2.35-2.37,1.37,1.37,0,0,1,1.49,1.43A2.42,2.42,0,0,1,409.21,291.78Zm1.14-1a4.63,4.63,0,0,0,.45-1.7.75.75,0,0,0-.74-.83A1.37,1.37,0,0,0,409,289a4.66,4.66,0,0,0-.46,1.72c0,.67.41.84.74.84A1.32,1.32,0,0,0,410.35,290.78Z"/><path class="cls-4" d="M415,288c.5,0,1.07.19,1.07.94a6.77,6.77,0,0,1-.49,1.78,1.88,1.88,0,0,0-.15.61c0,.21.11.21.17.21.21,0,.59-.2.82-1,0-.11.07-.12.16-.12s.15,0,.15.1a.15.15,0,0,1,0,.06,2,2,0,0,1-.58,1,.9.9,0,0,1-.57.2.74.74,0,0,1-.8-.71,1.19,1.19,0,0,1,.12-.47,7.53,7.53,0,0,0,.49-1.82c0-.27-.1-.53-.42-.53a1.22,1.22,0,0,0-.84.34,2.35,2.35,0,0,0-.5.69l-.45,1.88c-.1.4-.13.62-.49.62s-.29-.15-.29-.32a3.13,3.13,0,0,1,.08-.42l.44-1.82a3.26,3.26,0,0,0,.11-.62c0-.18,0-.35-.22-.35s-.4.24-.57.9c0,.15,0,.24-.18.24s-.15,0-.15-.11a3.12,3.12,0,0,1,.27-.82.75.75,0,0,1,.66-.47.85.85,0,0,1,.88.68A1.79,1.79,0,0,1,415,288Z"/><path class="cls-4" d="M421.1,288.25c-1.09,0-1.58,1.63-1.58,2.44,0,.55.28.83.77.83a2.15,2.15,0,0,0,1.65-.7c.07-.09.08-.1.12-.1s.16.11.16.16a1.43,1.43,0,0,1-.64.59,2.62,2.62,0,0,1-1.31.31,1.37,1.37,0,0,1-1.52-1.42,2.43,2.43,0,0,1,2.34-2.37c.63,0,1.05.31,1.05.75a.55.55,0,0,1-.51.59.34.34,0,0,1-.35-.34.55.55,0,0,1,.44-.52A.84.84,0,0,0,421.1,288.25Z"/><path class="cls-4" d="M425.67,290.66a2.51,2.51,0,0,0-.08.54c0,.22.06.33.21.33s.6-.39.6-.89c0-.18.07-.24.21-.24s.11,0,.11.1a1.86,1.86,0,0,1-.45,1.1.87.87,0,0,1-.51.18.83.83,0,0,1-.83-.52,1.58,1.58,0,0,1-1.09.52,1.23,1.23,0,0,1-1.25-1.35A2.39,2.39,0,0,1,424.7,288a.93.93,0,0,1,.8.43.34.34,0,0,1,.38-.27.29.29,0,0,1,.31.3c0,.05-.07.31-.11.48Zm-.73,0,.4-1.67a.5.5,0,0,0,0-.12.69.69,0,0,0-.65-.6,1.19,1.19,0,0,0-1,.8,6.6,6.6,0,0,0-.41,1.78c0,.27.09.7.53.7a1.23,1.23,0,0,0,.94-.56A.57.57,0,0,0,424.94,290.64Z"/><path class="cls-4" d="M429.79,288.25a1.12,1.12,0,0,0-.86.49,1.07,1.07,0,0,0-.19.32l-.54,2.26c-.1.4-.22.45-.46.45a.27.27,0,0,1-.29-.29.79.79,0,0,1,0-.23l.48-2a2.59,2.59,0,0,0,.12-.65c0-.18,0-.34-.22-.34s-.4.2-.53.75l0,.24c0,.16-.07.15-.17.15s-.15,0-.15-.11a3.15,3.15,0,0,1,.27-.83.75.75,0,0,1,.66-.46.87.87,0,0,1,.85.57,1.37,1.37,0,0,1,1.05-.57.68.68,0,0,1,.73.65.53.53,0,0,1-.5.57.34.34,0,0,1-.36-.34.53.53,0,0,1,.45-.51A.5.5,0,0,0,429.79,288.25Z"/><path class="cls-4" d="M433.87,292.24a1.82,1.82,0,0,1-1.9,1.16c-.71,0-1.17-.2-1.17-.68a.48.48,0,0,1,.47-.5.39.39,0,0,1,.38.38.42.42,0,0,1-.27.42,1.11,1.11,0,0,0,.59.13,1.31,1.31,0,0,0,1.17-.91,8.2,8.2,0,0,0,.22-.89,1.44,1.44,0,0,1-.92.36,1.23,1.23,0,0,1-1.25-1.34,2.35,2.35,0,0,1,2.1-2.38.91.91,0,0,1,.8.42.4.4,0,0,1,.38-.26.29.29,0,0,1,.31.3.39.39,0,0,1,0,.11Zm.09-3.39v-.08a.68.68,0,0,0-.65-.52,1.15,1.15,0,0,0-.95.79,6.22,6.22,0,0,0-.41,1.72c0,.44.21.7.54.7a1.22,1.22,0,0,0,.89-.47.54.54,0,0,0,.15-.29Z"/><path class="cls-4" d="M438.25,290.66a2.51,2.51,0,0,0-.08.54q0,.33.21.33c.25,0,.6-.39.6-.89,0-.18.07-.24.22-.24s.11,0,.11.1a1.88,1.88,0,0,1-.46,1.1.87.87,0,0,1-.5.18.82.82,0,0,1-.83-.52,1.64,1.64,0,0,1-1.1.52,1.23,1.23,0,0,1-1.25-1.35,2.4,2.4,0,0,1,2.11-2.44.91.91,0,0,1,.8.43.35.35,0,0,1,.38-.27.29.29,0,0,1,.31.3c0,.05-.06.31-.1.48Zm-.73,0,.4-1.67a.5.5,0,0,0,0-.12.68.68,0,0,0-.65-.6,1.19,1.19,0,0,0-1,.8,6.59,6.59,0,0,0-.4,1.78c0,.27.08.7.52.7a1.24,1.24,0,0,0,.95-.56A.63.63,0,0,0,437.52,290.64Z"/><path class="cls-4" d="M443.36,291.78c-.72,0-1.23-.24-1.23-1.07a5.32,5.32,0,0,1,.48-1.74,1.59,1.59,0,0,0,.11-.5c0-.17-.05-.22-.16-.22s-.61.26-.82,1c0,.12-.06.14-.16.14s-.15,0-.15-.11a2,2,0,0,1,.54-1.06,1,1,0,0,1,.63-.23.76.76,0,0,1,.8.73,1.43,1.43,0,0,1-.13.48,5.15,5.15,0,0,0-.44,1.64.59.59,0,0,0,.59.69c.94,0,1.42-1.84,1.42-2.11a.7.7,0,0,0-.35-.61.34.34,0,0,1-.18-.3.58.58,0,0,1,.51-.53s.46,0,.46.69S444.72,291.78,443.36,291.78Z"/><path class="cls-4" d="M447.61,291.57a.89.89,0,0,1-.59.21.74.74,0,0,1-.8-.71,1.36,1.36,0,0,1,.12-.47l.48-1.27a3.06,3.06,0,0,0,.25-.86c0-.21-.09-.21-.17-.21-.26,0-.61.27-.81,1,0,.12-.07.14-.16.14s-.16,0-.16-.11.36-1.29,1.17-1.29a.74.74,0,0,1,.79.73,7.45,7.45,0,0,1-.47,1.41,4,4,0,0,0-.37,1.18c0,.18.07.21.18.21s.59-.22.81-1c0-.11.06-.12.16-.12s.14,0,.14.1A1.87,1.87,0,0,1,447.61,291.57Zm-.09-4.64a.35.35,0,0,1-.36-.35.54.54,0,0,1,.52-.5.35.35,0,0,1,.36.35A.53.53,0,0,1,447.52,286.93Z"/><path class="cls-4" d="M451.4,288.25a1.1,1.1,0,0,0-.85.49.88.88,0,0,0-.19.32l-.55,2.26c-.09.4-.21.45-.45.45a.27.27,0,0,1-.29-.29,1.2,1.2,0,0,1,0-.23l.49-2a3,3,0,0,0,.11-.65c0-.18-.05-.34-.22-.34s-.39.2-.52.75l-.06.24c0,.16-.06.15-.17.15s-.15,0-.15-.11a3.15,3.15,0,0,1,.27-.83.75.75,0,0,1,.67-.46.86.86,0,0,1,.84.57,1.39,1.39,0,0,1,1.06-.57.68.68,0,0,1,.73.65.53.53,0,0,1-.51.57.34.34,0,0,1-.36-.34.53.53,0,0,1,.45-.51A.46.46,0,0,0,451.4,288.25Z"/><path class="cls-4" d="M453.65,290.8a2,2,0,0,0,0,.4c0,.28.1.31.22.31.35,0,.77-.31,1-1,.06-.13.06-.14.18-.14s.14,0,.14.1a2,2,0,0,1-.73,1.07,1.09,1.09,0,0,1-.67.21.79.79,0,0,1-.87-.78,2.38,2.38,0,0,1,.06-.4l.52-2.21h-.68c-.14,0-.25,0-.25-.14s.12-.18.27-.18h.74l.32-1.33a.37.37,0,0,1,.41-.3.29.29,0,0,1,.3.29,1.7,1.7,0,0,1,0,.28l-.26,1.06H455c.14,0,.24,0,.24.12a.19.19,0,0,1-.22.2h-.78Z"/><path class="cls-4" d="M459.07,290.7a2.18,2.18,0,0,0-.08.5c0,.21.05.33.2.33s.41-.25.57-.89c.06-.22.09-.24.21-.24s.12,0,.12.1a2.19,2.19,0,0,1-.49,1.13.66.66,0,0,1-.45.15.86.86,0,0,1-.81-.5,1.33,1.33,0,0,1-1,.5,1,1,0,0,1-1.14-1,5.29,5.29,0,0,1,.48-1.76,1.46,1.46,0,0,0,.12-.51c0-.16-.05-.22-.16-.22s-.61.25-.83,1c0,.12-.06.14-.16.14s-.15,0-.15-.11a2.16,2.16,0,0,1,.55-1,1,1,0,0,1,.62-.24.76.76,0,0,1,.8.73,1.28,1.28,0,0,1-.11.44,5.56,5.56,0,0,0-.46,1.73c0,.18,0,.64.49.64a1.16,1.16,0,0,0,.89-.61l.6-2.5c.08-.33.27-.34.41-.34a.28.28,0,0,1,.31.29,1.68,1.68,0,0,1-.07.39Z"/><path class="cls-4" d="M463.48,290.66a2.51,2.51,0,0,0-.08.54c0,.22.06.33.2.33s.6-.39.6-.89c0-.18.07-.24.22-.24s.11,0,.11.1a1.86,1.86,0,0,1-.45,1.1.87.87,0,0,1-.51.18.83.83,0,0,1-.83-.52,1.61,1.61,0,0,1-1.1.52,1.22,1.22,0,0,1-1.24-1.35,2.39,2.39,0,0,1,2.11-2.44.93.93,0,0,1,.8.43.34.34,0,0,1,.37-.27.3.3,0,0,1,.32.3c0,.05-.07.31-.11.48Zm-.73,0,.4-1.67a.49.49,0,0,0,0-.12.68.68,0,0,0-.64-.6,1.18,1.18,0,0,0-1,.8,6.6,6.6,0,0,0-.41,1.78c0,.27.09.7.53.7a1.23,1.23,0,0,0,.94-.56A.57.57,0,0,0,462.75,290.64Z"/><path class="cls-4" d="M465.68,290.83a1.35,1.35,0,0,0,0,.37c0,.24.06.33.2.33s.43-.29.57-.89c0-.16,0-.24.18-.24s.15,0,.15.1a3.13,3.13,0,0,1-.27.86.71.71,0,0,1-.66.42.81.81,0,0,1-.88-.78,1.45,1.45,0,0,1,0-.31l.95-3.92a.78.78,0,0,0,0-.25c0-.07-.2-.08-.36-.08s-.21,0-.21-.13.12-.2.21-.2c.56,0,.78-.08,1-.08.08,0,.17,0,.17.14a.62.62,0,0,1,0,.16Z"/><path class="cls-4" d="M99.28,537c0,.1-.07.13-.15.13a3.33,3.33,0,0,1-1.34-1.48,5.51,5.51,0,0,1-.58-2.5,5.23,5.23,0,0,1,.59-2.51c.4-.72,1-1.47,1.33-1.47.08,0,.15,0,.15.12s0,.06-.12.18a5.09,5.09,0,0,0-1.27,3.68,6.8,6.8,0,0,0,.32,2.09,3.72,3.72,0,0,0,1,1.62C99.27,536.88,99.28,536.9,99.28,537Z"/><path class="cls-4" d="M102.38,531.65c-1.09,0-1.58,1.64-1.58,2.45,0,.55.28.82.76.82a2.17,2.17,0,0,0,1.66-.7c.07-.08.08-.1.12-.1a.23.23,0,0,1,.16.17,1.5,1.5,0,0,1-.64.58,2.52,2.52,0,0,1-1.31.31,1.36,1.36,0,0,1-1.52-1.41,2.44,2.44,0,0,1,2.34-2.38c.63,0,1,.32,1,.75a.56.56,0,0,1-.51.6.34.34,0,0,1-.35-.35.55.55,0,0,1,.44-.52A.89.89,0,0,0,102.38,531.65Z"/><path class="cls-4" d="M105.44,536.1a2.86,2.86,0,0,1-1,1c-.08,0-.16,0-.16-.13s0-.06.12-.17a5.06,5.06,0,0,0,1.27-3.69,5.38,5.38,0,0,0-1.23-3.65c-.1-.1-.16-.17-.16-.21s.08-.12.16-.12a3.35,3.35,0,0,1,1.34,1.47,5.59,5.59,0,0,1,.59,2.51A5.51,5.51,0,0,1,105.44,536.1Z"/><path class="cls-4" d="M115.19,534.43c-.07.26,0,.37.24.37h.27c.15,0,.21.05.21.13s0,.18-.19.18c-.61,0-.69,0-1.08,0s-.53,0-1.07,0c-.11,0-.14-.05-.14-.12s0-.19.17-.19h.25c.23,0,.44,0,.5-.26l1.16-4.59-3.36,5c-.06.08-.11.17-.24.17s-.15-.09-.18-.22l-.84-4.86-1.07,4.28c-.09.38.07.49.47.49.09,0,.2,0,.2.13s-.12.18-.17.18c-.52,0-.54,0-.87,0s-.41,0-.84,0c-.12,0-.14-.06-.14-.14s.12-.17.21-.17h.13c.32,0,.56-.07.64-.42l1-4.07c0-.23.12-.36-.14-.36h-.43c-.09,0-.14-.05-.14-.12s.12-.19.27-.19h1.29c.22,0,.26,0,.3.22l.76,4.36,3-4.4c.12-.17.14-.18.37-.18h1.19c.16,0,.26,0,.26.12s-.1.19-.3.19c-.45,0-.57,0-.62.2Z"/><path class="cls-4" d="M118.61,535.18a1.36,1.36,0,0,1-1.49-1.41,2.43,2.43,0,0,1,2.35-2.38,1.37,1.37,0,0,1,1.49,1.43A2.42,2.42,0,0,1,118.61,535.18Zm1.14-1a4.63,4.63,0,0,0,.45-1.69.76.76,0,0,0-.74-.84,1.34,1.34,0,0,0-1.11.73,4.61,4.61,0,0,0-.46,1.72c0,.66.41.84.74.84A1.34,1.34,0,0,0,119.75,534.18Z"/><path class="cls-4" d="M124.66,532.78a2.8,2.8,0,0,0,.09-.6c0-.27-.11-.53-.43-.53a1.75,1.75,0,0,0-1.35,1l-.44,1.85c-.09.37-.13.64-.48.64a.3.3,0,0,1-.32-.29.57.57,0,0,1,0-.19l.43-1.81a4.83,4.83,0,0,0,.17-.89c0-.17,0-.35-.21-.35s-.43.3-.57.9c-.06.23-.06.24-.15.24s-.19,0-.19-.11.28-1.29.94-1.29a.87.87,0,0,1,.89.68,1.8,1.8,0,0,1,1.28-.68,1,1,0,0,1,1.07.76,1.89,1.89,0,0,1,1.35-.76c.5,0,1.07.19,1.07,1a6.81,6.81,0,0,1-.49,1.77,1.77,1.77,0,0,0-.15.59c0,.22.11.22.17.22.21,0,.59-.18.82-1,0-.1.07-.12.16-.12s.15,0,.15.1a.13.13,0,0,1,0,.06,2.17,2.17,0,0,1-.51,1,1,1,0,0,1-.64.24.73.73,0,0,1-.8-.71,1.15,1.15,0,0,1,.12-.46,7.75,7.75,0,0,0,.48-1.83c0-.27-.09-.53-.41-.53-1,0-1.36,1.12-1.37,1.16l-.45,1.93c-.09.36-.26.44-.46.44a.27.27,0,0,1-.3-.29,2.45,2.45,0,0,1,0-.25Z"/><path class="cls-4" d="M129.73,533.26a2.82,2.82,0,0,0-.1.77c0,.47.18.91.75.91a2.17,2.17,0,0,0,1.65-.72c.07-.08.08-.1.12-.1a.23.23,0,0,1,.16.17,1.58,1.58,0,0,1-.83.69,3,3,0,0,1-1.12.2,1.39,1.39,0,0,1-1.49-1.5,2.3,2.3,0,0,1,2.3-2.29c.57,0,1,.28,1,.77,0,.27-.13.7-.84,1a4.7,4.7,0,0,1-1.41.15Zm2.05-1.1a.54.54,0,0,0-.61-.51c-.25,0-1,.06-1.36,1.35C130.57,533,131.78,533,131.78,532.16Z"/><path class="cls-4" d="M135.82,531.39c.5,0,1.07.19,1.07,1a6.81,6.81,0,0,1-.49,1.77,1.88,1.88,0,0,0-.15.61c0,.22.11.22.17.22.21,0,.59-.2.82-1,0-.1.07-.12.16-.12s.15,0,.15.1a.13.13,0,0,1,0,.06,2,2,0,0,1-.58,1,.9.9,0,0,1-.57.2.73.73,0,0,1-.8-.71,1.15,1.15,0,0,1,.12-.46,7.75,7.75,0,0,0,.49-1.83c0-.27-.1-.53-.42-.53a1.27,1.27,0,0,0-.84.34,2.35,2.35,0,0,0-.5.69l-.45,1.88c-.1.41-.13.62-.49.62s-.29-.15-.29-.32a3.06,3.06,0,0,1,.08-.41l.43-1.83a2.73,2.73,0,0,0,.12-.62c0-.17,0-.34-.22-.35s-.4.25-.57.9c0,.16,0,.24-.18.24s-.15,0-.15-.11a3.09,3.09,0,0,1,.27-.81.75.75,0,0,1,.66-.48.85.85,0,0,1,.88.68A1.82,1.82,0,0,1,135.82,531.39Z"/><path class="cls-4" d="M139.06,534.21a1.77,1.77,0,0,0-.05.39c0,.29.1.31.22.31.35,0,.77-.3,1-1,0-.12.06-.14.17-.14s.15,0,.15.1a2.1,2.1,0,0,1-.73,1.08,1.15,1.15,0,0,1-.67.2.79.79,0,0,1-.87-.78,1.58,1.58,0,0,1,.06-.39l.52-2.22h-.68c-.14,0-.25,0-.25-.13s.12-.19.27-.19H139l.32-1.32a.38.38,0,0,1,.41-.31.29.29,0,0,1,.3.3,1.28,1.28,0,0,1,0,.28l-.25,1.05h.68c.13,0,.24,0,.24.12s-.1.2-.23.2h-.77Z"/><path class="cls-4" d="M142.51,535.18a1.36,1.36,0,0,1-1.5-1.41,2.44,2.44,0,0,1,2.35-2.38,1.38,1.38,0,0,1,1.5,1.43A2.43,2.43,0,0,1,142.51,535.18Zm1.13-1a4.63,4.63,0,0,0,.45-1.69.75.75,0,0,0-.73-.84,1.37,1.37,0,0,0-1.12.73,4.61,4.61,0,0,0-.46,1.72.73.73,0,0,0,.74.84A1.34,1.34,0,0,0,143.64,534.18Z"/><path class="cls-4" d="M148.85,534.45a6.91,6.91,0,0,1-.44,1.52,1.28,1.28,0,0,1-1.06.83c-.38,0-.82-.21-.82-.63a.46.46,0,0,1,.46-.51.37.37,0,0,1,.37.36.42.42,0,0,1-.35.45.57.57,0,0,0,.35.08c.43,0,.63-.64.69-1.11.09-.66.27-1.78.33-2.17l.26-1.47H148c-.13,0-.25,0-.25-.13s.12-.19.27-.19h.69a5.37,5.37,0,0,1,.4-1.6,1.2,1.2,0,0,1,1-.61.76.76,0,0,1,.84.66c0,.32-.17.49-.44.49a.36.36,0,0,1-.36-.36.41.41,0,0,1,.31-.45.65.65,0,0,0-.35-.1c-.49,0-.48.51-.6,1.14l-.14.83h.82c.14,0,.24,0,.24.12s-.11.2-.26.2h-.86C149.16,532.77,149.05,533.41,148.85,534.45Z"/><path class="cls-4" d="M151.8,534.23a1.4,1.4,0,0,0,0,.37c0,.24.05.34.2.34s.42-.3.56-.9c0-.15,0-.24.18-.24s.15,0,.15.1a3.16,3.16,0,0,1-.27.87.7.7,0,0,1-.66.41.8.8,0,0,1-.87-.78.91.91,0,0,1,0-.3l.94-3.93a.78.78,0,0,0,0-.25c0-.07-.19-.08-.36-.08s-.21,0-.21-.13.12-.2.21-.2c.57,0,.78-.08,1-.08.08,0,.17,0,.17.14a.65.65,0,0,1,0,.17Z"/><path class="cls-4" d="M154.36,533.26a2.82,2.82,0,0,0-.1.77c0,.47.18.91.75.91a2.17,2.17,0,0,0,1.65-.72c.07-.08.08-.1.12-.1a.23.23,0,0,1,.16.17,1.59,1.59,0,0,1-.82.69,3.07,3.07,0,0,1-1.13.2,1.39,1.39,0,0,1-1.49-1.5,2.3,2.3,0,0,1,2.3-2.29c.57,0,1,.28,1,.77,0,.27-.13.7-.84,1a4.66,4.66,0,0,1-1.41.15Zm2-1.1a.54.54,0,0,0-.61-.51c-.24,0-1,.06-1.36,1.35C155.2,533,156.41,533,156.41,532.16Z"/><path class="cls-4" d="M159.72,531.65c-1.1,0-1.59,1.64-1.59,2.45,0,.55.28.82.77.82a2.17,2.17,0,0,0,1.66-.7c.07-.08.08-.1.12-.1a.23.23,0,0,1,.16.17,1.5,1.5,0,0,1-.64.58,2.55,2.55,0,0,1-1.32.31,1.36,1.36,0,0,1-1.52-1.41,2.44,2.44,0,0,1,2.35-2.38c.63,0,1,.32,1,.75a.57.57,0,0,1-.52.6.35.35,0,0,1-.35-.35.56.56,0,0,1,.45-.52A.9.9,0,0,0,159.72,531.65Z"/><path class="cls-4" d="M162.4,534.21a1.87,1.87,0,0,0,0,.39c0,.29.09.31.21.31.35,0,.77-.3,1-1,.06-.12.07-.14.18-.14s.14,0,.14.1a2.1,2.1,0,0,1-.73,1.08,1.15,1.15,0,0,1-.67.2.8.8,0,0,1-.87-.78,2.31,2.31,0,0,1,.06-.39l.52-2.22h-.68c-.14,0-.25,0-.25-.13s.12-.19.27-.19h.74l.32-1.32a.38.38,0,0,1,.41-.31.3.3,0,0,1,.31.3,2.43,2.43,0,0,1-.05.28l-.26,1.05h.68c.14,0,.24,0,.24.12s-.09.2-.22.2H163Z"/><path class="cls-4" d="M165.85,535.18a1.36,1.36,0,0,1-1.49-1.41,2.43,2.43,0,0,1,2.35-2.38,1.37,1.37,0,0,1,1.49,1.43A2.42,2.42,0,0,1,165.85,535.18Zm1.14-1a4.59,4.59,0,0,0,.44-1.69.75.75,0,0,0-.73-.84,1.34,1.34,0,0,0-1.11.73,4.65,4.65,0,0,0-.47,1.72.73.73,0,0,0,.75.84A1.34,1.34,0,0,0,167,534.18Z"/><path class="cls-4" d="M171.37,531.65a1.13,1.13,0,0,0-.85.49,1.16,1.16,0,0,0-.2.32l-.54,2.27c-.1.4-.22.45-.46.45a.27.27,0,0,1-.28-.29.69.69,0,0,1,0-.23l.49-2a3,3,0,0,0,.11-.65c0-.18,0-.34-.22-.34s-.4.2-.53.75l0,.24c0,.16-.06.15-.17.15s-.15,0-.15-.11a3.15,3.15,0,0,1,.27-.83.75.75,0,0,1,.66-.46.88.88,0,0,1,.85.57,1.42,1.42,0,0,1,1.06-.57.67.67,0,0,1,.72.65.54.54,0,0,1-.5.58.34.34,0,0,1-.36-.35.53.53,0,0,1,.45-.51A.48.48,0,0,0,171.37,531.65Z"/><path class="cls-4" d="M176.5,531.65c-1.1,0-1.58,1.64-1.58,2.45,0,.55.28.82.76.82a2.17,2.17,0,0,0,1.66-.7c.07-.08.08-.1.12-.1a.23.23,0,0,1,.16.17,1.5,1.5,0,0,1-.64.58,2.52,2.52,0,0,1-1.31.31,1.36,1.36,0,0,1-1.52-1.41,2.44,2.44,0,0,1,2.34-2.38c.63,0,1,.32,1,.75a.57.57,0,0,1-.51.6.34.34,0,0,1-.35-.35.55.55,0,0,1,.44-.52A.89.89,0,0,0,176.5,531.65Z"/><path class="cls-4" d="M181.07,534.06a2.51,2.51,0,0,0-.08.54c0,.22.06.34.2.34s.6-.4.6-.9c0-.18.08-.23.22-.23s.11,0,.11.09a1.83,1.83,0,0,1-.45,1.1.87.87,0,0,1-.51.18.83.83,0,0,1-.83-.52,1.57,1.57,0,0,1-1.09.52,1.22,1.22,0,0,1-1.25-1.35,2.39,2.39,0,0,1,2.11-2.44.91.91,0,0,1,.8.44.35.35,0,0,1,.37-.28.3.3,0,0,1,.32.3c0,.06-.07.31-.11.48Zm-.73,0,.4-1.67a.59.59,0,0,0,0-.13.7.7,0,0,0-.65-.6,1.19,1.19,0,0,0-1,.81,6.61,6.61,0,0,0-.41,1.77c0,.27.09.71.53.71a1.26,1.26,0,0,0,.94-.56A.62.62,0,0,0,180.34,534.05Z"/><path class="cls-4" d="M185.19,531.65a1.15,1.15,0,0,0-.86.49.88.88,0,0,0-.19.32l-.54,2.27c-.1.4-.22.45-.46.45a.27.27,0,0,1-.29-.29,1.11,1.11,0,0,1,0-.23l.49-2a3,3,0,0,0,.11-.65c0-.18,0-.34-.21-.34s-.4.2-.53.75l-.06.24c0,.16-.06.15-.16.15s-.16,0-.16-.11a3.32,3.32,0,0,1,.28-.83.74.74,0,0,1,.66-.46.88.88,0,0,1,.85.57,1.4,1.4,0,0,1,1-.57.68.68,0,0,1,.73.65.54.54,0,0,1-.5.58.34.34,0,0,1-.36-.35.52.52,0,0,1,.45-.51A.5.5,0,0,0,185.19,531.65Z"/><path class="cls-4" d="M189.27,535.65a1.82,1.82,0,0,1-1.9,1.15c-.71,0-1.17-.2-1.17-.67a.48.48,0,0,1,.47-.51.39.39,0,0,1,.38.38.42.42,0,0,1-.27.42,1.1,1.1,0,0,0,.58.13,1.32,1.32,0,0,0,1.18-.9,7.9,7.9,0,0,0,.22-.9,1.39,1.39,0,0,1-.92.36,1.22,1.22,0,0,1-1.25-1.33,2.36,2.36,0,0,1,2.1-2.39.9.9,0,0,1,.8.43.4.4,0,0,1,.38-.27.29.29,0,0,1,.31.3.31.31,0,0,1,0,.11Zm.09-3.4v-.08a.69.69,0,0,0-.65-.52,1.14,1.14,0,0,0-.95.79,6.22,6.22,0,0,0-.41,1.72c0,.44.21.7.54.7a1.22,1.22,0,0,0,.89-.47.54.54,0,0,0,.15-.29Z"/><path class="cls-4" d="M193.65,534.06a2.51,2.51,0,0,0-.08.54c0,.22.07.34.21.34s.6-.4.6-.9c0-.18.07-.23.21-.23s.12,0,.12.09a1.85,1.85,0,0,1-.46,1.1.87.87,0,0,1-.5.18.82.82,0,0,1-.83-.52,1.59,1.59,0,0,1-1.1.52,1.22,1.22,0,0,1-1.25-1.35,2.39,2.39,0,0,1,2.11-2.44.9.9,0,0,1,.8.44.36.36,0,0,1,.38-.28.29.29,0,0,1,.31.3,4.64,4.64,0,0,1-.1.48Zm-.73,0,.4-1.67a.59.59,0,0,0,0-.13.7.7,0,0,0-.65-.6,1.19,1.19,0,0,0-1,.81,6.61,6.61,0,0,0-.41,1.77c0,.27.09.71.53.71a1.27,1.27,0,0,0,1-.56A.7.7,0,0,0,192.92,534.05Z"/><path class="cls-4" d="M199.57,531.65a1.13,1.13,0,0,0-.85.49,1.16,1.16,0,0,0-.2.32l-.54,2.27c-.1.4-.22.45-.46.45a.27.27,0,0,1-.28-.29.69.69,0,0,1,0-.23l.49-2a3,3,0,0,0,.11-.65c0-.18-.05-.34-.22-.34s-.4.2-.53.75l-.05.24c0,.16-.07.15-.17.15s-.15,0-.15-.11a3.15,3.15,0,0,1,.27-.83.75.75,0,0,1,.66-.46.88.88,0,0,1,.85.57,1.42,1.42,0,0,1,1.06-.57.67.67,0,0,1,.72.65.54.54,0,0,1-.5.58.34.34,0,0,1-.36-.35.53.53,0,0,1,.45-.51A.48.48,0,0,0,199.57,531.65Z"/><path class="cls-4" d="M201.54,533.26a2.47,2.47,0,0,0-.1.77c0,.47.17.91.75.91a2.14,2.14,0,0,0,1.64-.72c.08-.08.08-.1.12-.1s.16.11.16.17a1.59,1.59,0,0,1-.82.69,3,3,0,0,1-1.13.2,1.39,1.39,0,0,1-1.48-1.5,2.3,2.3,0,0,1,2.3-2.29c.57,0,1,.28,1,.77,0,.27-.14.7-.84,1a4.73,4.73,0,0,1-1.42.15Zm2.05-1.1a.54.54,0,0,0-.61-.51c-.25,0-1,.06-1.37,1.35C202.38,533,203.59,533,203.59,532.16Z"/><path class="cls-4" d="M207.69,534.06a2.51,2.51,0,0,0-.08.54c0,.22.06.34.21.34s.6-.4.6-.9c0-.18.07-.23.21-.23s.12,0,.12.09a1.85,1.85,0,0,1-.46,1.1.87.87,0,0,1-.5.18.84.84,0,0,1-.84-.52,1.54,1.54,0,0,1-1.09.52,1.22,1.22,0,0,1-1.25-1.35,2.39,2.39,0,0,1,2.11-2.44.9.9,0,0,1,.8.44.35.35,0,0,1,.38-.28.29.29,0,0,1,.31.3,4.64,4.64,0,0,1-.1.48Zm-.73,0,.4-1.67a.59.59,0,0,0,0-.13.7.7,0,0,0-.65-.6,1.19,1.19,0,0,0-1,.81,6.61,6.61,0,0,0-.41,1.77c0,.27.09.71.53.71a1.26,1.26,0,0,0,.94-.56A.62.62,0,0,0,207,534.05Z"/><path class="cls-4" d="M209.9,534.23a1.4,1.4,0,0,0,0,.37c0,.24.06.34.2.34s.42-.3.57-.9c0-.15,0-.24.17-.24s.16,0,.16.1a3.31,3.31,0,0,1-.28.87.68.68,0,0,1-.65.41.8.8,0,0,1-.88-.78,1.3,1.3,0,0,1,0-.3l.94-3.93c0-.13.06-.21,0-.25s-.19-.08-.36-.08-.21,0-.21-.13.12-.2.21-.2c.57,0,.79-.08,1-.08a.14.14,0,0,1,.16.14.65.65,0,0,1,0,.17Z"/><path class="cls-4" d="M353.3,537c0,.1-.08.13-.16.13a3.4,3.4,0,0,1-1.34-1.48,5.51,5.51,0,0,1-.58-2.5,5.23,5.23,0,0,1,.59-2.51c.4-.72,1.05-1.47,1.33-1.47.08,0,.16,0,.16.12s0,.06-.13.18a5.09,5.09,0,0,0-1.27,3.68,6.8,6.8,0,0,0,.32,2.09,3.72,3.72,0,0,0,1,1.62C353.28,536.88,353.3,536.9,353.3,537Z"/><path class="cls-4" d="M357.26,534.23a1.74,1.74,0,0,0-.05.37c0,.22.08.34.22.34s.4-.21.57-.9l0-.14c0-.08.06-.1.15-.1s.15,0,.15.1a3.42,3.42,0,0,1-.27.86.69.69,0,0,1-.66.42.85.85,0,0,1-.83-.52,1.57,1.57,0,0,1-1.1.52,1.22,1.22,0,0,1-1.25-1.35,2.4,2.4,0,0,1,2.12-2.44.87.87,0,0,1,.77.41l.35-1.46a3,3,0,0,0,.09-.42c0-.07-.12-.08-.35-.08s-.21,0-.21-.13.11-.2.21-.2c.49,0,.78-.08,1-.08a.13.13,0,0,1,.15.14.62.62,0,0,1,0,.16Zm-.68-.18.4-1.68a.43.43,0,0,0,0-.12.7.7,0,0,0-.66-.6,1.16,1.16,0,0,0-.95.81,6.25,6.25,0,0,0-.41,1.77c0,.27.08.71.52.71a1.24,1.24,0,0,0,1-.56A1.21,1.21,0,0,0,356.58,534.05Z"/><path class="cls-4" d="M360.35,536.1a2.79,2.79,0,0,1-1,1c-.08,0-.15,0-.15-.13s0-.06.12-.17a5.06,5.06,0,0,0,1.27-3.69,5.38,5.38,0,0,0-1.24-3.65c-.09-.1-.15-.17-.15-.21s.07-.12.15-.12a3.4,3.4,0,0,1,1.35,1.47,5.59,5.59,0,0,1,.59,2.51A5.51,5.51,0,0,1,360.35,536.1Z"/><path class="cls-4" d="M370.09,534.43c-.06.26,0,.37.25.37h.27c.15,0,.2.05.2.13s0,.18-.18.18c-.61,0-.69,0-1.09,0s-.52,0-1.06,0c-.11,0-.14-.05-.14-.12s0-.19.16-.19h.26c.23,0,.44,0,.5-.26l1.15-4.59-3.35,5c-.06.08-.12.17-.24.17s-.16-.09-.18-.22l-.85-4.86-1.06,4.28c-.1.38.07.49.47.49.09,0,.2,0,.2.13a.16.16,0,0,1-.18.18c-.51,0-.53,0-.87,0s-.4,0-.84,0c-.12,0-.13-.06-.13-.14s.12-.17.21-.17h.13c.31,0,.55-.07.64-.42l1-4.07c.05-.23.12-.36-.15-.36h-.42c-.1,0-.14-.05-.14-.12s.12-.19.27-.19h1.29c.22,0,.26,0,.3.22l.76,4.36,3-4.4c.11-.17.14-.18.37-.18h1.19c.15,0,.26,0,.26.12s-.1.19-.31.19c-.44,0-.56,0-.61.2Z"/><path class="cls-4" d="M373.52,535.18a1.36,1.36,0,0,1-1.49-1.41,2.43,2.43,0,0,1,2.35-2.38,1.37,1.37,0,0,1,1.49,1.43A2.42,2.42,0,0,1,373.52,535.18Zm1.14-1a4.59,4.59,0,0,0,.44-1.69.75.75,0,0,0-.73-.84,1.34,1.34,0,0,0-1.11.73,4.65,4.65,0,0,0-.47,1.72.73.73,0,0,0,.75.84A1.35,1.35,0,0,0,374.66,534.18Z"/><path class="cls-4" d="M379.57,532.78a3.63,3.63,0,0,0,.09-.6c0-.27-.11-.53-.43-.53a1.73,1.73,0,0,0-1.35,1l-.44,1.85c-.09.37-.13.64-.48.64a.29.29,0,0,1-.32-.29.74.74,0,0,1,0-.19l.43-1.81a4.22,4.22,0,0,0,.18-.89c0-.17,0-.35-.22-.35s-.42.3-.56.9c-.06.23-.07.24-.15.24s-.19,0-.19-.11.27-1.29.94-1.29a.86.86,0,0,1,.88.68,1.84,1.84,0,0,1,1.29-.68,1,1,0,0,1,1.07.76,1.85,1.85,0,0,1,1.35-.76c.5,0,1.07.19,1.07,1a7.22,7.22,0,0,1-.49,1.77,1.77,1.77,0,0,0-.15.59c0,.22.11.22.17.22s.59-.18.82-1c0-.1.06-.12.16-.12s.14,0,.14.1V534a2.21,2.21,0,0,1-.52,1,1,1,0,0,1-.64.24.73.73,0,0,1-.8-.71,1.35,1.35,0,0,1,.12-.46,7.75,7.75,0,0,0,.49-1.83c0-.27-.09-.53-.41-.53-1,0-1.36,1.12-1.37,1.16l-.46,1.93c-.08.36-.25.44-.45.44a.27.27,0,0,1-.3-.29,2.45,2.45,0,0,1,.05-.25Z"/><path class="cls-4" d="M384.64,533.26a2.82,2.82,0,0,0-.1.77c0,.47.17.91.75.91a2.17,2.17,0,0,0,1.65-.72c.07-.08.08-.1.12-.1a.23.23,0,0,1,.16.17,1.63,1.63,0,0,1-.83.69,3,3,0,0,1-1.12.2,1.39,1.39,0,0,1-1.49-1.5,2.3,2.3,0,0,1,2.3-2.29c.57,0,1,.28,1,.77,0,.27-.14.7-.84,1a4.73,4.73,0,0,1-1.42.15Zm2.05-1.1a.54.54,0,0,0-.61-.51c-.25,0-1,.06-1.37,1.35C385.48,533,386.69,533,386.69,532.16Z"/><path class="cls-4" d="M390.73,531.39c.5,0,1.07.19,1.07,1a6.81,6.81,0,0,1-.49,1.77,1.88,1.88,0,0,0-.15.61c0,.22.11.22.17.22s.59-.2.82-1c0-.1.06-.12.16-.12s.14,0,.14.1V534a2.08,2.08,0,0,1-.59,1,.85.85,0,0,1-.56.2.73.73,0,0,1-.8-.71,1.15,1.15,0,0,1,.12-.46,7.75,7.75,0,0,0,.48-1.83c0-.27-.09-.53-.41-.53a1.27,1.27,0,0,0-.84.34,2.7,2.7,0,0,0-.51.69l-.44,1.88c-.1.41-.13.62-.49.62s-.3-.15-.3-.32a3.63,3.63,0,0,1,.09-.41l.43-1.83a2.61,2.61,0,0,0,.11-.62c0-.17,0-.34-.21-.35s-.4.25-.57.9c0,.16,0,.24-.18.24s-.15,0-.15-.11a3.09,3.09,0,0,1,.27-.81.75.75,0,0,1,.66-.48.85.85,0,0,1,.88.68A1.8,1.8,0,0,1,390.73,531.39Z"/><path class="cls-4" d="M394,534.21a1.32,1.32,0,0,0-.05.39c0,.29.1.31.22.31.35,0,.76-.3,1-1,.05-.12.06-.14.17-.14s.15,0,.15.1a2.1,2.1,0,0,1-.73,1.08,1.2,1.2,0,0,1-.67.2.8.8,0,0,1-.88-.78,1.77,1.77,0,0,1,.07-.39l.52-2.22h-.68c-.15,0-.26,0-.26-.13s.12-.19.27-.19h.75l.32-1.32a.36.36,0,0,1,.41-.31.29.29,0,0,1,.3.3,1.28,1.28,0,0,1-.05.28l-.25,1.05h.68c.13,0,.24,0,.24.12s-.1.2-.23.2h-.77Z"/><path class="cls-4" d="M397.42,535.18a1.36,1.36,0,0,1-1.5-1.41,2.44,2.44,0,0,1,2.35-2.38,1.38,1.38,0,0,1,1.5,1.43A2.43,2.43,0,0,1,397.42,535.18Zm1.13-1a4.63,4.63,0,0,0,.45-1.69.75.75,0,0,0-.74-.84,1.36,1.36,0,0,0-1.11.73,4.61,4.61,0,0,0-.46,1.72c0,.66.41.84.74.84A1.34,1.34,0,0,0,398.55,534.18Z"/><path class="cls-4" d="M403.76,534.45a7.5,7.5,0,0,1-.44,1.52,1.29,1.29,0,0,1-1.06.83c-.38,0-.83-.21-.83-.63a.47.47,0,0,1,.47-.51.37.37,0,0,1,.37.36.42.42,0,0,1-.36.45.62.62,0,0,0,.36.08c.43,0,.63-.64.69-1.11.09-.66.26-1.78.33-2.17l.25-1.47h-.65c-.14,0-.25,0-.25-.13s.11-.19.26-.19h.7a5.07,5.07,0,0,1,.4-1.6,1.19,1.19,0,0,1,1-.61.77.77,0,0,1,.85.66.43.43,0,0,1-.45.49.36.36,0,0,1-.36-.36.42.42,0,0,1,.32-.45.7.7,0,0,0-.36-.1c-.48,0-.48.51-.59,1.14l-.14.83h.81c.15,0,.25,0,.25.12s-.11.2-.26.2h-.86C404.07,532.77,404,533.41,403.76,534.45Z"/><path class="cls-4" d="M406.7,534.23a1.4,1.4,0,0,0,0,.37c0,.24.06.34.2.34s.43-.3.57-.9c0-.15,0-.24.18-.24s.15,0,.15.1a3.16,3.16,0,0,1-.27.87.7.7,0,0,1-.66.41.81.81,0,0,1-.88-.78,1.3,1.3,0,0,1,0-.3l.95-3.93a.78.78,0,0,0,0-.25c0-.07-.2-.08-.36-.08s-.21,0-.21-.13.12-.2.21-.2c.56,0,.78-.08,1-.08.08,0,.17,0,.17.14a.65.65,0,0,1,0,.17Z"/><path class="cls-4" d="M409.27,533.26a2.82,2.82,0,0,0-.1.77c0,.47.17.91.75.91a2.17,2.17,0,0,0,1.65-.72c.07-.08.08-.1.12-.1a.23.23,0,0,1,.16.17,1.63,1.63,0,0,1-.83.69,3,3,0,0,1-1.12.2,1.39,1.39,0,0,1-1.49-1.5,2.3,2.3,0,0,1,2.3-2.29c.57,0,1,.28,1,.77,0,.27-.14.7-.84,1a4.7,4.7,0,0,1-1.41.15Zm2.05-1.1a.54.54,0,0,0-.61-.51c-.25,0-1,.06-1.37,1.35C410.11,533,411.32,533,411.32,532.16Z"/><path class="cls-4" d="M414.62,531.65c-1.09,0-1.58,1.64-1.58,2.45,0,.55.28.82.77.82a2.13,2.13,0,0,0,1.65-.7c.08-.08.08-.1.12-.1s.16.11.16.17a1.43,1.43,0,0,1-.64.58,2.52,2.52,0,0,1-1.31.31,1.36,1.36,0,0,1-1.52-1.41,2.44,2.44,0,0,1,2.35-2.38c.63,0,1,.32,1,.75a.56.56,0,0,1-.51.6.34.34,0,0,1-.35-.35.56.56,0,0,1,.45-.52A.91.91,0,0,0,414.62,531.65Z"/><path class="cls-4" d="M417.31,534.21a1.77,1.77,0,0,0-.05.39c0,.29.1.31.22.31.35,0,.77-.3,1-1,.06-.12.06-.14.17-.14s.15,0,.15.1a2.1,2.1,0,0,1-.73,1.08,1.15,1.15,0,0,1-.67.2.79.79,0,0,1-.87-.78,1.58,1.58,0,0,1,.06-.39l.52-2.22h-.68c-.14,0-.25,0-.25-.13s.12-.19.27-.19h.74l.32-1.32a.38.38,0,0,1,.41-.31.29.29,0,0,1,.3.3,2.06,2.06,0,0,1,0,.28l-.26,1.05h.68c.13,0,.24,0,.24.12s-.1.2-.23.2h-.77Z"/><path class="cls-4" d="M420.76,535.18a1.35,1.35,0,0,1-1.49-1.41,2.43,2.43,0,0,1,2.35-2.38,1.38,1.38,0,0,1,1.49,1.43A2.42,2.42,0,0,1,420.76,535.18Zm1.13-1a4.44,4.44,0,0,0,.45-1.69.75.75,0,0,0-.73-.84,1.34,1.34,0,0,0-1.11.73,4.65,4.65,0,0,0-.47,1.72.73.73,0,0,0,.75.84A1.32,1.32,0,0,0,421.89,534.18Z"/><path class="cls-4" d="M426.28,531.65a1.15,1.15,0,0,0-.86.49,1.07,1.07,0,0,0-.19.32l-.54,2.27c-.1.4-.22.45-.46.45a.27.27,0,0,1-.29-.29.74.74,0,0,1,0-.23l.48-2a2.59,2.59,0,0,0,.12-.65c0-.18-.05-.34-.22-.34s-.4.2-.53.75l-.05.24c0,.16-.07.15-.17.15s-.15,0-.15-.11a3.15,3.15,0,0,1,.27-.83.75.75,0,0,1,.66-.46.88.88,0,0,1,.85.57,1.42,1.42,0,0,1,1.06-.57.67.67,0,0,1,.72.65.54.54,0,0,1-.5.58.34.34,0,0,1-.36-.35.53.53,0,0,1,.45-.51A.5.5,0,0,0,426.28,531.65Z"/><path class="cls-4" d="M431.41,531.65c-1.1,0-1.59,1.64-1.59,2.45,0,.55.28.82.77.82a2.17,2.17,0,0,0,1.66-.7c.07-.08.08-.1.12-.1a.23.23,0,0,1,.16.17,1.5,1.5,0,0,1-.64.58,2.54,2.54,0,0,1-1.31.31,1.36,1.36,0,0,1-1.52-1.41,2.44,2.44,0,0,1,2.34-2.38c.63,0,1.05.32,1.05.75a.57.57,0,0,1-.52.6.35.35,0,0,1-.35-.35.56.56,0,0,1,.45-.52A.9.9,0,0,0,431.41,531.65Z"/><path class="cls-4" d="M436,534.06a3.36,3.36,0,0,0-.08.54c0,.22.07.34.21.34s.6-.4.6-.9c0-.18.07-.23.22-.23s.11,0,.11.09a1.79,1.79,0,0,1-.46,1.1.84.84,0,0,1-.5.18.83.83,0,0,1-.83-.52,1.57,1.57,0,0,1-1.1.52,1.21,1.21,0,0,1-1.24-1.35,2.39,2.39,0,0,1,2.11-2.44.93.93,0,0,1,.8.44.34.34,0,0,1,.37-.28.29.29,0,0,1,.31.3,4.64,4.64,0,0,1-.1.48Zm-.72,0,.4-1.67s0-.09,0-.13a.69.69,0,0,0-.64-.6,1.17,1.17,0,0,0-1,.81,6.61,6.61,0,0,0-.41,1.77c0,.27.09.71.53.71a1.27,1.27,0,0,0,.94-.56A.62.62,0,0,0,435.25,534.05Z"/><path class="cls-4" d="M440.1,531.65a1.13,1.13,0,0,0-.86.49.88.88,0,0,0-.19.32l-.55,2.27c-.09.4-.21.45-.45.45a.27.27,0,0,1-.29-.29,1.11,1.11,0,0,1,0-.23l.49-2a3,3,0,0,0,.11-.65c0-.18-.05-.34-.21-.34s-.4.2-.53.75l-.06.24c0,.16-.06.15-.17.15s-.15,0-.15-.11a3.6,3.6,0,0,1,.27-.83.75.75,0,0,1,.67-.46.89.89,0,0,1,.85.57,1.38,1.38,0,0,1,1.05-.57.68.68,0,0,1,.73.65.54.54,0,0,1-.51.58.34.34,0,0,1-.36-.35.53.53,0,0,1,.45-.51A.45.45,0,0,0,440.1,531.65Z"/><path class="cls-4" d="M444.17,535.65a1.79,1.79,0,0,1-1.89,1.15c-.71,0-1.18-.2-1.18-.67a.49.49,0,0,1,.48-.51.39.39,0,0,1,.38.38.42.42,0,0,1-.27.42,1.1,1.1,0,0,0,.58.13,1.33,1.33,0,0,0,1.18-.9c0-.11.16-.6.22-.9a1.41,1.41,0,0,1-.92.36,1.22,1.22,0,0,1-1.25-1.33,2.36,2.36,0,0,1,2.1-2.39.91.91,0,0,1,.8.43.39.39,0,0,1,.37-.27.3.3,0,0,1,.32.3.31.31,0,0,1,0,.11Zm.1-3.4,0-.08a.66.66,0,0,0-.64-.52,1.13,1.13,0,0,0-.95.79,6.22,6.22,0,0,0-.41,1.72c0,.44.21.7.54.7a1.23,1.23,0,0,0,.89-.47.47.47,0,0,0,.14-.29Z"/><path class="cls-4" d="M448.56,534.06a2.51,2.51,0,0,0-.08.54c0,.22.06.34.21.34s.6-.4.6-.9c0-.18.07-.23.21-.23s.11,0,.11.09a1.83,1.83,0,0,1-.45,1.1.87.87,0,0,1-.51.18.84.84,0,0,1-.83-.52,1.57,1.57,0,0,1-1.09.52,1.22,1.22,0,0,1-1.25-1.35,2.39,2.39,0,0,1,2.11-2.44.91.91,0,0,1,.8.44.35.35,0,0,1,.38-.28.29.29,0,0,1,.31.3c0,.06-.07.31-.11.48Zm-.73,0,.4-1.67a.59.59,0,0,0,0-.13.7.7,0,0,0-.65-.6,1.19,1.19,0,0,0-1,.81,6.61,6.61,0,0,0-.41,1.77c0,.27.09.71.53.71a1.26,1.26,0,0,0,.94-.56A.62.62,0,0,0,447.83,534.05Z"/><path class="cls-4" d="M453.67,535.18c-.72,0-1.24-.24-1.24-1.07a5.48,5.48,0,0,1,.49-1.74,1.59,1.59,0,0,0,.11-.5c0-.16-.06-.21-.16-.21s-.61.25-.82,1c0,.11-.07.13-.16.13s-.15,0-.15-.11a2.08,2.08,0,0,1,.54-1.06,1,1,0,0,1,.62-.23.75.75,0,0,1,.8.73,1.35,1.35,0,0,1-.12.48,5.13,5.13,0,0,0-.44,1.65.59.59,0,0,0,.59.69c.93,0,1.41-1.84,1.41-2.12a.68.68,0,0,0-.34-.6.35.35,0,0,1-.19-.31.57.57,0,0,1,.52-.52s.45,0,.45.68S455,535.18,453.67,535.18Z"/><path class="cls-4" d="M457.92,535a.94.94,0,0,1-.59.2.74.74,0,0,1-.8-.71,1.25,1.25,0,0,1,.12-.46l.48-1.27a3.62,3.62,0,0,0,.25-.87c0-.2-.09-.2-.17-.2-.27,0-.61.26-.82,1,0,.11-.06.13-.16.13s-.15,0-.15-.11.36-1.29,1.17-1.29a.75.75,0,0,1,.79.73,7.48,7.48,0,0,1-.47,1.42,3.89,3.89,0,0,0-.37,1.17c0,.19.07.21.18.21s.59-.22.8-1c0-.1.07-.12.16-.12s.15,0,.15.1A1.89,1.89,0,0,1,457.92,535Zm-.09-4.64a.34.34,0,0,1-.36-.35.54.54,0,0,1,.51-.51.35.35,0,0,1,.37.35A.54.54,0,0,1,457.83,530.34Z"/><path class="cls-4" d="M461.71,531.65a1.16,1.16,0,0,0-.86.49,1.07,1.07,0,0,0-.19.32l-.54,2.27c-.1.4-.22.45-.46.45a.27.27,0,0,1-.28-.29.69.69,0,0,1,0-.23l.48-2A2.59,2.59,0,0,0,460,532c0-.18-.05-.34-.22-.34s-.4.2-.53.75l-.05.24c0,.16-.07.15-.17.15s-.15,0-.15-.11a3.15,3.15,0,0,1,.27-.83.75.75,0,0,1,.66-.46.88.88,0,0,1,.85.57,1.42,1.42,0,0,1,1.06-.57.67.67,0,0,1,.72.65.54.54,0,0,1-.5.58.34.34,0,0,1-.36-.35.53.53,0,0,1,.45-.51A.48.48,0,0,0,461.71,531.65Z"/><path class="cls-4" d="M464,534.21a1.32,1.32,0,0,0,0,.39c0,.29.1.31.22.31.35,0,.76-.3,1-1,.05-.12.06-.14.17-.14s.15,0,.15.1a2.1,2.1,0,0,1-.73,1.08,1.2,1.2,0,0,1-.67.2.79.79,0,0,1-.87-.78,1.58,1.58,0,0,1,.06-.39l.52-2.22h-.68c-.15,0-.26,0-.26-.13s.12-.19.28-.19h.74l.32-1.32a.36.36,0,0,1,.41-.31.29.29,0,0,1,.3.3,1.28,1.28,0,0,1-.05.28l-.25,1.05h.68c.13,0,.24,0,.24.12s-.1.2-.23.2h-.77Z"/><path class="cls-4" d="M469.37,534.1a2.18,2.18,0,0,0-.08.5c0,.22.06.34.21.34s.41-.25.57-.9c.06-.22.09-.23.21-.23s.12,0,.12.09a2.14,2.14,0,0,1-.5,1.13.62.62,0,0,1-.44.15.85.85,0,0,1-.81-.49,1.37,1.37,0,0,1-1,.49,1,1,0,0,1-1.15-1,5.52,5.52,0,0,1,.49-1.76,1.45,1.45,0,0,0,.11-.51c0-.16,0-.21-.16-.21s-.6.25-.82,1c0,.11-.06.13-.16.13s-.15,0-.15-.11a2.11,2.11,0,0,1,.55-1,1,1,0,0,1,.61-.24.75.75,0,0,1,.8.73,1.28,1.28,0,0,1-.11.44,5.53,5.53,0,0,0-.45,1.74c0,.17,0,.64.48.64a1.16,1.16,0,0,0,.9-.61l.6-2.5c.08-.33.26-.35.41-.35a.28.28,0,0,1,.3.3,1.91,1.91,0,0,1-.06.38Z"/><path class="cls-4" d="M473.78,534.06a2.51,2.51,0,0,0-.08.54c0,.22.07.34.21.34s.6-.4.6-.9c0-.18.07-.23.21-.23s.12,0,.12.09a1.85,1.85,0,0,1-.46,1.1.87.87,0,0,1-.5.18.82.82,0,0,1-.83-.52,1.59,1.59,0,0,1-1.1.52,1.22,1.22,0,0,1-1.25-1.35,2.39,2.39,0,0,1,2.11-2.44.9.9,0,0,1,.8.44.36.36,0,0,1,.38-.28.29.29,0,0,1,.31.3,4.64,4.64,0,0,1-.1.48Zm-.73,0,.4-1.67a.59.59,0,0,0,0-.13.69.69,0,0,0-.65-.6,1.19,1.19,0,0,0-1,.81,6.61,6.61,0,0,0-.41,1.77c0,.27.09.71.53.71a1.27,1.27,0,0,0,.95-.56A.7.7,0,0,0,473.05,534.05Z"/><path class="cls-4" d="M476,534.23a1.4,1.4,0,0,0,0,.37c0,.24.06.34.2.34s.42-.3.57-.9c0-.15,0-.24.17-.24s.16,0,.16.1a3.31,3.31,0,0,1-.28.87.68.68,0,0,1-.65.41.8.8,0,0,1-.88-.78,1.3,1.3,0,0,1,0-.3l.94-3.93c0-.13.06-.21,0-.25s-.19-.08-.36-.08-.21,0-.21-.13.12-.2.21-.2c.57,0,.79-.08,1-.08a.14.14,0,0,1,.16.14.65.65,0,0,1,0,.17Z"/></svg>