<svg xmlns="http://www.w3.org/2000/svg" viewBox="0 0 167.36 223.4"><defs><style>.cls-1,.cls-2,.cls-3,.cls-6{fill:#fff;}.cls-1,.cls-2,.cls-4,.cls-6{stroke:#1d1d1b;stroke-miterlimit:10;}.cls-2,.cls-4{stroke-width:0.5px;}.cls-4{fill:none;}.cls-5,.cls-7,.cls-8{fill:#1d1d1b;}.cls-6{stroke-width:0.25px;}.cls-7{font-size:8px;}.cls-7,.cls-8{font-family:MathcadUniMathPrime-Italic, Mathcad UniMath Prime;font-style:italic;}.cls-8{font-size:6px;}</style></defs><g id="Capa_2" data-name="Capa 2"><g id="Capa_1-2" data-name="Capa 1"><polyline class="cls-1" points="26.4 203.96 26.4 54.96 155.4 54.96 155.4 203.91"/><polygon class="cls-2" points="26.4 203.96 19.82 217.47 22.93 217.47 32.99 217.47 26.4 203.96"/><polygon class="cls-2" points="155.4 203.96 148.82 217.47 161.99 217.47 155.4 203.96"/><line class="cls-2" x1="18.43" y1="223.32" x2="20.32" y2="217.77"/><line class="cls-2" x1="22" y1="223.32" x2="23.89" y2="217.77"/><line class="cls-2" x1="25.35" y1="223.32" x2="27.24" y2="217.77"/><line class="cls-2" x1="28.6" y1="223.32" x2="30.48" y2="217.77"/><line class="cls-2" x1="31.11" y1="223.32" x2="32.99" y2="217.77"/><line class="cls-2" x1="147.43" y1="223.32" x2="149.32" y2="217.77"/><line class="cls-2" x1="151" y1="223.32" x2="152.89" y2="217.77"/><line class="cls-2" x1="154.35" y1="223.32" x2="156.24" y2="217.77"/><line class="cls-2" x1="157.6" y1="223.32" x2="159.48" y2="217.77"/><line class="cls-2" x1="160.11" y1="223.32" x2="161.99" y2="217.77"/><line class="cls-3" x1="26.4" y1="26.04" x2="26.4" y2="49.53"/><line class="cls-4" x1="26.4" y1="26.04" x2="26.4" y2="46"/><polygon class="cls-5" points="26.4 49.53 24.37 44.56 26.4 45.74 28.44 44.56 26.4 49.53"/><line class="cls-3" x1="155.4" y1="26.04" x2="155.4" y2="49.53"/><line class="cls-4" x1="155.4" y1="26.04" x2="155.4" y2="46"/><polygon class="cls-5" points="155.4 49.53 153.37 44.56 155.4 45.74 157.44 44.56 155.4 49.53"/><line class="cls-3" x1="26.4" x2="26.4" y2="23.49"/><line class="cls-4" x1="26.4" x2="26.4" y2="19.96"/><polygon class="cls-5" points="26.4 23.49 24.37 18.52 26.4 19.7 28.44 18.52 26.4 23.49"/><line class="cls-3" x1="155.4" x2="155.4" y2="23.49"/><line class="cls-4" x1="155.4" x2="155.4" y2="19.96"/><polygon class="cls-5" points="155.4 23.49 153.37 18.52 155.4 19.7 157.44 18.52 155.4 23.49"/><line class="cls-3" x1="8.98" y1="54.96" x2="8.98" y2="203.91"/><line class="cls-4" x1="8.98" y1="58.55" x2="8.98" y2="200.33"/><polygon class="cls-5" points="6.49 59.27 8.98 54.96 11.47 59.27 6.49 59.27"/><polygon class="cls-5" points="6.49 199.6 8.98 203.91 11.47 199.6 6.49 199.6"/><line class="cls-6" x1="1.15" y1="54.96" x2="16.13" y2="54.96"/><line class="cls-6" x1="1.15" y1="203.91" x2="16.13" y2="203.91"/><line class="cls-3" x1="27.24" y1="34.89" x2="154.35" y2="34.89"/><line class="cls-4" x1="30.83" y1="34.89" x2="150.77" y2="34.89"/><polygon class="cls-5" points="31.55 37.39 27.24 34.89 31.55 32.4 31.55 37.39"/><polygon class="cls-5" points="150.04 37.39 154.35 34.89 150.04 32.4 150.04 37.39"/><text class="cls-7" transform="translate(84.55 31.49)">L</text><text class="cls-7" transform="translate(84.55 31.49)">L</text><text class="cls-7" transform="translate(6.74 134.25) rotate(-90)">h</text><text class="cls-8" transform="translate(14.21 34.89)">DL</text><text class="cls-8" transform="translate(14.09 9.7)">LL</text><text class="cls-8" transform="translate(158.6 38.64)">DL</text><text class="cls-8" transform="translate(158.48 13.45)">LL</text></g></g></svg>