<svg id="Capa_1" data-name="Capa 1" xmlns="http://www.w3.org/2000/svg" viewBox="0 0 595.28 841.89"><defs><style>.cls-1,.cls-2,.cls-5{fill:#fff;}.cls-1,.cls-2,.cls-3,.cls-5,.cls-6,.cls-7{stroke:#1d1d1b;stroke-miterlimit:10;}.cls-2,.cls-3,.cls-6,.cls-7{stroke-width:0.5px;}.cls-3,.cls-6,.cls-7{fill:none;}.cls-4{fill:#1d1d1b;}.cls-5{stroke-width:0.25px;}.cls-6{stroke-dasharray:6.28 6.28;}.cls-7{stroke-dasharray:5.05 5.05;}.cls-8{fill:#1d71b8;}.cls-8,.cls-9{opacity:0.5;}.cls-9{fill:#ea5b0c;}</style></defs><polyline class="cls-1" points="105.05 252.94 105.05 103.94 234.05 103.94 234.05 252.9"/><polygon class="cls-2" points="105.05 252.94 98.47 266.45 101.59 266.45 111.64 266.45 105.05 252.94"/><polygon class="cls-2" points="234.05 252.94 227.47 266.45 240.64 266.45 234.05 252.94"/><line class="cls-2" x1="97.08" y1="272.3" x2="98.97" y2="266.75"/><line class="cls-2" x1="100.65" y1="272.3" x2="102.54" y2="266.75"/><line class="cls-2" x1="104" y1="272.3" x2="105.89" y2="266.75"/><line class="cls-2" x1="107.25" y1="272.3" x2="109.13" y2="266.75"/><line class="cls-2" x1="109.76" y1="272.3" x2="111.64" y2="266.75"/><line class="cls-2" x1="226.08" y1="272.3" x2="227.97" y2="266.75"/><line class="cls-2" x1="229.65" y1="272.3" x2="231.54" y2="266.75"/><line class="cls-2" x1="233" y1="272.3" x2="234.89" y2="266.75"/><line class="cls-2" x1="236.25" y1="272.3" x2="238.13" y2="266.75"/><line class="cls-2" x1="238.76" y1="272.3" x2="240.64" y2="266.75"/><line class="cls-3" x1="105.05" y1="66.88" x2="105.05" y2="94.99"/><polygon class="cls-4" points="105.05 98.52 103.02 93.54 105.05 94.72 107.09 93.54 105.05 98.52"/><line class="cls-3" x1="234.05" y1="66.88" x2="234.05" y2="94.99"/><polygon class="cls-4" points="234.05 98.52 232.02 93.54 234.05 94.72 236.09 93.54 234.05 98.52"/><line class="cls-3" x1="87.63" y1="107.53" x2="87.63" y2="249.31"/><polygon class="cls-4" points="85.14 108.26 87.63 103.94 90.12 108.26 85.14 108.26"/><polygon class="cls-4" points="85.14 248.58 87.63 252.9 90.12 248.58 85.14 248.58"/><line class="cls-5" x1="79.8" y1="103.94" x2="94.78" y2="103.94"/><line class="cls-5" x1="79.8" y1="252.9" x2="94.78" y2="252.9"/><line class="cls-3" x1="109.48" y1="83.88" x2="229.42" y2="83.88"/><polygon class="cls-4" points="110.2 86.37 105.89 83.88 110.2 81.39 110.2 86.37"/><polygon class="cls-4" points="228.69 86.37 233 83.88 228.69 81.39 228.69 86.37"/><path class="cls-4" d="M165.08,79.87c-.05.19-.06.29.17.29h.7a2.07,2.07,0,0,0,2-1.61c.06-.17.08-.2.18-.2a.14.14,0,0,1,.15.13c0,.06-.6,1.61-.68,1.82s-.07.17-.28.17h-3.86c-.14,0-.25,0-.25-.12s0-.19.2-.19h.2c.37,0,.48,0,.55-.25l1.07-4.27c.07-.28,0-.32-.43-.32-.16,0-.28,0-.28-.13s.09-.18.19-.18l1,0,1.35,0s.15,0,.15.11-.1.2-.29.2h-.14c-.48,0-.65,0-.71.28Z"/><path class="cls-4" d="M165.08,79.87c-.05.19-.06.29.17.29h.7a2.07,2.07,0,0,0,2-1.61c.06-.17.08-.2.18-.2a.14.14,0,0,1,.15.13c0,.06-.6,1.61-.68,1.82s-.07.17-.28.17h-3.86c-.14,0-.25,0-.25-.12s0-.19.2-.19h.2c.37,0,.48,0,.55-.25l1.07-4.27c.07-.28,0-.32-.43-.32-.16,0-.28,0-.28-.13s.09-.18.19-.18l1,0,1.35,0s.15,0,.15.11-.1.2-.29.2h-.14c-.48,0-.65,0-.71.28Z"/><path class="cls-4" d="M82.25,181.51a1.66,1.66,0,0,1-.58-1.22c0-.49.19-1.07.94-1.07a8,8,0,0,1,1.81.51,2,2,0,0,0,.57.13c.22,0,.21-.11.21-.17,0-.24-.19-.59-1-.82-.1,0-.12-.06-.12-.15s0-.15.11-.15a1.84,1.84,0,0,1,1.09.56.94.94,0,0,1,.19.6.74.74,0,0,1-.71.8,1.39,1.39,0,0,1-.47-.12,7.42,7.42,0,0,0-1.82-.48c-.26,0-.54.11-.54.41a1.51,1.51,0,0,0,.77,1.19,1,1,0,0,0,.37.16l2,.51a.39.39,0,0,1,.35.42.27.27,0,0,1-.28.3l-.19,0-4.52-1.08c-.28-.06-.35-.08-.35.3,0,.1,0,.21-.13.21s-.2-.11-.2-.21a9.1,9.1,0,0,0-.08-1,.13.13,0,0,1,.14-.15l.17,0Z"/><path class="cls-4" d="M99.62,66.37c0,.18-.05.28.11.28h.3a.11.11,0,0,1,.12.13c0,.09-.1.1-.15.1H98.34c-.09,0-.11,0-.11-.09s0-.14.17-.14h.2c.18,0,.28,0,.33-.19l.8-3.17c0-.19.06-.27-.13-.27h-.27c-.11,0-.14,0-.14-.1s.09-.14.21-.14h2.11c.8,0,1.28.37,1.28.92A1.65,1.65,0,0,1,101,65h-1Zm.35-1.54h.85a1.15,1.15,0,0,0,1.27-1.29c0-.42-.41-.52-.82-.52h-.69c-.15,0-.15,0-.19.16Z"/><path class="cls-4" d="M238.4,66.11c0,.18,0,.28.11.28h.31c.07,0,.11,0,.11.13s-.09.1-.14.1h-1.67c-.08,0-.11-.05-.11-.09s.06-.14.18-.14h.2c.17,0,.28,0,.33-.19l.79-3.17c.05-.19.07-.27-.12-.27h-.27c-.11,0-.14,0-.14-.1s.09-.14.2-.14h2.12c.79,0,1.28.37,1.28.92a1.66,1.66,0,0,1-1.81,1.34h-1Zm.36-1.54h.84a1.16,1.16,0,0,0,1.28-1.29c0-.42-.42-.52-.82-.52h-.7c-.14,0-.15,0-.19.16Z"/><polyline class="cls-1" points="347.65 252.94 347.65 103.94 476.65 103.94 476.65 252.9"/><polygon class="cls-2" points="347.65 252.94 341.06 266.45 344.18 266.45 354.24 266.45 347.65 252.94"/><polygon class="cls-2" points="476.65 252.94 470.06 266.45 483.24 266.45 476.65 252.94"/><line class="cls-2" x1="339.68" y1="272.3" x2="341.56" y2="266.75"/><line class="cls-2" x1="343.25" y1="272.3" x2="345.13" y2="266.75"/><line class="cls-2" x1="346.6" y1="272.3" x2="348.48" y2="266.75"/><line class="cls-2" x1="349.85" y1="272.3" x2="351.73" y2="266.75"/><line class="cls-2" x1="352.35" y1="272.3" x2="354.24" y2="266.75"/><line class="cls-2" x1="468.68" y1="272.3" x2="470.56" y2="266.75"/><line class="cls-2" x1="472.25" y1="272.3" x2="474.13" y2="266.75"/><line class="cls-2" x1="475.6" y1="272.3" x2="477.48" y2="266.75"/><line class="cls-2" x1="478.85" y1="272.3" x2="480.73" y2="266.75"/><line class="cls-2" x1="481.35" y1="272.3" x2="483.24" y2="266.75"/><line class="cls-3" x1="477.48" y1="103.94" x2="479.98" y2="103.94"/><line class="cls-6" x1="486.26" y1="103.94" x2="495.68" y2="103.94"/><path class="cls-3" d="M498.81,103.94h2.5c0,.82,0,1.66,0,2.5"/><path class="cls-7" d="M501.15,111.49c-.84,30.09-4.11,72.32-15.16,114-2.2,8.31-4.51,15.85-6.84,22.67"/><path class="cls-3" d="M478.32,250.59c-.28.79-.56,1.58-.84,2.35"/><line class="cls-3" x1="347.65" y1="103.94" x2="350.15" y2="103.94"/><line class="cls-6" x1="356.43" y1="103.94" x2="365.84" y2="103.94"/><path class="cls-3" d="M369,103.94h2.5c0,.82,0,1.66-.05,2.5"/><path class="cls-7" d="M371.31,111.49c-.83,30.09-4.1,72.32-15.15,114-2.2,8.31-4.51,15.85-6.84,22.67"/><path class="cls-3" d="M348.49,250.59c-.28.79-.56,1.58-.84,2.35"/><line class="cls-3" x1="481.07" y1="92.39" x2="497.73" y2="92.39"/><polygon class="cls-4" points="481.8 94.88 477.48 92.39 481.8 89.9 481.8 94.88"/><polygon class="cls-4" points="497 94.88 501.31 92.39 497 89.9 497 94.88"/><path class="cls-4" d="M489.62,83.53v-.11l-.32-.2c-.66-.41-1-.79-1-1.15a.81.81,0,0,1,.26-.62,1,1,0,0,1,.67-.23,1.59,1.59,0,0,1,.62.14,2.45,2.45,0,0,1,1,.84.85.85,0,0,1,.16.31s0,.08,0,.1a.05.05,0,0,1-.05,0c-.05,0-.16-.08-.33-.23a4.85,4.85,0,0,0-.49-.37,3.2,3.2,0,0,0-.57-.31,1.48,1.48,0,0,0-.51-.1.51.51,0,0,0-.34.1.34.34,0,0,0-.13.27c0,.19.23.41.68.66l.41.23A5,5,0,0,1,491,84a1.85,1.85,0,0,1,.39,1.16,1.68,1.68,0,0,1-.46,1.24,1.53,1.53,0,0,1-1.17.48,1.61,1.61,0,0,1-1.18-.47,1.81,1.81,0,0,1-.07-2.33A1.7,1.7,0,0,1,489.62,83.53Zm-.71,1.67a2.16,2.16,0,0,0,.22,1.07.7.7,0,0,0,.64.37.68.68,0,0,0,.63-.36,2.23,2.23,0,0,0,.22-1.08,2.08,2.08,0,0,0-.22-1.08.67.67,0,0,0-.63-.37.69.69,0,0,0-.64.37A2.18,2.18,0,0,0,488.91,85.2Z"/><polyline class="cls-1" points="92.53 495.74 92.53 346.74 221.53 346.74 221.53 495.7"/><polygon class="cls-2" points="92.53 495.74 85.94 509.25 89.06 509.25 99.11 509.25 92.53 495.74"/><polygon class="cls-2" points="221.53 495.74 214.94 509.25 228.11 509.25 221.53 495.74"/><line class="cls-2" x1="84.56" y1="515.1" x2="86.44" y2="509.55"/><line class="cls-2" x1="88.13" y1="515.1" x2="90.01" y2="509.55"/><line class="cls-2" x1="91.48" y1="515.1" x2="93.36" y2="509.55"/><line class="cls-2" x1="94.72" y1="515.1" x2="96.61" y2="509.55"/><line class="cls-2" x1="97.23" y1="515.1" x2="99.11" y2="509.55"/><line class="cls-2" x1="213.56" y1="515.1" x2="215.44" y2="509.55"/><line class="cls-2" x1="217.13" y1="515.1" x2="219.01" y2="509.55"/><line class="cls-2" x1="220.48" y1="515.1" x2="222.36" y2="509.55"/><line class="cls-2" x1="223.72" y1="515.1" x2="225.61" y2="509.55"/><line class="cls-2" x1="226.23" y1="515.1" x2="228.11" y2="509.55"/><path class="cls-8" d="M222.36,495.74c2.89-8,5.79-17.13,8.51-27.42,12-45.33,14.83-91.27,15.32-121.58H222.36"/><path class="cls-8" d="M92.53,346.74h23.83C115.86,377.05,113,423,101,468.32c-2.73,10.29-5.62,19.4-8.51,27.42"/><line class="cls-3" x1="317.59" y1="103.94" x2="337.54" y2="103.94"/><polygon class="cls-4" points="341.07 103.94 336.1 105.97 337.28 103.94 336.1 101.91 341.07 103.94"/><path class="cls-4" d="M315.63,98.59c-.72,0-1.24-.24-1.24-1.07a5.51,5.51,0,0,1,.49-1.75,1.76,1.76,0,0,0,.11-.49c0-.17-.06-.22-.16-.22s-.62.26-.83,1c0,.11-.06.14-.16.14s-.15,0-.15-.11a2,2,0,0,1,.55-1.06.93.93,0,0,1,.62-.23.75.75,0,0,1,.8.73,1.22,1.22,0,0,1-.13.48,5.44,5.44,0,0,0-.44,1.64.59.59,0,0,0,.59.69c.94,0,1.42-1.84,1.42-2.11a.7.7,0,0,0-.35-.61.36.36,0,0,1-.18-.3.58.58,0,0,1,.51-.53s.46,0,.46.69S317,98.59,315.63,98.59Z"/><path class="cls-4" d="M318.66,95.85c-.12,0-.34,0-.34-.23s.23-.24.35-.24H323c.13,0,.36,0,.36.24s-.22.23-.35.23Zm0,1.81c-.12,0-.35,0-.35-.23s.22-.24.34-.24H323c.13,0,.35,0,.35.24s-.23.23-.36.23Z"/><path class="cls-4" d="M326.44,97.84c0,.34,0,.38.43.39h.64v.28l-1.45,0-1.43,0v-.28h.57c.47,0,.48-.06.48-.39v-4a3.06,3.06,0,0,1-1.13.19v-.28a2.39,2.39,0,0,0,1.64-.52c.23,0,.25,0,.25.23Z"/><path class="cls-4" d="M329.5,94a.4.4,0,0,1-.43-.42.65.65,0,0,1,.64-.63c.24,0,.48.16.48.6a2.72,2.72,0,0,1-1.28,2c-.09,0-.13-.1-.13-.14s0-.07.1-.12a2.6,2.6,0,0,0,1-1.42A.58.58,0,0,1,329.5,94Z"/><polyline class="cls-8" points="221.89 322.91 221.89 346.74 157.03 346.74"/><polyline class="cls-8" points="91.95 370.67 91.95 346.83 156.81 346.83"/><path class="cls-4" d="M238.28,343.11c-.05.24-.06.38.15.38h.41c.09,0,.15.05.15.17s-.13.14-.19.14c-.57,0-.76,0-1.14,0s-.54,0-1.09,0c-.11,0-.14-.07-.14-.12s.07-.19.23-.19h.27c.24,0,.37,0,.43-.26l1.07-4.23c.06-.24.09-.36-.17-.36h-.36c-.14,0-.18-.05-.18-.12s.12-.19.27-.19h2.82c1.06,0,1.7.5,1.7,1.23a2.21,2.21,0,0,1-2.41,1.78h-1.38Zm.48-2h1.12a1.54,1.54,0,0,0,1.7-1.72c0-.57-.55-.71-1.09-.71h-.93c-.19,0-.2,0-.25.23Z"/><path class="cls-4" d="M244.18,340.55v-.1l-.32-.2c-.66-.41-1-.79-1-1.15a.8.8,0,0,1,.25-.62,1,1,0,0,1,.68-.23,1.54,1.54,0,0,1,.61.14,2.16,2.16,0,0,1,.59.39,2.67,2.67,0,0,1,.38.44,1.08,1.08,0,0,1,.17.32.17.17,0,0,1,0,.09.05.05,0,0,1,0,0c-.05,0-.16-.07-.33-.22a4.85,4.85,0,0,0-.49-.37,3.2,3.2,0,0,0-.57-.31,1.48,1.48,0,0,0-.51-.1.54.54,0,0,0-.35.1.32.32,0,0,0-.12.27c0,.19.22.41.67.66.18.09.31.17.41.23a4.87,4.87,0,0,1,1.38,1.1,1.85,1.85,0,0,1,.39,1.16,1.74,1.74,0,0,1-.46,1.24,1.57,1.57,0,0,1-1.18.48,1.59,1.59,0,0,1-1.17-.47,1.66,1.66,0,0,1-.47-1.2,1.59,1.59,0,0,1,.4-1.13A1.71,1.71,0,0,1,244.18,340.55Zm-.7,1.68a2.06,2.06,0,0,0,.22,1.07.72.72,0,0,0,1.26,0,2.06,2.06,0,0,0,.22-1.07,2.26,2.26,0,0,0-.21-1.09.71.71,0,0,0-.64-.36.7.7,0,0,0-.64.37A2.19,2.19,0,0,0,243.48,342.23Z"/><polyline class="cls-1" points="347.48 495.74 347.48 346.74 476.48 346.74 476.48 495.7"/><polygon class="cls-2" points="347.48 495.74 340.89 509.25 344.01 509.25 354.06 509.25 347.48 495.74"/><polygon class="cls-2" points="476.48 495.74 469.89 509.25 483.06 509.25 476.48 495.74"/><line class="cls-2" x1="339.51" y1="515.1" x2="341.39" y2="509.55"/><line class="cls-2" x1="343.08" y1="515.1" x2="344.96" y2="509.55"/><line class="cls-2" x1="346.43" y1="515.1" x2="348.31" y2="509.55"/><line class="cls-2" x1="349.68" y1="515.1" x2="351.56" y2="509.55"/><line class="cls-2" x1="352.18" y1="515.1" x2="354.07" y2="509.55"/><line class="cls-2" x1="468.51" y1="515.1" x2="470.39" y2="509.55"/><line class="cls-2" x1="472.08" y1="515.1" x2="473.96" y2="509.55"/><line class="cls-2" x1="475.43" y1="515.1" x2="477.31" y2="509.55"/><line class="cls-2" x1="478.68" y1="515.1" x2="480.56" y2="509.55"/><line class="cls-2" x1="481.18" y1="515.1" x2="483.07" y2="509.55"/><path class="cls-4" d="M483,328.61c-.06.24-.07.38.14.38h.41a.14.14,0,0,1,.15.16c0,.13-.13.15-.19.15-.57,0-.75,0-1.14,0s-.53,0-1.08,0c-.12,0-.15-.07-.15-.12s.07-.19.23-.19h.28c.23,0,.36,0,.43-.26l1.06-4.23c.07-.25.09-.36-.17-.36h-.36c-.14,0-.18-.05-.18-.13s.12-.18.27-.18h2.82c1.06,0,1.71.5,1.71,1.22a2.21,2.21,0,0,1-2.42,1.79H483.4Zm.47-2.05h1.13a1.53,1.53,0,0,0,1.69-1.72c0-.56-.55-.7-1.09-.7h-.92c-.2,0-.2,0-.26.23Z"/><path class="cls-4" d="M488.76,326.16a1.65,1.65,0,0,1,1.21-.58c.5,0,1.07.19,1.07.94a8.31,8.31,0,0,1-.5,1.81,1.76,1.76,0,0,0-.14.58c0,.21.12.2.17.2.25,0,.59-.19.83-1,0-.11.06-.12.15-.12s.15,0,.15.1a1.87,1.87,0,0,1-.57,1.09.94.94,0,0,1-.6.19.73.73,0,0,1-.79-.71,1.15,1.15,0,0,1,.12-.46,7.63,7.63,0,0,0,.48-1.83c0-.26-.11-.53-.42-.53a1.5,1.5,0,0,0-1.18.76,1.05,1.05,0,0,0-.17.37l-.5,2.06a.4.4,0,0,1-.42.34.26.26,0,0,1-.3-.28s0-.12,0-.19l1.08-4.52c.07-.28.08-.35-.29-.35-.1,0-.22,0-.22-.13s.12-.2.22-.2a9.1,9.1,0,0,0,1-.08.13.13,0,0,1,.14.14.65.65,0,0,1,0,.17Z"/><polyline class="cls-9" points="476.84 322.91 476.84 346.74 411.98 346.74"/><polyline class="cls-9" points="346.9 370.67 346.9 346.83 411.77 346.83"/><path class="cls-4" d="M333.46,359.67c-.06.24-.07.38.14.38H334a.14.14,0,0,1,.15.16c0,.13-.13.15-.19.15-.57,0-.75,0-1.14,0s-.53,0-1.08,0c-.12,0-.15-.07-.15-.12s.07-.19.23-.19h.27c.24,0,.37,0,.44-.26l1.06-4.23c.06-.25.09-.36-.17-.36h-.36c-.14,0-.18-.05-.18-.13s.12-.18.27-.18H336c1.06,0,1.71.49,1.71,1.22a2.22,2.22,0,0,1-2.42,1.79H333.9Zm.47-2.05h1.13a1.53,1.53,0,0,0,1.69-1.72c0-.56-.55-.7-1.09-.7h-.92c-.2,0-.2,0-.26.22Z"/><path class="cls-4" d="M339.26,357.22a1.65,1.65,0,0,1,1.21-.58c.5,0,1.07.19,1.07.94a8.46,8.46,0,0,1-.5,1.81,1.76,1.76,0,0,0-.14.58c0,.21.12.2.17.2.25,0,.59-.19.82-1,0-.11.07-.12.16-.12s.15,0,.15.1a1.87,1.87,0,0,1-.57,1.09.94.94,0,0,1-.6.19.73.73,0,0,1-.79-.71,1.19,1.19,0,0,1,.12-.47,7.42,7.42,0,0,0,.48-1.82c0-.26-.11-.53-.42-.53a1.5,1.5,0,0,0-1.18.76,1.05,1.05,0,0,0-.17.37l-.5,2.06a.41.41,0,0,1-.43.34.26.26,0,0,1-.29-.28s0-.12,0-.19l1.08-4.52c.07-.28.08-.35-.29-.35-.1,0-.22,0-.22-.13s.12-.2.22-.2a9.1,9.1,0,0,0,1-.08.13.13,0,0,1,.14.14.65.65,0,0,1,0,.17Z"/><path class="cls-4" d="M354.72,339.5c-.06.24-.07.37.14.37h.41c.09,0,.15.06.15.17s-.13.14-.19.14l-1.14,0c-.38,0-.53,0-1.08,0-.12,0-.15-.07-.15-.12s.07-.19.23-.19h.28c.23,0,.36,0,.43-.25l1.06-4.23c.07-.25.09-.36-.17-.36h-.36c-.14,0-.18-.06-.18-.13s.12-.19.27-.19h2.82c1.06,0,1.71.5,1.71,1.23,0,.89-1,1.78-2.42,1.78h-1.37Zm.47-2.05h1.13a1.53,1.53,0,0,0,1.69-1.72c0-.57-.55-.7-1.09-.7H356c-.2,0-.2,0-.26.22Z"/><path class="cls-4" d="M360.52,337.05a1.61,1.61,0,0,1,1.21-.58c.5,0,1.07.19,1.07.94a8.46,8.46,0,0,1-.5,1.81,1.7,1.7,0,0,0-.14.57c0,.22.12.21.17.21.25,0,.59-.19.83-1,0-.1.06-.12.15-.12s.15,0,.15.11a1.85,1.85,0,0,1-.57,1.08.88.88,0,0,1-.6.19.73.73,0,0,1-.79-.71,1.15,1.15,0,0,1,.12-.46,7.67,7.67,0,0,0,.48-1.82c0-.27-.11-.54-.42-.54a1.49,1.49,0,0,0-1.18.77,1.05,1.05,0,0,0-.17.37l-.5,2.05a.39.39,0,0,1-.42.34c-.2,0-.3-.11-.3-.27s0-.12,0-.2l1.08-4.51c.07-.28.08-.36-.29-.36-.1,0-.22,0-.22-.12s.12-.2.22-.2a9.1,9.1,0,0,0,1-.08.12.12,0,0,1,.14.13.64.64,0,0,1,0,.18Z"/><path class="cls-4" d="M493.24,343.11c-.06.24-.07.38.14.38h.41c.09,0,.15.05.15.17s-.13.14-.19.14c-.57,0-.75,0-1.14,0s-.53,0-1.08,0c-.12,0-.15-.07-.15-.12s.07-.19.23-.19h.28c.23,0,.36,0,.43-.26l1.06-4.23c.06-.24.09-.36-.17-.36h-.36c-.14,0-.18-.05-.18-.12s.12-.19.27-.19h2.82c1.06,0,1.71.5,1.71,1.23,0,.89-1,1.78-2.42,1.78h-1.37Zm.47-2h1.13a1.53,1.53,0,0,0,1.69-1.72c0-.57-.55-.71-1.09-.71h-.92c-.2,0-.2,0-.26.23Z"/><path class="cls-4" d="M499,340.67a1.63,1.63,0,0,1,1.21-.59c.5,0,1.07.19,1.07.95a8.22,8.22,0,0,1-.5,1.8,1.76,1.76,0,0,0-.14.58c0,.21.12.21.17.21.25,0,.59-.2.83-1,0-.1.06-.12.15-.12s.15,0,.15.1a1.84,1.84,0,0,1-.57,1.09.88.88,0,0,1-.6.19.73.73,0,0,1-.79-.71,1.15,1.15,0,0,1,.12-.46,7.63,7.63,0,0,0,.48-1.83c0-.26-.11-.53-.42-.53a1.49,1.49,0,0,0-1.18.77,1,1,0,0,0-.17.36l-.5,2.06a.4.4,0,0,1-.42.34.26.26,0,0,1-.3-.28s0-.12,0-.19l1.08-4.52c.07-.28.08-.35-.29-.35-.1,0-.22,0-.22-.13s.12-.2.22-.2a9.1,9.1,0,0,0,1-.08.13.13,0,0,1,.14.14.69.69,0,0,1,0,.18Z"/><polyline class="cls-9" points="347.48 495.74 371.48 346.83 346.9 346.83"/><polyline class="cls-9" points="476.08 495.74 500.08 346.83 475.5 346.83"/><path class="cls-4" d="M226.3,325.72c-.05.24-.06.37.15.37h.4a.15.15,0,0,1,.16.17c0,.13-.13.15-.2.15-.56,0-.75,0-1.13,0s-.54,0-1.09,0a.13.13,0,0,1-.14-.12c0-.15.07-.2.23-.2H225c.23,0,.37,0,.43-.25l1.07-4.23c.06-.25.08-.36-.17-.36h-.36c-.15,0-.19-.06-.19-.13s.12-.18.28-.18h2.82c1,0,1.7.49,1.7,1.22a2.2,2.2,0,0,1-2.41,1.78h-1.38Zm.47-2.05h1.13a1.54,1.54,0,0,0,1.7-1.72c0-.57-.55-.7-1.09-.7h-.93c-.19,0-.2,0-.25.22Z"/><path class="cls-4" d="M232.2,323.16v-.11l-.32-.2c-.66-.4-1-.79-1-1.15a.79.79,0,0,1,.26-.61.93.93,0,0,1,.67-.24,1.55,1.55,0,0,1,.62.14,2,2,0,0,1,.58.39,2.11,2.11,0,0,1,.39.45.8.8,0,0,1,.16.32.22.22,0,0,1,0,.09.06.06,0,0,1-.06,0c-.05,0-.15-.08-.32-.22a4.69,4.69,0,0,0-.49-.38,3.16,3.16,0,0,0-.57-.3,1.51,1.51,0,0,0-.51-.11.54.54,0,0,0-.35.1.35.35,0,0,0-.12.28c0,.19.22.4.67.65l.41.24a5.06,5.06,0,0,1,1.38,1.09,1.92,1.92,0,0,1,.38,1.16,1.76,1.76,0,0,1-.45,1.25,1.6,1.6,0,0,1-1.18.47,1.55,1.55,0,0,1-1.17-.47,1.78,1.78,0,0,1-.07-2.33A1.7,1.7,0,0,1,232.2,323.16Zm-.7,1.67a2.12,2.12,0,0,0,.22,1.08.72.72,0,0,0,1.26,0,2.1,2.1,0,0,0,.22-1.08,2.08,2.08,0,0,0-.22-1.08.67.67,0,0,0-.63-.37.7.7,0,0,0-.64.37A2.25,2.25,0,0,0,231.5,324.83Z"/><path class="cls-4" d="M100.67,343.21c-.06.24-.07.37.14.37h.41c.1,0,.15.06.15.17s-.13.15-.19.15c-.57,0-.75,0-1.14,0s-.53,0-1.08,0a.14.14,0,0,1-.15-.12c0-.15.08-.2.24-.2h.27c.23,0,.36,0,.43-.25l1.06-4.23c.07-.25.09-.36-.17-.36h-.36c-.14,0-.18-.06-.18-.13s.12-.18.27-.18h2.82c1.06,0,1.71.49,1.71,1.22,0,.9-1,1.78-2.42,1.78h-1.37Zm.47-2h1.13a1.53,1.53,0,0,0,1.69-1.72c0-.56-.55-.7-1.08-.7H102c-.19,0-.2,0-.26.22Z"/><path class="cls-4" d="M106.56,340.65v-.11l-.32-.19c-.65-.41-1-.79-1-1.16a.81.81,0,0,1,.25-.61,1,1,0,0,1,.68-.23,1.57,1.57,0,0,1,.62.13,2.11,2.11,0,0,1,.58.39,2.33,2.33,0,0,1,.38.45.79.79,0,0,1,.17.32.2.2,0,0,1,0,.09.05.05,0,0,1,0,0c-.05,0-.16-.07-.33-.22a5,5,0,0,0-.49-.38,2.61,2.61,0,0,0-.57-.3,1.51,1.51,0,0,0-.51-.11.57.57,0,0,0-.34.1.33.33,0,0,0-.13.28c0,.19.23.41.68.65l.41.24a5,5,0,0,1,1.37,1.1,1.82,1.82,0,0,1,.39,1.15,1.72,1.72,0,0,1-.46,1.25,1.52,1.52,0,0,1-1.17.47,1.56,1.56,0,0,1-1.18-.47,1.62,1.62,0,0,1-.46-1.2,1.67,1.67,0,0,1,.39-1.13A1.77,1.77,0,0,1,106.56,340.65Zm-.7,1.67a2.12,2.12,0,0,0,.22,1.08.72.72,0,0,0,.64.37.7.7,0,0,0,.63-.37,2.19,2.19,0,0,0,.21-1.08,2.22,2.22,0,0,0-.21-1.08.69.69,0,0,0-.63-.37.71.71,0,0,0-.64.37A2.12,2.12,0,0,0,105.86,342.32Z"/><path class="cls-4" d="M81.75,357.31c0,.24-.06.37.15.37h.4a.15.15,0,0,1,.16.17c0,.13-.13.15-.2.15-.56,0-.75,0-1.13,0s-.54,0-1.09,0a.13.13,0,0,1-.14-.12c0-.15.07-.2.23-.2h.27c.23,0,.37,0,.43-.25l1.07-4.23c.06-.25.08-.36-.17-.36h-.36c-.15,0-.19-.06-.19-.13s.12-.18.28-.18h2.82c1,0,1.7.49,1.7,1.22a2.2,2.2,0,0,1-2.41,1.78H82.19Zm.47-2.05h1.13a1.54,1.54,0,0,0,1.7-1.72c0-.57-.56-.7-1.09-.7H83c-.19,0-.2,0-.26.22Z"/><path class="cls-4" d="M87.65,354.75v-.11l-.32-.2c-.66-.4-1-.79-1-1.15a.79.79,0,0,1,.26-.61.93.93,0,0,1,.67-.24,1.55,1.55,0,0,1,.62.14,2,2,0,0,1,.58.39,2.11,2.11,0,0,1,.39.45.8.8,0,0,1,.16.32.22.22,0,0,1,0,.09.07.07,0,0,1-.06,0s-.16-.07-.32-.22-.34-.27-.49-.38a2.92,2.92,0,0,0-.58-.3,1.42,1.42,0,0,0-.5-.11.52.52,0,0,0-.35.1.35.35,0,0,0-.12.28c0,.19.22.4.67.65l.41.24a5.06,5.06,0,0,1,1.38,1.09,1.92,1.92,0,0,1,.38,1.16,1.76,1.76,0,0,1-.45,1.25,1.6,1.6,0,0,1-1.18.47,1.54,1.54,0,0,1-1.17-.47,1.59,1.59,0,0,1-.47-1.2,1.63,1.63,0,0,1,.4-1.13A1.7,1.7,0,0,1,87.65,354.75Zm-.7,1.67a2.25,2.25,0,0,0,.21,1.08.72.72,0,0,0,.64.37.69.69,0,0,0,.63-.37,2.1,2.1,0,0,0,.22-1.08,2.08,2.08,0,0,0-.22-1.08.67.67,0,0,0-.63-.37.72.72,0,0,0-.64.37A2.25,2.25,0,0,0,87,356.42Z"/><path class="cls-4" d="M118.41,294.47c0,.14-.1.19-.23.19a5,5,0,0,1-2-2.22,8.27,8.27,0,0,1-.88-3.74,8,8,0,0,1,.89-3.77c.6-1.09,1.59-2.21,2-2.21.13,0,.23,0,.23.19s0,.08-.19.26a7.6,7.6,0,0,0-1.89,5.53,10.5,10.5,0,0,0,.46,3.13,5.68,5.68,0,0,0,1.48,2.42C118.39,294.36,118.41,294.39,118.41,294.47Z"/><path class="cls-4" d="M124.26,290.14a3.44,3.44,0,0,0-.12.8c0,.34.09.5.31.5s.9-.58.9-1.34c0-.26.11-.35.32-.35s.17.06.17.15a2.78,2.78,0,0,1-.68,1.64,1.31,1.31,0,0,1-2-.5,2.39,2.39,0,0,1-1.64.78,1.84,1.84,0,0,1-1.87-2c0-1.81,1.43-3.66,3.17-3.66a1.36,1.36,0,0,1,1.19.65.53.53,0,0,1,.57-.41.43.43,0,0,1,.47.44c0,.09-.1.47-.16.72Zm-1.09,0,.6-2.5a1.36,1.36,0,0,0,0-.2,1.05,1.05,0,0,0-1-.9,1.79,1.79,0,0,0-1.44,1.22,9.82,9.82,0,0,0-.61,2.66c0,.41.13,1.05.79,1.05a1.85,1.85,0,0,0,1.41-.84A.86.86,0,0,0,123.17,290.11Z"/><path class="cls-4" d="M128.65,293.2a4.29,4.29,0,0,1-1.56,1.47c-.12,0-.23-.06-.23-.19s0-.09.18-.25A7.61,7.61,0,0,0,129,288.7a8,8,0,0,0-1.86-5.48c-.14-.15-.23-.26-.23-.31a.21.21,0,0,1,.23-.19,5,5,0,0,1,2,2.21,8.21,8.21,0,0,1,.89,3.77A8.32,8.32,0,0,1,128.65,293.2Z"/><path class="cls-4" d="M140.65,286c-.06.22-.06.25-.24.25s-.23,0-.23-.17a4.91,4.91,0,0,0,0-.54,1.68,1.68,0,0,0-1.83-1.82,2,2,0,0,0-2.07,1.8c0,1.09,1.27,1.17,1.82,1.3.89.21,2.09.42,2.09,2a3.26,3.26,0,0,1-3.24,3.11,3.07,3.07,0,0,1-2.18-.77c-.5.45-.75.77-.86.77a.16.16,0,0,1-.18-.15c.24-.84.44-1.69.63-2.54,0-.22.09-.26.26-.26s.22,0,.22.15-.09.43-.09.66c0,1.4,1.5,1.68,2.23,1.68a2.14,2.14,0,0,0,2.14-2,1.14,1.14,0,0,0-.86-1.13c-1.59-.45-2.09-.46-2.53-.88a1.76,1.76,0,0,1-.52-1.31,3.11,3.11,0,0,1,3.15-2.88,2.25,2.25,0,0,1,1.85.78c.62-.68.78-.78.85-.78a.17.17,0,0,1,.18.16,1.22,1.22,0,0,1,0,.22Z"/><path class="cls-4" d="M144.21,291.5a1.32,1.32,0,0,1-.88.32,1.11,1.11,0,0,1-1.2-1.07,2,2,0,0,1,.18-.7l.72-1.9a5,5,0,0,0,.37-1.3c0-.31-.13-.31-.25-.31-.4,0-.92.39-1.23,1.49,0,.16-.09.2-.24.2s-.23,0-.23-.17.54-1.93,1.76-1.93a1.11,1.11,0,0,1,1.18,1.09,11.1,11.1,0,0,1-.7,2.13,5.73,5.73,0,0,0-.56,1.76c0,.27.11.31.27.31.36,0,.89-.32,1.21-1.5,0-.16.09-.18.24-.18s.21,0,.21.16A2.82,2.82,0,0,1,144.21,291.5Zm-.13-6.95a.52.52,0,0,1-.54-.53.81.81,0,0,1,.77-.76.53.53,0,0,1,.55.53A.81.81,0,0,1,144.08,284.55Z"/><path class="cls-4" d="M148.78,286.51a1.2,1.2,0,0,0-1.35,1c0,.31.21.49.58.6s2.13.14,2.13,1.63c0,.47-.38,2-2.59,2-1.13,0-1.92-.42-1.92-1.23a.81.81,0,0,1,.77-.88.48.48,0,0,1,.51.5.79.79,0,0,1-.68.78,1.66,1.66,0,0,0,1.33.45c1.62,0,1.76-1.06,1.76-1.26,0-.51-.46-.69-1.12-.83-1-.22-1.59-.47-1.59-1.35a2,2,0,0,1,.66-1.37,2.36,2.36,0,0,1,1.53-.5c1,0,1.59.46,1.59,1.1a.7.7,0,0,1-.65.77.43.43,0,0,1-.44-.44.66.66,0,0,1,.53-.64A1.34,1.34,0,0,0,148.78,286.51Z"/><path class="cls-4" d="M152.72,290.35a2.32,2.32,0,0,0-.07.59c0,.43.14.47.32.47.53,0,1.15-.46,1.56-1.45.09-.2.1-.22.27-.22s.21,0,.21.16a3.08,3.08,0,0,1-1.09,1.6,1.69,1.69,0,0,1-1,.32,1.19,1.19,0,0,1-1.3-1.18,2.67,2.67,0,0,1,.09-.59l.78-3.32h-1c-.21,0-.38,0-.38-.2s.18-.28.41-.28h1.11l.48-2a.55.55,0,0,1,.61-.46.44.44,0,0,1,.46.45,3.29,3.29,0,0,1-.07.42l-.39,1.58h1c.21,0,.36,0,.36.18s-.14.3-.33.3h-1.17Z"/><path class="cls-4" d="M157.08,288.93a3.65,3.65,0,0,0-.16,1.16c0,.71.26,1.35,1.13,1.35a3.24,3.24,0,0,0,2.47-1.06c.11-.13.12-.16.18-.16s.24.17.24.25a2.35,2.35,0,0,1-1.24,1,4.56,4.56,0,0,1-1.69.32,2.09,2.09,0,0,1-2.23-2.26,3.44,3.44,0,0,1,3.46-3.43c.85,0,1.49.42,1.49,1.15,0,.41-.2,1.06-1.25,1.43a7.3,7.3,0,0,1-2.13.22Zm3.07-1.65a.81.81,0,0,0-.91-.77c-.38,0-1.55.1-2.06,2C158.34,288.54,160.15,288.54,160.15,287.28Z"/><path class="cls-4" d="M166.63,288.21a5,5,0,0,0,.13-.89c0-.41-.16-.81-.64-.81a2.6,2.6,0,0,0-2,1.56l-.66,2.77c-.13.57-.19,1-.72,1a.44.44,0,0,1-.48-.45,1.2,1.2,0,0,1,0-.29l.64-2.71a6,6,0,0,0,.27-1.33c0-.26,0-.53-.33-.53s-.63.45-.85,1.36c-.08.35-.09.36-.23.36s-.27,0-.27-.17.41-1.93,1.4-1.93a1.29,1.29,0,0,1,1.33,1,2.7,2.7,0,0,1,1.93-1,1.51,1.51,0,0,1,1.6,1.14,2.81,2.81,0,0,1,2-1.14c.75,0,1.6.29,1.6,1.42a10.56,10.56,0,0,1-.73,2.66,2.6,2.6,0,0,0-.23.89c0,.32.17.32.26.32.31,0,.88-.28,1.23-1.5.05-.16.1-.18.24-.18s.22,0,.22.16a.13.13,0,0,1,0,.08,3,3,0,0,1-.76,1.46,1.43,1.43,0,0,1-1,.38,1.11,1.11,0,0,1-1.2-1.07,1.83,1.83,0,0,1,.18-.7,11.43,11.43,0,0,0,.73-2.73c0-.41-.14-.81-.62-.81-1.48,0-2,1.68-2.06,1.74l-.68,2.89c-.13.54-.38.68-.68.68a.42.42,0,0,1-.45-.45s0-.15.08-.37Z"/><path class="cls-4" d="M177.48,290.14a3.44,3.44,0,0,0-.12.8c0,.34.09.5.31.5.37,0,.9-.58.9-1.34,0-.26.11-.35.32-.35s.17.06.17.15a2.78,2.78,0,0,1-.68,1.64,1.29,1.29,0,0,1-.76.28,1.26,1.26,0,0,1-1.25-.78,2.41,2.41,0,0,1-1.64.78,1.84,1.84,0,0,1-1.87-2c0-1.81,1.43-3.66,3.16-3.66a1.36,1.36,0,0,1,1.2.65.53.53,0,0,1,.57-.41.43.43,0,0,1,.47.44c0,.09-.1.47-.16.72Zm-1.1,0,.6-2.5a.69.69,0,0,0,0-.2,1.05,1.05,0,0,0-1-.9,1.79,1.79,0,0,0-1.44,1.22,9.82,9.82,0,0,0-.61,2.66c0,.41.13,1.05.79,1.05a1.85,1.85,0,0,0,1.41-.84A.79.79,0,0,0,176.38,290.11Z"/><path class="cls-4" d="M184.4,291.82a2,2,0,0,1-2.24-2.13,3.64,3.64,0,0,1,3.52-3.56,2.06,2.06,0,0,1,2.25,2.15A3.64,3.64,0,0,1,184.4,291.82Zm1.7-1.5a7,7,0,0,0,.68-2.55,1.13,1.13,0,0,0-1.11-1.26,2,2,0,0,0-1.66,1.1,7,7,0,0,0-.7,2.57c0,1,.62,1.26,1.11,1.26A2,2,0,0,0,186.1,290.32Z"/><path class="cls-4" d="M192.68,286.51a1.65,1.65,0,0,0-1.28.75,1.24,1.24,0,0,0-.29.48l-.82,3.39c-.14.6-.32.67-.68.67a.4.4,0,0,1-.43-.43,1.7,1.7,0,0,1,0-.35l.74-3a4.65,4.65,0,0,0,.16-1c0-.28-.07-.52-.32-.52s-.6.3-.79,1.13l-.08.36c-.06.24-.1.23-.26.23s-.22,0-.22-.17a4.85,4.85,0,0,1,.4-1.25,1.12,1.12,0,0,1,1-.68,1.32,1.32,0,0,1,1.27.85,2.08,2.08,0,0,1,1.58-.85,1,1,0,0,1,1.09,1,.81.81,0,0,1-.75.87.51.51,0,0,1-.54-.52.8.8,0,0,1,.67-.77A.67.67,0,0,0,192.68,286.51Z"/><path class="cls-4" d="M196.86,291.5a1.35,1.35,0,0,1-.89.32,1.12,1.12,0,0,1-1.2-1.07,2.19,2.19,0,0,1,.18-.7l.72-1.9a5,5,0,0,0,.37-1.3c0-.31-.13-.31-.25-.31-.4,0-.91.39-1.22,1.49,0,.16-.1.2-.24.2s-.23,0-.23-.17.54-1.93,1.75-1.93a1.12,1.12,0,0,1,1.19,1.09,11.34,11.34,0,0,1-.71,2.13,6,6,0,0,0-.55,1.76c0,.27.11.31.26.31.36,0,.89-.32,1.21-1.5.05-.16.1-.18.24-.18s.22,0,.22.16A2.82,2.82,0,0,1,196.86,291.5Zm-.14-6.95a.52.52,0,0,1-.54-.53.82.82,0,0,1,.77-.76.53.53,0,0,1,.55.53A.81.81,0,0,1,196.72,284.55Z"/><path class="cls-4" d="M202.94,292.51a2.71,2.71,0,0,1-2.84,1.73c-1.07,0-1.77-.3-1.77-1a.73.73,0,0,1,.71-.75.59.59,0,0,1,.58.56.62.62,0,0,1-.41.63,1.59,1.59,0,0,0,.87.2,2,2,0,0,0,1.77-1.36,13.78,13.78,0,0,0,.33-1.34,2.15,2.15,0,0,1-1.38.54,1.85,1.85,0,0,1-1.88-2c0-1.71,1.37-3.58,3.16-3.58a1.34,1.34,0,0,1,1.19.64.61.61,0,0,1,.57-.4.43.43,0,0,1,.47.44.48.48,0,0,1,0,.17Zm.14-5.1,0-.12a1,1,0,0,0-1-.78,1.72,1.72,0,0,0-1.43,1.19,9.74,9.74,0,0,0-.61,2.58c0,.66.31,1.06.81,1.06a1.86,1.86,0,0,0,1.34-.71.76.76,0,0,0,.21-.43Z"/><path class="cls-4" d="M207.5,291.5a1.33,1.33,0,0,1-.89.32,1.12,1.12,0,0,1-1.2-1.07,2.19,2.19,0,0,1,.18-.7l.72-1.9a4.68,4.68,0,0,0,.37-1.3c0-.31-.13-.31-.25-.31-.39,0-.91.39-1.22,1.49-.05.16-.1.2-.24.2s-.23,0-.23-.17.54-1.93,1.75-1.93a1.12,1.12,0,0,1,1.19,1.09,10.63,10.63,0,0,1-.71,2.13,6,6,0,0,0-.55,1.76c0,.27.11.31.26.31.36,0,.89-.32,1.22-1.5,0-.16.09-.18.24-.18s.21,0,.21.16A2.82,2.82,0,0,1,207.5,291.5Zm-.13-6.95a.52.52,0,0,1-.54-.53.81.81,0,0,1,.77-.76.53.53,0,0,1,.55.53A.82.82,0,0,1,207.37,284.55Z"/><path class="cls-4" d="M213.56,286.13c.75,0,1.61.29,1.61,1.42a10.57,10.57,0,0,1-.74,2.66,3,3,0,0,0-.22.91c0,.32.16.32.25.32.31,0,.89-.3,1.23-1.52.05-.16.1-.18.24-.18s.22,0,.22.16a.25.25,0,0,1,0,.08,3.06,3.06,0,0,1-.88,1.54,1.33,1.33,0,0,1-.85.3,1.11,1.11,0,0,1-1.2-1.07,1.83,1.83,0,0,1,.18-.7,11.43,11.43,0,0,0,.73-2.73c0-.41-.14-.81-.62-.81a1.89,1.89,0,0,0-1.26.52,3.9,3.9,0,0,0-.76,1l-.67,2.82c-.14.61-.19.94-.73.94-.34,0-.44-.23-.44-.48a4.69,4.69,0,0,1,.13-.63l.65-2.73a4.94,4.94,0,0,0,.16-.94c0-.26,0-.51-.32-.53s-.6.38-.85,1.36c-.06.23,0,.36-.28.36-.09,0-.22,0-.22-.17a4.77,4.77,0,0,1,.4-1.22,1.14,1.14,0,0,1,1-.71,1.28,1.28,0,0,1,1.32,1A2.68,2.68,0,0,1,213.56,286.13Z"/><path class="cls-4" d="M221.24,290.14a4.08,4.08,0,0,0-.12.8c0,.34.09.5.31.5.37,0,.9-.58.9-1.34,0-.26.11-.35.32-.35s.17.06.17.15a2.72,2.72,0,0,1-.68,1.64,1.3,1.3,0,0,1-2-.5,2.44,2.44,0,0,1-1.65.78,1.84,1.84,0,0,1-1.87-2c0-1.81,1.43-3.66,3.17-3.66a1.39,1.39,0,0,1,1.2.65.51.51,0,0,1,.56-.41.43.43,0,0,1,.47.44c0,.09-.1.47-.16.72Zm-1.09,0,.6-2.5a1.36,1.36,0,0,0,0-.2,1,1,0,0,0-1-.9,1.79,1.79,0,0,0-1.44,1.22,9.82,9.82,0,0,0-.61,2.66c0,.41.13,1.05.79,1.05a1.87,1.87,0,0,0,1.42-.84A.92.92,0,0,0,220.15,290.11Z"/><path class="cls-4" d="M224.55,290.39a1.85,1.85,0,0,0-.06.55c0,.36.09.5.3.5.39,0,.64-.44.85-1.34.05-.23.06-.36.27-.36s.23,0,.23.16a4.91,4.91,0,0,1-.41,1.29,1.07,1.07,0,0,1-1,.63,1.22,1.22,0,0,1-1.31-1.18,2.33,2.33,0,0,1,0-.46l1.42-5.88a1,1,0,0,0,.06-.38c0-.1-.29-.12-.54-.12s-.31,0-.31-.19.18-.3.31-.3c.85,0,1.18-.12,1.54-.12.12,0,.25.06.25.21a.88.88,0,0,1-.05.25Z"/><path class="cls-4" d="M334.21,294.47c0,.14-.11.19-.23.19a5,5,0,0,1-2-2.22,8.26,8.26,0,0,1-.87-3.74,8,8,0,0,1,.88-3.77c.6-1.09,1.59-2.21,2-2.21.12,0,.23,0,.23.19s0,.08-.2.26a7.64,7.64,0,0,0-1.89,5.53,10.2,10.2,0,0,0,.47,3.13,5.58,5.58,0,0,0,1.47,2.42C334.18,294.36,334.21,294.39,334.21,294.47Z"/><path class="cls-4" d="M337.48,286.69a2.28,2.28,0,0,1,1.37-.56,1.86,1.86,0,0,1,1.88,2.05c0,1.75-1.39,3.64-3.17,3.64a1.79,1.79,0,0,1-1.83-2,4.54,4.54,0,0,1,.17-1.11l1-4c.06-.25.18-.71.18-.81s-.19-.12-.54-.12c-.13,0-.31,0-.31-.19s.17-.3.31-.3c.68,0,1.19-.12,1.53-.12a.2.2,0,0,1,.22.21l0,.24Zm1.48,3.6a9.57,9.57,0,0,0,.65-2.71c0-.44-.15-1.07-.8-1.07a2.08,2.08,0,0,0-1.52,1l-.38,1.59a5.21,5.21,0,0,0-.21,1.21c0,.69.32,1.15.87,1.15C337.93,291.44,338.53,291.19,339,290.29Z"/><path class="cls-4" d="M343.82,293.2a4.29,4.29,0,0,1-1.56,1.47c-.12,0-.23-.06-.23-.19s0-.09.18-.25a7.61,7.61,0,0,0,1.91-5.53,8,8,0,0,0-1.86-5.48c-.14-.15-.23-.26-.23-.31a.21.21,0,0,1,.23-.19,5,5,0,0,1,2,2.21,8.21,8.21,0,0,1,.89,3.77A8.32,8.32,0,0,1,343.82,293.2Z"/><path class="cls-4" d="M355.82,286c-.06.22-.06.25-.24.25s-.23,0-.23-.17,0-.24,0-.54a1.67,1.67,0,0,0-1.82-1.82,2,2,0,0,0-2.07,1.8c0,1.09,1.27,1.17,1.82,1.3.89.21,2.09.42,2.09,2a3.26,3.26,0,0,1-3.24,3.11,3.1,3.1,0,0,1-2.19-.77c-.49.45-.74.77-.85.77a.16.16,0,0,1-.18-.15c.24-.84.44-1.69.63-2.54.05-.22.09-.26.26-.26s.22,0,.22.15-.09.43-.09.66c0,1.4,1.5,1.68,2.23,1.68a2.14,2.14,0,0,0,2.14-2,1.14,1.14,0,0,0-.86-1.13c-1.59-.45-2.09-.46-2.54-.88a1.79,1.79,0,0,1-.51-1.31,3.11,3.11,0,0,1,3.15-2.88,2.26,2.26,0,0,1,1.85.78c.62-.68.78-.78.85-.78a.17.17,0,0,1,.18.16,1.22,1.22,0,0,1,0,.22Z"/><path class="cls-4" d="M359.38,291.5a1.33,1.33,0,0,1-.89.32,1.11,1.11,0,0,1-1.19-1.07,2.17,2.17,0,0,1,.17-.7l.72-1.9a4.72,4.72,0,0,0,.38-1.3c0-.31-.14-.31-.26-.31-.39,0-.91.39-1.22,1.49,0,.16-.09.2-.24.2s-.23,0-.23-.17.54-1.93,1.75-1.93a1.11,1.11,0,0,1,1.19,1.09,10.63,10.63,0,0,1-.71,2.13,6,6,0,0,0-.55,1.76c0,.27.11.31.27.31.36,0,.88-.32,1.21-1.5.05-.16.09-.18.24-.18s.21,0,.21.16A2.82,2.82,0,0,1,359.38,291.5Zm-.13-6.95a.52.52,0,0,1-.54-.53.81.81,0,0,1,.77-.76.53.53,0,0,1,.55.53A.81.81,0,0,1,359.25,284.55Z"/><path class="cls-4" d="M364,286.51a1.2,1.2,0,0,0-1.35,1c0,.31.21.49.57.6s2.14.14,2.14,1.63c0,.47-.38,2-2.59,2-1.13,0-1.92-.42-1.92-1.23a.81.81,0,0,1,.77-.88.48.48,0,0,1,.51.5.79.79,0,0,1-.68.78,1.66,1.66,0,0,0,1.33.45c1.62,0,1.76-1.06,1.76-1.26,0-.51-.46-.69-1.12-.83-1-.22-1.59-.47-1.59-1.35a2,2,0,0,1,.66-1.37,2.35,2.35,0,0,1,1.53-.5c1,0,1.59.46,1.59,1.1a.7.7,0,0,1-.65.77.43.43,0,0,1-.44-.44.66.66,0,0,1,.53-.64A1.34,1.34,0,0,0,364,286.51Z"/><path class="cls-4" d="M367.89,290.35a2.32,2.32,0,0,0-.07.59c0,.43.14.47.32.47.53,0,1.15-.46,1.56-1.45.09-.2.1-.22.27-.22s.21,0,.21.16a3.08,3.08,0,0,1-1.09,1.6,1.69,1.69,0,0,1-1,.32,1.2,1.2,0,0,1-1.31-1.18,2.9,2.9,0,0,1,.1-.59l.78-3.32h-1c-.21,0-.38,0-.38-.2s.18-.28.41-.28h1.11l.48-2a.55.55,0,0,1,.61-.46.44.44,0,0,1,.46.45,3.29,3.29,0,0,1-.07.42l-.39,1.58h1c.21,0,.36,0,.36.18s-.14.3-.33.3h-1.17Z"/><path class="cls-4" d="M372.25,288.93a3.65,3.65,0,0,0-.16,1.16c0,.71.26,1.35,1.13,1.35a3.24,3.24,0,0,0,2.47-1.06c.11-.13.12-.16.18-.16s.24.17.24.25a2.35,2.35,0,0,1-1.24,1,4.56,4.56,0,0,1-1.69.32,2.09,2.09,0,0,1-2.23-2.26,3.44,3.44,0,0,1,3.46-3.43c.85,0,1.49.42,1.49,1.15,0,.41-.2,1.06-1.26,1.43a7.2,7.2,0,0,1-2.12.22Zm3.07-1.65a.81.81,0,0,0-.91-.77c-.38,0-1.55.1-2.06,2C373.51,288.54,375.32,288.54,375.32,287.28Z"/><path class="cls-4" d="M381.8,288.21a5,5,0,0,0,.13-.89c0-.41-.16-.81-.64-.81a2.6,2.6,0,0,0-2,1.56l-.66,2.77c-.14.57-.2,1-.72,1a.44.44,0,0,1-.48-.45,1.48,1.48,0,0,1,0-.29l.65-2.71a6.64,6.64,0,0,0,.27-1.33c0-.26-.05-.53-.33-.53s-.63.45-.85,1.36c-.08.35-.09.36-.23.36s-.27,0-.27-.17.41-1.93,1.4-1.93a1.3,1.3,0,0,1,1.33,1,2.7,2.7,0,0,1,1.93-1,1.51,1.51,0,0,1,1.6,1.14,2.81,2.81,0,0,1,2-1.14c.76,0,1.61.29,1.61,1.42a10.56,10.56,0,0,1-.73,2.66,2.6,2.6,0,0,0-.23.89c0,.32.17.32.25.32.32,0,.89-.28,1.24-1.5.05-.16.1-.18.24-.18s.22,0,.22.16a.13.13,0,0,1,0,.08,3,3,0,0,1-.76,1.46,1.43,1.43,0,0,1-1,.38,1.11,1.11,0,0,1-1.2-1.07,1.83,1.83,0,0,1,.18-.7,11.43,11.43,0,0,0,.73-2.73c0-.41-.15-.81-.63-.81-1.47,0-2,1.68-2.05,1.74l-.68,2.89c-.13.54-.38.68-.68.68a.42.42,0,0,1-.45-.45s0-.15.07-.37Z"/><path class="cls-4" d="M392.64,290.14a4.08,4.08,0,0,0-.12.8c0,.34.1.5.32.5.37,0,.9-.58.9-1.34,0-.26.1-.35.32-.35s.17.06.17.15a2.74,2.74,0,0,1-.69,1.64,1.23,1.23,0,0,1-.75.28,1.26,1.26,0,0,1-1.25-.78,2.41,2.41,0,0,1-1.64.78,1.84,1.84,0,0,1-1.87-2c0-1.81,1.42-3.66,3.16-3.66a1.36,1.36,0,0,1,1.2.65.52.52,0,0,1,.57-.41.42.42,0,0,1,.46.44,6.71,6.71,0,0,1-.15.72Zm-1.09,0,.6-2.5a1.38,1.38,0,0,0,0-.2,1.05,1.05,0,0,0-1-.9,1.79,1.79,0,0,0-1.44,1.22,9.83,9.83,0,0,0-.62,2.66c0,.41.14,1.05.8,1.05a1.85,1.85,0,0,0,1.41-.84A.79.79,0,0,0,391.55,290.11Z"/><path class="cls-4" d="M400.79,286.51c-1.64,0-2.37,2.46-2.37,3.67,0,.83.42,1.24,1.15,1.24a3.24,3.24,0,0,0,2.48-1c.11-.13.12-.16.18-.16s.24.17.24.25a2.12,2.12,0,0,1-1,.88,3.87,3.87,0,0,1-2,.47,2,2,0,0,1-2.28-2.13,3.65,3.65,0,0,1,3.51-3.56c1,0,1.57.47,1.57,1.13a.84.84,0,0,1-.77.89.51.51,0,0,1-.52-.52.84.84,0,0,1,.67-.78A1.33,1.33,0,0,0,400.79,286.51Z"/><path class="cls-4" d="M405.22,291.82a2,2,0,0,1-2.24-2.13,3.65,3.65,0,0,1,3.53-3.56,2.06,2.06,0,0,1,2.24,2.15A3.64,3.64,0,0,1,405.22,291.82Zm1.71-1.5a7,7,0,0,0,.67-2.55,1.13,1.13,0,0,0-1.11-1.26,2,2,0,0,0-1.66,1.1,7,7,0,0,0-.7,2.57c0,1,.62,1.26,1.12,1.26A2,2,0,0,0,406.93,290.32Z"/><path class="cls-4" d="M413.87,286.13c.76,0,1.61.29,1.61,1.42a11,11,0,0,1-.73,2.66,2.71,2.71,0,0,0-.23.91c0,.32.17.32.25.32.31,0,.89-.3,1.24-1.52.05-.16.09-.18.24-.18s.21,0,.21.16a.25.25,0,0,1,0,.08,3.1,3.1,0,0,1-.87,1.54,1.34,1.34,0,0,1-.86.3,1.11,1.11,0,0,1-1.2-1.07,1.83,1.83,0,0,1,.18-.7,11.42,11.42,0,0,0,.74-2.73c0-.41-.15-.81-.63-.81a1.89,1.89,0,0,0-1.26.52,3.56,3.56,0,0,0-.75,1l-.67,2.82c-.15.61-.2.94-.74.94-.33,0-.44-.23-.44-.48a4.69,4.69,0,0,1,.13-.63l.65-2.73a4.38,4.38,0,0,0,.17-.94c0-.26,0-.51-.33-.53s-.6.38-.85,1.36c-.06.23,0,.36-.27.36s-.23,0-.23-.17a4.54,4.54,0,0,1,.41-1.22,1.12,1.12,0,0,1,1-.71,1.28,1.28,0,0,1,1.32,1A2.7,2.7,0,0,1,413.87,286.13Z"/><path class="cls-4" d="M423.05,286.51c-1.64,0-2.37,2.46-2.37,3.67,0,.83.42,1.24,1.15,1.24a3.24,3.24,0,0,0,2.48-1c.11-.13.12-.16.18-.16s.24.17.24.25a2.12,2.12,0,0,1-1,.88,3.87,3.87,0,0,1-2,.47,2,2,0,0,1-2.28-2.13,3.65,3.65,0,0,1,3.51-3.56c.95,0,1.57.47,1.57,1.13a.84.84,0,0,1-.77.89.51.51,0,0,1-.52-.52.84.84,0,0,1,.67-.78A1.33,1.33,0,0,0,423.05,286.51Z"/><path class="cls-4" d="M429.9,290.14a4.08,4.08,0,0,0-.12.8c0,.34.1.5.32.5s.9-.58.9-1.34c0-.26.1-.35.32-.35s.17.06.17.15a2.74,2.74,0,0,1-.69,1.64,1.23,1.23,0,0,1-.75.28,1.26,1.26,0,0,1-1.25-.78,2.41,2.41,0,0,1-1.64.78,1.84,1.84,0,0,1-1.87-2c0-1.81,1.42-3.66,3.16-3.66a1.38,1.38,0,0,1,1.2.65.52.52,0,0,1,.57-.41.42.42,0,0,1,.46.44,6.71,6.71,0,0,1-.15.72Zm-1.09,0,.6-2.5a1.38,1.38,0,0,0,0-.2,1.05,1.05,0,0,0-1-.9,1.78,1.78,0,0,0-1.43,1.22,9.83,9.83,0,0,0-.62,2.66c0,.41.14,1.05.8,1.05a1.87,1.87,0,0,0,1.41-.84A.92.92,0,0,0,428.81,290.11Z"/><path class="cls-4" d="M436.08,286.51a1.69,1.69,0,0,0-1.28.75,1.39,1.39,0,0,0-.29.48l-.81,3.39c-.15.6-.33.67-.69.67a.4.4,0,0,1-.43-.43,1.27,1.27,0,0,1,.05-.35l.73-3a4.19,4.19,0,0,0,.17-1c0-.28-.07-.52-.32-.52s-.6.3-.8,1.13l-.08.36c-.06.24-.1.23-.25.23s-.23,0-.23-.17a5,5,0,0,1,.41-1.25,1.11,1.11,0,0,1,1-.68,1.3,1.3,0,0,1,1.27.85,2.12,2.12,0,0,1,1.59-.85,1,1,0,0,1,1.09,1,.81.81,0,0,1-.76.87.52.52,0,0,1-.54-.52.81.81,0,0,1,.68-.77A.71.71,0,0,0,436.08,286.51Z"/><path class="cls-4" d="M442.2,292.51a2.7,2.7,0,0,1-2.84,1.73c-1.07,0-1.76-.3-1.76-1a.72.72,0,0,1,.71-.75.58.58,0,0,1,.57.56.62.62,0,0,1-.41.63,1.63,1.63,0,0,0,.88.2,2,2,0,0,0,1.76-1.36c.07-.17.24-.9.34-1.34a2.15,2.15,0,0,1-1.38.54,1.84,1.84,0,0,1-1.88-2c0-1.71,1.36-3.58,3.15-3.58a1.37,1.37,0,0,1,1.2.64.6.6,0,0,1,.56-.4.43.43,0,0,1,.47.44.71.71,0,0,1,0,.17Zm.15-5.1,0-.12a1,1,0,0,0-1-.78,1.72,1.72,0,0,0-1.42,1.19,9.39,9.39,0,0,0-.62,2.58c0,.66.31,1.06.82,1.06a1.85,1.85,0,0,0,1.33-.71.72.72,0,0,0,.22-.43Z"/><path class="cls-4" d="M448.78,290.14a4.08,4.08,0,0,0-.12.8c0,.34.1.5.31.5.37,0,.9-.58.9-1.34,0-.26.11-.35.32-.35s.17.06.17.15a2.72,2.72,0,0,1-.68,1.64,1.3,1.3,0,0,1-2-.5,2.44,2.44,0,0,1-1.65.78,1.84,1.84,0,0,1-1.87-2c0-1.81,1.43-3.66,3.17-3.66a1.39,1.39,0,0,1,1.2.65.52.52,0,0,1,.56-.41.43.43,0,0,1,.47.44c0,.09-.1.47-.16.72Zm-1.09,0,.6-2.5a1.36,1.36,0,0,0,0-.2,1,1,0,0,0-1-.9,1.79,1.79,0,0,0-1.44,1.22,9.82,9.82,0,0,0-.61,2.66c0,.41.13,1.05.79,1.05a1.87,1.87,0,0,0,1.42-.84A.92.92,0,0,0,447.69,290.11Z"/><path class="cls-4" d="M456.45,291.82c-1.08,0-1.86-.36-1.86-1.61a8.38,8.38,0,0,1,.73-2.62,2.43,2.43,0,0,0,.17-.74c0-.25-.09-.32-.24-.32-.36,0-.93.38-1.24,1.5,0,.16-.09.2-.24.2s-.22,0-.22-.17a3.09,3.09,0,0,1,.81-1.58,1.4,1.4,0,0,1,.94-.35,1.13,1.13,0,0,1,1.2,1.09,1.78,1.78,0,0,1-.2.72,8.21,8.21,0,0,0-.66,2.47.89.89,0,0,0,.89,1c1.4,0,2.12-2.75,2.12-3.16a1,1,0,0,0-.51-.91.53.53,0,0,1-.28-.46.86.86,0,0,1,.77-.79c.06,0,.68,0,.68,1S458.49,291.82,456.45,291.82Z"/><path class="cls-4" d="M462.82,291.5a1.33,1.33,0,0,1-.89.32,1.12,1.12,0,0,1-1.2-1.07,2.19,2.19,0,0,1,.18-.7l.72-1.9a4.68,4.68,0,0,0,.37-1.3c0-.31-.13-.31-.25-.31-.39,0-.91.39-1.22,1.49,0,.16-.1.2-.24.2s-.23,0-.23-.17.54-1.93,1.75-1.93a1.12,1.12,0,0,1,1.19,1.09,10.63,10.63,0,0,1-.71,2.13,6,6,0,0,0-.55,1.76c0,.27.11.31.26.31.36,0,.89-.32,1.22-1.5,0-.16.09-.18.24-.18s.21,0,.21.16A2.82,2.82,0,0,1,462.82,291.5Zm-.13-6.95a.52.52,0,0,1-.54-.53.81.81,0,0,1,.77-.76.53.53,0,0,1,.55.53A.82.82,0,0,1,462.69,284.55Z"/><path class="cls-4" d="M468.51,286.51a1.69,1.69,0,0,0-1.29.75,1.19,1.19,0,0,0-.28.48l-.82,3.39c-.14.6-.32.67-.68.67a.4.4,0,0,1-.43-.43,1.7,1.7,0,0,1,0-.35l.73-3a4.19,4.19,0,0,0,.17-1c0-.28-.07-.52-.32-.52s-.6.3-.79,1.13l-.09.36c-.06.24-.09.23-.25.23s-.23,0-.23-.17a5,5,0,0,1,.41-1.25,1.12,1.12,0,0,1,1-.68A1.32,1.32,0,0,1,467,287a2.08,2.08,0,0,1,1.58-.85,1,1,0,0,1,1.09,1,.81.81,0,0,1-.75.87.51.51,0,0,1-.54-.52.8.8,0,0,1,.67-.77A.67.67,0,0,0,468.51,286.51Z"/><path class="cls-4" d="M471.88,290.35a2.32,2.32,0,0,0-.07.59c0,.43.14.47.32.47.53,0,1.15-.46,1.56-1.45.08-.2.1-.22.27-.22s.21,0,.21.16a3.08,3.08,0,0,1-1.09,1.6,1.69,1.69,0,0,1-1,.32,1.19,1.19,0,0,1-1.3-1.18,2.67,2.67,0,0,1,.09-.59l.78-3.32h-1c-.22,0-.38,0-.38-.2s.18-.28.4-.28h1.12l.48-2a.55.55,0,0,1,.61-.46.44.44,0,0,1,.46.45,3.29,3.29,0,0,1-.07.42l-.39,1.58h1c.21,0,.36,0,.36.18s-.14.3-.34.3h-1.16Z"/><path class="cls-4" d="M480,290.2a2.85,2.85,0,0,0-.12.74c0,.32.09.5.31.5s.62-.37.86-1.34c.08-.32.13-.35.31-.35s.18.06.18.15a3.22,3.22,0,0,1-.75,1.69.91.91,0,0,1-.66.23,1.3,1.3,0,0,1-1.22-.75,2,2,0,0,1-1.5.75,1.5,1.5,0,0,1-1.71-1.56,7.94,7.94,0,0,1,.73-2.64,2.53,2.53,0,0,0,.17-.77c0-.24-.08-.32-.24-.32-.36,0-.92.37-1.24,1.5-.05.16-.1.2-.24.2s-.23,0-.23-.17a3.25,3.25,0,0,1,.83-1.57,1.4,1.4,0,0,1,.92-.36,1.13,1.13,0,0,1,1.2,1.09,2,2,0,0,1-.16.66,8.44,8.44,0,0,0-.69,2.6c0,.27,0,1,.73,1a1.76,1.76,0,0,0,1.35-.91l.9-3.75c.12-.49.39-.52.61-.52a.42.42,0,0,1,.45.45,2.54,2.54,0,0,1-.09.57Z"/><path class="cls-4" d="M486.61,290.14a4.08,4.08,0,0,0-.12.8c0,.34.1.5.32.5s.9-.58.9-1.34c0-.26.1-.35.32-.35s.17.06.17.15a2.74,2.74,0,0,1-.69,1.64,1.23,1.23,0,0,1-.75.28,1.26,1.26,0,0,1-1.25-.78,2.41,2.41,0,0,1-1.64.78,1.84,1.84,0,0,1-1.87-2c0-1.81,1.42-3.66,3.16-3.66a1.38,1.38,0,0,1,1.2.65.52.52,0,0,1,.57-.41.42.42,0,0,1,.46.44,6.71,6.71,0,0,1-.15.72Zm-1.09,0,.6-2.5a.69.69,0,0,0,0-.2,1.05,1.05,0,0,0-1-.9,1.79,1.79,0,0,0-1.44,1.22,9.83,9.83,0,0,0-.62,2.66c0,.41.14,1.05.8,1.05a1.85,1.85,0,0,0,1.41-.84A.92.92,0,0,0,485.52,290.11Z"/><path class="cls-4" d="M489.93,290.39a1.85,1.85,0,0,0-.06.55c0,.36.08.5.3.5.38,0,.63-.44.85-1.34.05-.23.06-.36.26-.36s.23,0,.23.16a4.91,4.91,0,0,1-.41,1.29,1.05,1.05,0,0,1-1,.63,1.22,1.22,0,0,1-1.32-1.18,1.85,1.85,0,0,1,.06-.46l1.42-5.88a1.22,1.22,0,0,0,.06-.38c0-.1-.29-.12-.54-.12s-.32,0-.32-.19.18-.3.32-.3c.85,0,1.17-.12,1.53-.12.12,0,.25.06.25.21a1.07,1.07,0,0,1,0,.25Z"/><path class="cls-4" d="M78,537.87c0,.14-.11.19-.23.19a5,5,0,0,1-2-2.22,8.26,8.26,0,0,1-.87-3.74,7.89,7.89,0,0,1,.89-3.77c.6-1.09,1.58-2.2,2-2.2.12,0,.23,0,.23.18s0,.08-.19.26a7.62,7.62,0,0,0-1.9,5.53,10.16,10.16,0,0,0,.47,3.13,5.52,5.52,0,0,0,1.47,2.42C78,537.76,78,537.8,78,537.87Z"/><path class="cls-4" d="M82.67,529.92c-1.64,0-2.37,2.46-2.37,3.67,0,.83.42,1.23,1.15,1.23a3.24,3.24,0,0,0,2.48-1c.11-.13.12-.16.18-.16s.24.17.24.26a2.18,2.18,0,0,1-1,.87,3.78,3.78,0,0,1-2,.47,2.05,2.05,0,0,1-2.28-2.12,3.65,3.65,0,0,1,3.52-3.57c1,0,1.57.47,1.57,1.13a.84.84,0,0,1-.77.89.52.52,0,0,1-.53-.52.85.85,0,0,1,.68-.78A1.31,1.31,0,0,0,82.67,529.92Z"/><path class="cls-4" d="M87.27,536.6a4.29,4.29,0,0,1-1.56,1.47c-.12,0-.23-.06-.23-.19s0-.08.18-.25a7.59,7.59,0,0,0,1.91-5.53,8,8,0,0,0-1.86-5.48c-.15-.14-.23-.25-.23-.31s.11-.18.23-.18a5,5,0,0,1,2,2.2,8.21,8.21,0,0,1,.89,3.77A8.3,8.3,0,0,1,87.27,536.6Z"/><path class="cls-4" d="M101.88,534.09c-.1.39,0,.55.37.55h.4c.23,0,.31.08.31.2s-.07.27-.28.27c-.91,0-1,0-1.63,0s-.78,0-1.59,0c-.17,0-.22-.08-.22-.18s.07-.29.25-.29h.39c.34,0,.66,0,.75-.38l1.73-6.9-5,7.5a.43.43,0,0,1-.36.25c-.2,0-.23-.14-.26-.33l-1.27-7.28-1.6,6.41c-.14.57.11.73.71.73.13,0,.3,0,.3.2a.24.24,0,0,1-.26.27c-.78,0-.81,0-1.31,0s-.61,0-1.26,0c-.18,0-.2-.09-.2-.21s.18-.26.31-.26h.2c.47,0,.83-.1,1-.63l1.52-6.09c.09-.35.18-.54-.21-.54H94a.19.19,0,0,1-.21-.2c0-.27.18-.27.4-.27h2c.32,0,.38,0,.44.32l1.14,6.55,4.46-6.61c.17-.25.21-.26.55-.26h1.79c.23,0,.38,0,.38.18s-.14.29-.45.29c-.67,0-.85,0-.93.3Z"/><path class="cls-4" d="M107,535.22a2,2,0,0,1-2.24-2.12,3.65,3.65,0,0,1,3.52-3.57,2.07,2.07,0,0,1,2.25,2.15A3.64,3.64,0,0,1,107,535.22Zm1.7-1.5a7,7,0,0,0,.67-2.54,1.12,1.12,0,0,0-1.1-1.26,2.06,2.06,0,0,0-1.67,1.09,7,7,0,0,0-.69,2.58c0,1,.62,1.26,1.11,1.26A2,2,0,0,0,108.72,533.72Z"/><path class="cls-4" d="M116.09,531.61a4.73,4.73,0,0,0,.13-.89c0-.41-.15-.8-.63-.8a2.6,2.6,0,0,0-2,1.56l-.66,2.77c-.13.56-.19,1-.72,1a.45.45,0,0,1-.48-.44,1.08,1.08,0,0,1,0-.29l.65-2.71a6.51,6.51,0,0,0,.26-1.33c0-.27,0-.53-.32-.53s-.64.44-.86,1.35c-.08.35-.09.36-.22.36s-.28,0-.28-.17.41-1.93,1.4-1.93a1.31,1.31,0,0,1,1.34,1,2.66,2.66,0,0,1,1.93-1,1.5,1.5,0,0,1,1.59,1.14,2.81,2.81,0,0,1,2-1.14c.75,0,1.61.29,1.61,1.42a10.34,10.34,0,0,1-.74,2.66,2.83,2.83,0,0,0-.22.89c0,.32.16.32.25.32.31,0,.89-.27,1.23-1.5,0-.15.1-.18.24-.18s.22,0,.22.16a.25.25,0,0,1,0,.08,3.18,3.18,0,0,1-.77,1.47,1.42,1.42,0,0,1-1,.37,1.11,1.11,0,0,1-1.2-1.07,1.79,1.79,0,0,1,.18-.69,11.64,11.64,0,0,0,.73-2.74c0-.41-.14-.8-.62-.8-1.48,0-2,1.68-2,1.74l-.69,2.89c-.13.54-.38.67-.68.67a.41.41,0,0,1-.44-.44,2.62,2.62,0,0,1,.07-.38Z"/><path class="cls-4" d="M123.7,532.33a4,4,0,0,0-.16,1.16c0,.71.27,1.36,1.13,1.36a3.25,3.25,0,0,0,2.47-1.07c.11-.13.12-.16.18-.16s.24.17.24.26a2.41,2.41,0,0,1-1.23,1,4.61,4.61,0,0,1-1.69.31A2.1,2.1,0,0,1,122.4,533a3.45,3.45,0,0,1,3.46-3.43c.85,0,1.5.42,1.5,1.16,0,.4-.21,1-1.26,1.42a7.23,7.23,0,0,1-2.12.22Zm3.07-1.64c0-.57-.49-.77-.91-.77s-1.55.09-2,2C125,532,126.77,532,126.77,530.69Z"/><path class="cls-4" d="M132.83,529.53c.76,0,1.61.29,1.61,1.42a10.75,10.75,0,0,1-.73,2.66,2.71,2.71,0,0,0-.23.91c0,.33.17.33.25.33.31,0,.89-.3,1.23-1.53,0-.15.1-.18.24-.18s.22,0,.22.16a.25.25,0,0,1,0,.08,3.06,3.06,0,0,1-.88,1.54,1.29,1.29,0,0,1-.85.3,1.11,1.11,0,0,1-1.2-1.07,1.79,1.79,0,0,1,.18-.69,11.64,11.64,0,0,0,.73-2.74c0-.41-.14-.8-.62-.8a1.88,1.88,0,0,0-1.26.51,3.7,3.7,0,0,0-.75,1l-.68,2.82c-.14.62-.19.94-.73.94-.33,0-.44-.23-.44-.48a4.62,4.62,0,0,1,.13-.62l.65-2.74a5,5,0,0,0,.17-.93c0-.27-.05-.52-.33-.53s-.6.37-.85,1.35c-.06.23,0,.36-.28.36s-.22,0-.22-.17a4.9,4.9,0,0,1,.4-1.22,1.16,1.16,0,0,1,1-.71,1.29,1.29,0,0,1,1.32,1A2.68,2.68,0,0,1,132.83,529.53Z"/><path class="cls-4" d="M137.69,533.76a2.69,2.69,0,0,0-.07.58c0,.44.14.47.32.47.53,0,1.15-.45,1.56-1.45.09-.19.1-.22.27-.22s.21,0,.21.16a3.13,3.13,0,0,1-1.09,1.61,1.73,1.73,0,0,1-1,.31,1.19,1.19,0,0,1-1.3-1.18,2.61,2.61,0,0,1,.09-.58l.78-3.33h-1c-.21,0-.38,0-.38-.2s.18-.28.41-.28h1.11l.48-2a.55.55,0,0,1,.61-.45.43.43,0,0,1,.46.44,2.81,2.81,0,0,1-.07.42l-.39,1.58h1c.21,0,.36,0,.36.18s-.14.3-.33.3h-1.17Z"/><path class="cls-4" d="M142.86,535.22a2,2,0,0,1-2.24-2.12,3.65,3.65,0,0,1,3.53-3.57,2.06,2.06,0,0,1,2.24,2.15A3.63,3.63,0,0,1,142.86,535.22Zm1.71-1.5a7,7,0,0,0,.67-2.54,1.13,1.13,0,0,0-1.11-1.26,2,2,0,0,0-1.66,1.09,7,7,0,0,0-.7,2.58c0,1,.62,1.26,1.12,1.26A2,2,0,0,0,144.57,533.72Z"/><path class="cls-4" d="M152.38,534.12a11.31,11.31,0,0,1-.66,2.29,2,2,0,0,1-1.6,1.23c-.56,0-1.23-.31-1.23-.93a.7.7,0,0,1,.69-.78.56.56,0,0,1,.56.55.63.63,0,0,1-.53.67.94.94,0,0,0,.53.12c.64,0,.94-1,1-1.67.13-1,.4-2.67.49-3.25l.39-2.2h-1c-.2,0-.37,0-.37-.21s.17-.27.4-.27h1a7.48,7.48,0,0,1,.6-2.4,1.8,1.8,0,0,1,1.53-.93c.65,0,1.28.4,1.28,1a.65.65,0,0,1-.68.73.54.54,0,0,1-.54-.54.63.63,0,0,1,.48-.67,1,1,0,0,0-.54-.14c-.73,0-.72.75-.88,1.7l-.22,1.25h1.22c.22,0,.38,0,.38.18s-.17.3-.4.3h-1.28C152.85,531.6,152.68,532.56,152.38,534.12Z"/><path class="cls-4" d="M156.8,533.79a1.89,1.89,0,0,0-.06.55c0,.36.08.51.3.51.38,0,.63-.45.85-1.35,0-.22.06-.36.26-.36s.23,0,.23.16a5.05,5.05,0,0,1-.41,1.3,1,1,0,0,1-1,.62,1.21,1.21,0,0,1-1.32-1.18,1.73,1.73,0,0,1,.06-.45l1.41-5.89c.05-.19.09-.31.06-.37s-.28-.12-.54-.12-.31,0-.31-.19.18-.3.31-.3c.86,0,1.18-.12,1.54-.12.12,0,.25.06.25.2a.82.82,0,0,1,0,.25Z"/><path class="cls-4" d="M160.65,532.33a3.69,3.69,0,0,0-.16,1.16c0,.71.27,1.36,1.13,1.36a3.25,3.25,0,0,0,2.47-1.07c.11-.13.12-.16.18-.16s.24.17.24.26a2.4,2.4,0,0,1-1.24,1,4.54,4.54,0,0,1-1.69.31,2.09,2.09,0,0,1-2.23-2.26,3.45,3.45,0,0,1,3.46-3.43c.85,0,1.5.42,1.5,1.16,0,.4-.21,1-1.26,1.42a7.3,7.3,0,0,1-2.13.22Zm3.07-1.64c0-.57-.49-.77-.91-.77s-1.55.09-2.05,2C161.91,532,163.72,532,163.72,530.69Z"/><path class="cls-4" d="M168.67,529.92c-1.64,0-2.37,2.46-2.37,3.67,0,.83.42,1.23,1.15,1.23a3.24,3.24,0,0,0,2.48-1c.11-.13.12-.16.18-.16s.24.17.24.26a2.18,2.18,0,0,1-1,.87,3.77,3.77,0,0,1-2,.47,2,2,0,0,1-2.28-2.12,3.65,3.65,0,0,1,3.51-3.57c1,0,1.57.47,1.57,1.13a.83.83,0,0,1-.76.89.51.51,0,0,1-.53-.52.84.84,0,0,1,.67-.78A1.3,1.3,0,0,0,168.67,529.92Z"/><path class="cls-4" d="M172.71,533.76a2.12,2.12,0,0,0-.08.58c0,.44.15.47.33.47.53,0,1.15-.45,1.56-1.45.08-.19.09-.22.26-.22s.22,0,.22.16a3.13,3.13,0,0,1-1.09,1.61,1.75,1.75,0,0,1-1,.31,1.2,1.2,0,0,1-1.31-1.18,2.26,2.26,0,0,1,.1-.58l.78-3.33h-1c-.22,0-.39,0-.39-.2s.18-.28.41-.28h1.12l.48-2a.54.54,0,0,1,.61-.45.42.42,0,0,1,.45.44,1.92,1.92,0,0,1-.07.42l-.38,1.58h1c.2,0,.36,0,.36.18s-.15.3-.34.3h-1.16Z"/><path class="cls-4" d="M177.88,535.22a2,2,0,0,1-2.24-2.12,3.65,3.65,0,0,1,3.52-3.57,2.06,2.06,0,0,1,2.24,2.15A3.63,3.63,0,0,1,177.88,535.22Zm1.7-1.5a7,7,0,0,0,.67-2.54,1.12,1.12,0,0,0-1.1-1.26,2.06,2.06,0,0,0-1.67,1.09,7,7,0,0,0-.69,2.58c0,1,.62,1.26,1.11,1.26A2,2,0,0,0,179.58,533.72Z"/><path class="cls-4" d="M186.16,529.92a1.68,1.68,0,0,0-1.29.74,1.25,1.25,0,0,0-.28.48l-.82,3.4c-.14.6-.32.67-.68.67a.4.4,0,0,1-.43-.43,1.63,1.63,0,0,1,0-.35l.73-3a4.25,4.25,0,0,0,.17-1c0-.27-.07-.51-.32-.51s-.6.3-.79,1.13l-.09.36c-.06.24-.09.22-.25.22s-.23,0-.23-.17a5.14,5.14,0,0,1,.41-1.24,1.13,1.13,0,0,1,1-.69,1.32,1.32,0,0,1,1.27.86,2.06,2.06,0,0,1,1.58-.86,1,1,0,0,1,1.09,1,.8.8,0,0,1-.75.86.51.51,0,0,1-.54-.52.78.78,0,0,1,.67-.76A.7.7,0,0,0,186.16,529.92Z"/><path class="cls-4" d="M193.85,529.92c-1.64,0-2.38,2.46-2.38,3.67,0,.83.42,1.23,1.16,1.23a3.24,3.24,0,0,0,2.48-1c.11-.13.12-.16.18-.16s.24.17.24.26a2.18,2.18,0,0,1-1,.87,3.81,3.81,0,0,1-2,.47,2.05,2.05,0,0,1-2.28-2.12,3.65,3.65,0,0,1,3.52-3.57c.94,0,1.57.47,1.57,1.13a.84.84,0,0,1-.77.89.52.52,0,0,1-.53-.52.85.85,0,0,1,.67-.78A1.29,1.29,0,0,0,193.85,529.92Z"/><path class="cls-4" d="M200.7,533.54a4.08,4.08,0,0,0-.12.8c0,.34.1.51.31.51.37,0,.9-.59.9-1.35,0-.26.11-.34.33-.34s.16.06.16.14a2.7,2.7,0,0,1-.68,1.64,1.23,1.23,0,0,1-.75.28,1.26,1.26,0,0,1-1.25-.78,2.38,2.38,0,0,1-1.65.78,1.84,1.84,0,0,1-1.87-2c0-1.81,1.43-3.66,3.17-3.66a1.39,1.39,0,0,1,1.2.65.52.52,0,0,1,.56-.41.44.44,0,0,1,.47.45c0,.08-.1.47-.16.72Zm-1.09,0,.6-2.51a1.23,1.23,0,0,0,0-.19,1,1,0,0,0-1-.9,1.77,1.77,0,0,0-1.44,1.21,9.91,9.91,0,0,0-.61,2.66c0,.41.13,1.06.79,1.06a1.9,1.9,0,0,0,1.42-.84A1,1,0,0,0,199.61,533.52Z"/><path class="cls-4" d="M206.88,529.92a1.66,1.66,0,0,0-1.28.74,1.48,1.48,0,0,0-.29.48l-.82,3.4c-.14.6-.32.67-.68.67a.4.4,0,0,1-.43-.43,1.22,1.22,0,0,1,.05-.35l.73-3a4.25,4.25,0,0,0,.17-1c0-.27-.08-.51-.33-.51s-.6.3-.79,1.13l-.08.36c-.06.24-.1.22-.25.22s-.23,0-.23-.17a4.7,4.7,0,0,1,.41-1.24,1.12,1.12,0,0,1,1-.69,1.31,1.31,0,0,1,1.27.86,2.08,2.08,0,0,1,1.58-.86,1,1,0,0,1,1.1,1,.81.81,0,0,1-.76.86.51.51,0,0,1-.54-.52.78.78,0,0,1,.67-.76A.67.67,0,0,0,206.88,529.92Z"/><path class="cls-4" d="M213,535.92a2.71,2.71,0,0,1-2.84,1.72c-1.07,0-1.77-.3-1.77-1a.73.73,0,0,1,.71-.75.59.59,0,0,1,.58.56.64.64,0,0,1-.41.64,1.6,1.6,0,0,0,.88.19,2,2,0,0,0,1.76-1.35,13.38,13.38,0,0,0,.33-1.35,2.1,2.1,0,0,1-1.37.54,1.85,1.85,0,0,1-1.89-2c0-1.7,1.37-3.58,3.16-3.58a1.37,1.37,0,0,1,1.2.64.58.58,0,0,1,.56-.4.44.44,0,0,1,.47.45.55.55,0,0,1,0,.17Zm.14-5.1,0-.12a1,1,0,0,0-1-.78,1.72,1.72,0,0,0-1.43,1.19,9.58,9.58,0,0,0-.61,2.57c0,.66.31,1.06.82,1.06a1.86,1.86,0,0,0,1.33-.71.76.76,0,0,0,.21-.43Z"/><path class="cls-4" d="M219.58,533.54a3.44,3.44,0,0,0-.12.8c0,.34.09.51.31.51s.9-.59.9-1.35c0-.26.11-.34.32-.34s.17.06.17.14a2.76,2.76,0,0,1-.68,1.64,1.31,1.31,0,0,1-2-.5,2.37,2.37,0,0,1-1.64.78,1.83,1.83,0,0,1-1.87-2c0-1.81,1.43-3.66,3.17-3.66a1.36,1.36,0,0,1,1.19.65.53.53,0,0,1,.57-.41.44.44,0,0,1,.47.45c0,.08-.1.47-.16.72Zm-1.1,0,.6-2.51a.63.63,0,0,0,0-.19,1,1,0,0,0-1-.9,1.77,1.77,0,0,0-1.44,1.21,9.91,9.91,0,0,0-.61,2.66c0,.41.13,1.06.79,1.06a1.88,1.88,0,0,0,1.41-.84A.83.83,0,0,0,218.48,533.52Z"/><path class="cls-4" d="M228.46,529.92a1.68,1.68,0,0,0-1.29.74,1.25,1.25,0,0,0-.28.48l-.82,3.4c-.14.6-.32.67-.68.67a.41.41,0,0,1-.44-.43,1.72,1.72,0,0,1,.05-.35l.73-3a4.25,4.25,0,0,0,.17-1c0-.27-.07-.51-.32-.51s-.6.3-.79,1.13l-.09.36c-.06.24-.09.22-.25.22s-.23,0-.23-.17a5.14,5.14,0,0,1,.41-1.24,1.13,1.13,0,0,1,1-.69,1.32,1.32,0,0,1,1.27.86,2.06,2.06,0,0,1,1.58-.86,1,1,0,0,1,1.09,1,.8.8,0,0,1-.75.86.51.51,0,0,1-.54-.52.78.78,0,0,1,.67-.76A.7.7,0,0,0,228.46,529.92Z"/><path class="cls-4" d="M231.41,532.33a4,4,0,0,0-.16,1.16c0,.71.27,1.36,1.13,1.36a3.25,3.25,0,0,0,2.47-1.07c.11-.13.12-.16.18-.16s.24.17.24.26a2.41,2.41,0,0,1-1.23,1,4.61,4.61,0,0,1-1.69.31,2.1,2.1,0,0,1-2.24-2.26,3.45,3.45,0,0,1,3.46-3.43c.85,0,1.5.42,1.5,1.16,0,.4-.21,1-1.26,1.42a7.23,7.23,0,0,1-2.12.22Zm3.07-1.64c0-.57-.49-.77-.91-.77s-1.55.09-2,2C232.67,532,234.48,532,234.48,530.69Z"/><path class="cls-4" d="M240.64,533.54a3.44,3.44,0,0,0-.12.8c0,.34.09.51.31.51s.9-.59.9-1.35c0-.26.11-.34.32-.34s.17.06.17.14a2.76,2.76,0,0,1-.68,1.64,1.31,1.31,0,0,1-2-.5,2.37,2.37,0,0,1-1.64.78,1.83,1.83,0,0,1-1.87-2c0-1.81,1.43-3.66,3.16-3.66a1.36,1.36,0,0,1,1.2.65.53.53,0,0,1,.57-.41.44.44,0,0,1,.47.45c0,.08-.1.47-.16.72Zm-1.1,0,.6-2.51a.63.63,0,0,0,0-.19,1,1,0,0,0-1-.9,1.77,1.77,0,0,0-1.44,1.21,9.91,9.91,0,0,0-.61,2.66c0,.41.13,1.06.79,1.06a1.88,1.88,0,0,0,1.41-.84A.83.83,0,0,0,239.54,533.52Z"/><path class="cls-4" d="M244,533.79a1.89,1.89,0,0,0-.06.55c0,.36.08.51.3.51.38,0,.63-.45.85-1.35.05-.22.06-.36.27-.36s.22,0,.22.16a4.89,4.89,0,0,1-.4,1.3,1.07,1.07,0,0,1-1,.62,1.22,1.22,0,0,1-1.32-1.18,1.73,1.73,0,0,1,.06-.45l1.42-5.89a.9.9,0,0,0,.06-.37c0-.11-.29-.12-.54-.12s-.31,0-.31-.19.18-.3.31-.3c.85,0,1.17-.12,1.53-.12.12,0,.25.06.25.2a1,1,0,0,1,0,.25Z"/><path class="cls-4" d="M329.07,537.87c0,.14-.11.19-.23.19a4.91,4.91,0,0,1-2-2.22,8.27,8.27,0,0,1-.88-3.74,8,8,0,0,1,.89-3.77c.6-1.09,1.58-2.2,2-2.2.12,0,.23,0,.23.18s0,.08-.19.26a7.62,7.62,0,0,0-1.9,5.53,10.47,10.47,0,0,0,.47,3.13,5.43,5.43,0,0,0,1.48,2.42C329.05,537.76,329.07,537.8,329.07,537.87Z"/><path class="cls-4" d="M335,533.79a2.64,2.64,0,0,0-.07.55c0,.34.12.51.33.51s.6-.31.85-1.35l.05-.2c0-.13.09-.16.23-.16s.22,0,.22.16a4.88,4.88,0,0,1-.41,1.28,1,1,0,0,1-1,.64,1.27,1.27,0,0,1-1.24-.78,2.38,2.38,0,0,1-1.65.78,1.83,1.83,0,0,1-1.87-2c0-1.81,1.43-3.66,3.17-3.66a1.31,1.31,0,0,1,1.16.62l.53-2.2a5.85,5.85,0,0,0,.13-.62c0-.11-.18-.12-.53-.12-.14,0-.31,0-.31-.19s.17-.3.31-.3c.74,0,1.18-.12,1.53-.12.12,0,.23.06.23.2a.79.79,0,0,1-.05.24Zm-1-.27.61-2.52a1,1,0,0,0,0-.18,1.05,1.05,0,0,0-1-.9,1.76,1.76,0,0,0-1.44,1.21,9.62,9.62,0,0,0-.61,2.66c0,.41.13,1.06.79,1.06a1.84,1.84,0,0,0,1.43-.84A1.28,1.28,0,0,0,334,533.52Z"/><path class="cls-4" d="M339.65,536.6a4.21,4.21,0,0,1-1.56,1.47c-.12,0-.22-.06-.22-.19s0-.08.18-.25a7.58,7.58,0,0,0,1.9-5.53,8,8,0,0,0-1.86-5.48c-.14-.14-.22-.25-.22-.31s.1-.18.22-.18a5,5,0,0,1,2,2.2,8.29,8.29,0,0,1-.46,8.27Z"/><path class="cls-4" d="M354.27,534.09c-.1.39,0,.55.37.55H355c.23,0,.32.08.32.2s-.08.27-.28.27c-.91,0-1,0-1.63,0s-.78,0-1.6,0c-.16,0-.21-.08-.21-.18s.07-.29.25-.29h.38c.35,0,.66,0,.76-.38l1.73-6.9-5,7.5c-.09.12-.17.25-.36.25s-.23-.14-.27-.33l-1.27-7.28-1.59,6.41c-.15.57.11.73.71.73.13,0,.3,0,.3.2a.24.24,0,0,1-.27.27c-.78,0-.8,0-1.31,0s-.61,0-1.26,0c-.17,0-.2-.09-.2-.21s.18-.26.31-.26h.21c.47,0,.82-.1,1-.63l1.52-6.09c.08-.35.18-.54-.22-.54h-.63a.19.19,0,0,1-.22-.2c0-.27.18-.27.41-.27h1.94c.33,0,.39,0,.45.32l1.14,6.55,4.46-6.61c.17-.25.2-.26.55-.26h1.79c.22,0,.38,0,.38.18s-.14.29-.46.29c-.67,0-.85,0-.92.3Z"/><path class="cls-4" d="M359.41,535.22a2,2,0,0,1-2.25-2.12,3.66,3.66,0,0,1,3.53-3.57,2.06,2.06,0,0,1,2.24,2.15A3.63,3.63,0,0,1,359.41,535.22Zm1.7-1.5a7,7,0,0,0,.67-2.54,1.13,1.13,0,0,0-1.1-1.26A2,2,0,0,0,359,531a7,7,0,0,0-.7,2.58,1.1,1.1,0,0,0,1.12,1.26A2,2,0,0,0,361.11,533.72Z"/><path class="cls-4" d="M368.48,531.61a4.73,4.73,0,0,0,.13-.89c0-.41-.16-.8-.64-.8a2.64,2.64,0,0,0-2,1.56l-.65,2.77c-.14.56-.2,1-.72,1a.44.44,0,0,1-.48-.44,1.33,1.33,0,0,1,0-.29l.65-2.71a6.64,6.64,0,0,0,.27-1.33c0-.27-.05-.53-.33-.53s-.63.44-.85,1.35c-.08.35-.1.36-.23.36s-.27,0-.27-.17.4-1.93,1.4-1.93a1.31,1.31,0,0,1,1.33,1,2.7,2.7,0,0,1,1.93-1,1.51,1.51,0,0,1,1.6,1.14,2.81,2.81,0,0,1,2-1.14c.76,0,1.61.29,1.61,1.42a10.33,10.33,0,0,1-.73,2.66,2.6,2.6,0,0,0-.23.89c0,.32.17.32.25.32.32,0,.89-.27,1.24-1.5,0-.15.1-.18.24-.18s.21,0,.21.16a.25.25,0,0,1,0,.08,3.14,3.14,0,0,1-.76,1.47,1.44,1.44,0,0,1-1,.37,1.11,1.11,0,0,1-1.2-1.07,1.62,1.62,0,0,1,.18-.69,11.64,11.64,0,0,0,.73-2.74c0-.41-.15-.8-.63-.8-1.47,0-2,1.68-2,1.74l-.68,2.89c-.13.54-.38.67-.68.67a.42.42,0,0,1-.45-.44s0-.16.07-.38Z"/><path class="cls-4" d="M376.09,532.33a3.69,3.69,0,0,0-.16,1.16c0,.71.26,1.36,1.13,1.36a3.27,3.27,0,0,0,2.47-1.07c.11-.13.12-.16.18-.16s.24.17.24.26a2.4,2.4,0,0,1-1.24,1,4.54,4.54,0,0,1-1.69.31,2.09,2.09,0,0,1-2.23-2.26,3.44,3.44,0,0,1,3.45-3.43c.86,0,1.5.42,1.5,1.16,0,.4-.2,1-1.26,1.42a7.2,7.2,0,0,1-2.12.22Zm3.07-1.64c0-.57-.5-.77-.92-.77s-1.54.09-2.05,2C377.35,532,379.16,532,379.16,530.69Z"/><path class="cls-4" d="M385.22,529.53c.75,0,1.6.29,1.6,1.42a10.33,10.33,0,0,1-.73,2.66,2.71,2.71,0,0,0-.23.91c0,.33.17.33.26.33.31,0,.88-.3,1.23-1.53,0-.15.1-.18.24-.18s.22,0,.22.16a.13.13,0,0,1,0,.08,3,3,0,0,1-.87,1.54,1.33,1.33,0,0,1-.85.3,1.11,1.11,0,0,1-1.2-1.07,1.79,1.79,0,0,1,.18-.69,11.64,11.64,0,0,0,.73-2.74c0-.41-.14-.8-.62-.8a1.84,1.84,0,0,0-1.26.51,3.82,3.82,0,0,0-.76,1l-.67,2.82c-.14.62-.19.94-.73.94a.42.42,0,0,1-.45-.48,5.1,5.1,0,0,1,.14-.62l.64-2.74a4.31,4.31,0,0,0,.17-.93c0-.27-.05-.52-.32-.53s-.6.37-.85,1.35c-.06.23,0,.36-.28.36s-.23,0-.23-.17a5.1,5.1,0,0,1,.41-1.22,1.16,1.16,0,0,1,1-.71,1.29,1.29,0,0,1,1.32,1A2.66,2.66,0,0,1,385.22,529.53Z"/><path class="cls-4" d="M390.08,533.76a2.18,2.18,0,0,0-.07.58c0,.44.14.47.32.47.53,0,1.15-.45,1.56-1.45.08-.19.09-.22.26-.22s.22,0,.22.16a3.13,3.13,0,0,1-1.09,1.61,1.75,1.75,0,0,1-1,.31A1.2,1.2,0,0,1,389,534a2.84,2.84,0,0,1,.1-.58l.78-3.33h-1c-.22,0-.39,0-.39-.2s.18-.28.41-.28H390l.48-2a.54.54,0,0,1,.61-.45.43.43,0,0,1,.46.44,2,2,0,0,1-.08.42l-.38,1.58h1c.2,0,.36,0,.36.18s-.15.3-.34.3h-1.16Z"/><path class="cls-4" d="M395.25,535.22A2,2,0,0,1,393,533.1a3.65,3.65,0,0,1,3.52-3.57,2.07,2.07,0,0,1,2.25,2.15A3.64,3.64,0,0,1,395.25,535.22Zm1.7-1.5a7,7,0,0,0,.67-2.54,1.12,1.12,0,0,0-1.1-1.26,2.06,2.06,0,0,0-1.67,1.09,7,7,0,0,0-.69,2.58c0,1,.62,1.26,1.11,1.26A2,2,0,0,0,397,533.72Z"/><path class="cls-4" d="M404.76,534.12a10.7,10.7,0,0,1-.66,2.29,1.93,1.93,0,0,1-1.59,1.23c-.56,0-1.24-.31-1.24-.93a.71.71,0,0,1,.7-.78.55.55,0,0,1,.55.55.62.62,0,0,1-.53.67,1,1,0,0,0,.53.12c.65,0,1-1,1-1.67.14-1,.4-2.67.5-3.25l.38-2.2h-1c-.21,0-.37,0-.37-.21s.16-.27.39-.27h1a7.76,7.76,0,0,1,.6-2.4,1.82,1.82,0,0,1,1.54-.93,1.16,1.16,0,0,1,1.27,1,.64.64,0,0,1-.67.73.54.54,0,0,1-.54-.54.62.62,0,0,1,.48-.67,1,1,0,0,0-.54-.14c-.73,0-.72.75-.89,1.7l-.21,1.25h1.22c.22,0,.37,0,.37.18s-.17.3-.39.3h-1.29C405.23,531.6,405.06,532.56,404.76,534.12Z"/><path class="cls-4" d="M409.18,533.79a1.89,1.89,0,0,0-.06.55c0,.36.09.51.3.51.39,0,.64-.45.85-1.35.05-.22.06-.36.27-.36s.23,0,.23.16a5.05,5.05,0,0,1-.41,1.3,1.07,1.07,0,0,1-1,.62,1.22,1.22,0,0,1-1.32-1.18,2.32,2.32,0,0,1,.06-.45l1.42-5.89a.9.9,0,0,0,.06-.37c0-.11-.29-.12-.54-.12s-.31,0-.31-.19.18-.3.31-.3c.85,0,1.17-.12,1.53-.12.12,0,.26.06.26.2a.82.82,0,0,1,0,.25Z"/><path class="cls-4" d="M413,532.33a4.07,4.07,0,0,0-.15,1.16c0,.71.26,1.36,1.12,1.36a3.25,3.25,0,0,0,2.47-1.07c.11-.13.13-.16.19-.16s.23.17.23.26a2.36,2.36,0,0,1-1.23,1,4.57,4.57,0,0,1-1.69.31,2.09,2.09,0,0,1-2.23-2.26,3.44,3.44,0,0,1,3.45-3.43c.85,0,1.5.42,1.5,1.16,0,.4-.2,1-1.26,1.42a7.23,7.23,0,0,1-2.12.22Zm3.07-1.64c0-.57-.49-.77-.91-.77s-1.55.09-2.05,2C414.29,532,416.1,532,416.1,530.69Z"/><path class="cls-4" d="M421.06,529.92c-1.64,0-2.38,2.46-2.38,3.67,0,.83.42,1.23,1.16,1.23a3.24,3.24,0,0,0,2.48-1c.11-.13.12-.16.18-.16s.24.17.24.26a2.18,2.18,0,0,1-1,.87,3.81,3.81,0,0,1-2,.47,2.05,2.05,0,0,1-2.28-2.12,3.65,3.65,0,0,1,3.52-3.57c.95,0,1.57.47,1.57,1.13a.84.84,0,0,1-.77.89.52.52,0,0,1-.53-.52.85.85,0,0,1,.68-.78A1.31,1.31,0,0,0,421.06,529.92Z"/><path class="cls-4" d="M425.09,533.76a2.69,2.69,0,0,0-.07.58c0,.44.14.47.32.47.53,0,1.16-.45,1.56-1.45.09-.19.1-.22.27-.22s.21,0,.21.16a3.13,3.13,0,0,1-1.09,1.61,1.71,1.71,0,0,1-1,.31A1.19,1.19,0,0,1,424,534a2.61,2.61,0,0,1,.09-.58l.78-3.33h-1c-.21,0-.38,0-.38-.2s.18-.28.41-.28H425l.48-2a.55.55,0,0,1,.61-.45.43.43,0,0,1,.46.44,2.81,2.81,0,0,1-.07.42l-.39,1.58h1c.21,0,.36,0,.36.18s-.14.3-.33.3h-1.17Z"/><path class="cls-4" d="M430.26,535.22A2,2,0,0,1,428,533.1a3.65,3.65,0,0,1,3.53-3.57,2.06,2.06,0,0,1,2.24,2.15A3.63,3.63,0,0,1,430.26,535.22Zm1.71-1.5a7,7,0,0,0,.67-2.54,1.13,1.13,0,0,0-1.1-1.26,2,2,0,0,0-1.67,1.09,7,7,0,0,0-.7,2.58,1.1,1.1,0,0,0,1.12,1.26A2,2,0,0,0,432,533.72Z"/><path class="cls-4" d="M438.54,529.92a1.68,1.68,0,0,0-1.28.74,1.48,1.48,0,0,0-.29.48l-.81,3.4c-.15.6-.33.67-.69.67a.4.4,0,0,1-.43-.43,1.22,1.22,0,0,1,0-.35l.73-3a4.25,4.25,0,0,0,.17-1c0-.27-.07-.51-.33-.51s-.6.3-.79,1.13l-.08.36c-.06.24-.1.22-.25.22s-.23,0-.23-.17a5.14,5.14,0,0,1,.41-1.24,1.12,1.12,0,0,1,1-.69,1.3,1.3,0,0,1,1.27.86,2.1,2.1,0,0,1,1.59-.86,1,1,0,0,1,1.09,1,.81.81,0,0,1-.76.86.52.52,0,0,1-.54-.52.79.79,0,0,1,.67-.76A.65.65,0,0,0,438.54,529.92Z"/><path class="cls-4" d="M446.24,529.92c-1.65,0-2.38,2.46-2.38,3.67,0,.83.42,1.23,1.15,1.23a3.24,3.24,0,0,0,2.48-1c.11-.13.12-.16.18-.16s.24.17.24.26a2.18,2.18,0,0,1-1,.87,3.77,3.77,0,0,1-2,.47,2,2,0,0,1-2.28-2.12,3.65,3.65,0,0,1,3.51-3.57c.95,0,1.57.47,1.57,1.13a.83.83,0,0,1-.76.89.52.52,0,0,1-.53-.52.84.84,0,0,1,.67-.78A1.29,1.29,0,0,0,446.24,529.92Z"/><path class="cls-4" d="M453.09,533.54a3.44,3.44,0,0,0-.12.8c0,.34.09.51.31.51.37,0,.9-.59.9-1.35,0-.26.11-.34.32-.34s.17.06.17.14a2.76,2.76,0,0,1-.68,1.64,1.31,1.31,0,0,1-2-.5,2.35,2.35,0,0,1-1.64.78,1.83,1.83,0,0,1-1.87-2c0-1.81,1.43-3.66,3.17-3.66a1.36,1.36,0,0,1,1.19.65.53.53,0,0,1,.57-.41.44.44,0,0,1,.47.45c0,.08-.1.47-.16.72Zm-1.09,0,.6-2.51a1.23,1.23,0,0,0,0-.19,1,1,0,0,0-1-.9,1.77,1.77,0,0,0-1.44,1.21,9.91,9.91,0,0,0-.61,2.66c0,.41.13,1.06.79,1.06a1.88,1.88,0,0,0,1.41-.84A.92.92,0,0,0,452,533.52Z"/><path class="cls-4" d="M459.27,529.92a1.68,1.68,0,0,0-1.29.74,1.25,1.25,0,0,0-.28.48l-.82,3.4c-.14.6-.32.67-.68.67a.4.4,0,0,1-.43-.43,1.63,1.63,0,0,1,0-.35l.73-3a4.25,4.25,0,0,0,.17-1c0-.27-.07-.51-.32-.51s-.6.3-.79,1.13l-.09.36c-.06.24-.09.22-.25.22s-.23,0-.23-.17a5.14,5.14,0,0,1,.41-1.24,1.13,1.13,0,0,1,1-.69,1.32,1.32,0,0,1,1.27.86,2.06,2.06,0,0,1,1.58-.86,1,1,0,0,1,1.09,1,.8.8,0,0,1-.75.86.51.51,0,0,1-.54-.52.78.78,0,0,1,.67-.76A.7.7,0,0,0,459.27,529.92Z"/><path class="cls-4" d="M465.39,535.92a2.73,2.73,0,0,1-2.85,1.72c-1.06,0-1.76-.3-1.76-1a.73.73,0,0,1,.71-.75.59.59,0,0,1,.57.56.64.64,0,0,1-.4.64,1.58,1.58,0,0,0,.87.19,2,2,0,0,0,1.77-1.35c.07-.17.23-.9.33-1.35a2.1,2.1,0,0,1-1.38.54,1.84,1.84,0,0,1-1.88-2c0-1.7,1.37-3.58,3.15-3.58a1.35,1.35,0,0,1,1.2.64.61.61,0,0,1,.57-.4.43.43,0,0,1,.46.45.81.81,0,0,1,0,.17Zm.14-5.1,0-.12a1,1,0,0,0-1-.78,1.72,1.72,0,0,0-1.42,1.19,9.22,9.22,0,0,0-.61,2.57c0,.66.31,1.06.81,1.06a1.85,1.85,0,0,0,1.33-.71.72.72,0,0,0,.22-.43Z"/><path class="cls-4" d="M472,533.54a4.08,4.08,0,0,0-.12.8c0,.34.1.51.31.51.38,0,.9-.59.9-1.35,0-.26.11-.34.33-.34s.17.06.17.14a2.72,2.72,0,0,1-.69,1.64,1.23,1.23,0,0,1-.75.28,1.26,1.26,0,0,1-1.25-.78,2.37,2.37,0,0,1-1.64.78,1.83,1.83,0,0,1-1.87-2c0-1.81,1.42-3.66,3.16-3.66a1.38,1.38,0,0,1,1.2.65.52.52,0,0,1,.56-.41.44.44,0,0,1,.47.45,7.25,7.25,0,0,1-.15.72Zm-1.09,0,.6-2.51a1.23,1.23,0,0,0,0-.19,1,1,0,0,0-1-.9,1.79,1.79,0,0,0-1.44,1.21,9.91,9.91,0,0,0-.61,2.66c0,.41.13,1.06.79,1.06a1.9,1.9,0,0,0,1.42-.84A1,1,0,0,0,470.87,533.52Z"/><path class="cls-4" d="M479.63,535.22c-1.08,0-1.86-.36-1.86-1.61a8.34,8.34,0,0,1,.73-2.61,2.23,2.23,0,0,0,.17-.75c0-.25-.08-.32-.24-.32-.36,0-.92.38-1.23,1.5-.05.17-.1.2-.24.2s-.23,0-.23-.17a3.09,3.09,0,0,1,.81-1.58,1.47,1.47,0,0,1,.94-.35,1.13,1.13,0,0,1,1.2,1.1,2,2,0,0,1-.19.72,7.78,7.78,0,0,0-.66,2.47.89.89,0,0,0,.89,1c1.4,0,2.12-2.76,2.12-3.17a1,1,0,0,0-.52-.91.53.53,0,0,1-.27-.46.85.85,0,0,1,.76-.79c.06,0,.69,0,.69,1S481.67,535.22,479.63,535.22Z"/><path class="cls-4" d="M486,534.91a1.37,1.37,0,0,1-.88.31,1.11,1.11,0,0,1-1.2-1.07,1.86,1.86,0,0,1,.18-.69l.72-1.91a5,5,0,0,0,.37-1.3c0-.31-.13-.31-.26-.31-.39,0-.91.4-1.22,1.49,0,.17-.09.2-.24.2s-.23,0-.23-.17.54-1.93,1.76-1.93a1.11,1.11,0,0,1,1.18,1.1,10.81,10.81,0,0,1-.71,2.12,6,6,0,0,0-.55,1.76c0,.28.11.31.27.31.36,0,.88-.32,1.21-1.5.05-.15.09-.18.24-.18s.21,0,.21.16A2.84,2.84,0,0,1,486,534.91Zm-.13-7a.52.52,0,0,1-.54-.53.8.8,0,0,1,.77-.75.53.53,0,0,1,.55.53A.81.81,0,0,1,485.87,528Z"/><path class="cls-4" d="M491.69,529.92a1.65,1.65,0,0,0-1.28.74,1.32,1.32,0,0,0-.29.48l-.82,3.4c-.14.6-.32.67-.68.67a.4.4,0,0,1-.43-.43,1.22,1.22,0,0,1,.05-.35l.73-3a4.25,4.25,0,0,0,.17-1c0-.27-.08-.51-.33-.51s-.6.3-.79,1.13l-.08.36c-.06.24-.1.22-.26.22s-.22,0-.22-.17a5,5,0,0,1,.4-1.24,1.14,1.14,0,0,1,1-.69,1.31,1.31,0,0,1,1.27.86,2.06,2.06,0,0,1,1.58-.86,1,1,0,0,1,1.1,1,.81.81,0,0,1-.76.86.51.51,0,0,1-.54-.52.78.78,0,0,1,.67-.76A.67.67,0,0,0,491.69,529.92Z"/><path class="cls-4" d="M495.06,533.76a2.69,2.69,0,0,0-.07.58c0,.44.15.47.32.47.53,0,1.16-.45,1.56-1.45.09-.19.1-.22.27-.22s.21,0,.21.16a3.13,3.13,0,0,1-1.09,1.61,1.7,1.7,0,0,1-1,.31A1.2,1.2,0,0,1,494,534a2.61,2.61,0,0,1,.09-.58l.78-3.33h-1c-.21,0-.38,0-.38-.2s.18-.28.41-.28h1.11l.48-2a.55.55,0,0,1,.61-.45.43.43,0,0,1,.46.44,2.81,2.81,0,0,1-.07.42l-.39,1.58h1c.21,0,.36,0,.36.18s-.14.3-.33.3h-1.17Z"/><path class="cls-4" d="M503.18,533.6a3.36,3.36,0,0,0-.12.74c0,.33.09.51.32.51s.61-.37.85-1.35c.08-.32.13-.34.31-.34s.18.06.18.14A3.27,3.27,0,0,1,504,535a.92.92,0,0,1-.66.23,1.31,1.31,0,0,1-1.23-.74,2,2,0,0,1-1.5.74,1.5,1.5,0,0,1-1.71-1.56,8,8,0,0,1,.73-2.64,2.47,2.47,0,0,0,.17-.77c0-.24-.07-.32-.24-.32-.36,0-.91.37-1.24,1.5,0,.17-.09.2-.24.2s-.22,0-.22-.17a3.2,3.2,0,0,1,.82-1.57,1.45,1.45,0,0,1,.93-.36,1.13,1.13,0,0,1,1.2,1.1,1.83,1.83,0,0,1-.17.66,8.3,8.3,0,0,0-.69,2.6c0,.26,0,1,.74,1a1.76,1.76,0,0,0,1.34-.91l.9-3.76c.12-.49.4-.51.61-.51a.42.42,0,0,1,.46.44,3.07,3.07,0,0,1-.1.58Z"/><path class="cls-4" d="M509.8,533.54a3.44,3.44,0,0,0-.12.8c0,.34.09.51.31.51s.9-.59.9-1.35c0-.26.11-.34.32-.34s.17.06.17.14a2.76,2.76,0,0,1-.68,1.64,1.24,1.24,0,0,1-.76.28,1.26,1.26,0,0,1-1.25-.78,2.35,2.35,0,0,1-1.64.78,1.83,1.83,0,0,1-1.87-2c0-1.81,1.43-3.66,3.17-3.66a1.39,1.39,0,0,1,1.2.65.51.51,0,0,1,.56-.41.44.44,0,0,1,.47.45c0,.08-.1.47-.16.72Zm-1.09,0,.6-2.51a1.23,1.23,0,0,0,0-.19,1,1,0,0,0-1-.9,1.77,1.77,0,0,0-1.44,1.21,9.91,9.91,0,0,0-.61,2.66c0,.41.13,1.06.79,1.06a1.88,1.88,0,0,0,1.41-.84A.92.92,0,0,0,508.71,533.52Z"/><path class="cls-4" d="M513.11,533.79a1.89,1.89,0,0,0-.06.55c0,.36.09.51.3.51.38,0,.64-.45.85-1.35,0-.22.06-.36.27-.36s.22,0,.22.16a4.89,4.89,0,0,1-.4,1.3,1.07,1.07,0,0,1-1,.62A1.22,1.22,0,0,1,512,534a2.32,2.32,0,0,1,.06-.45l1.42-5.89a.9.9,0,0,0,.06-.37c0-.11-.29-.12-.54-.12s-.31,0-.31-.19.18-.3.31-.3c.85,0,1.17-.12,1.53-.12.12,0,.26.06.26.2a.82.82,0,0,1,0,.25Z"/></svg>